<svg xmlns="http://www.w3.org/2000/svg" xmlns:xlink="http://www.w3.org/1999/xlink" width="262" height="263" viewBox="0 0 262 263">
  <defs>
    <filter id="Rectangle_12" x="0" y="0" width="262" height="263" filterUnits="userSpaceOnUse">
      <feOffset input="SourceAlpha"/>
      <feGaussianBlur stdDeviation="14.5" result="blur"/>
      <feFlood flood-opacity="0.102"/>
      <feComposite operator="in" in2="blur"/>
      <feComposite in="SourceGraphic"/>
    </filter>
    <linearGradient id="linear-gradient" x1="-0.01" y1="-0.117" x2="1.025" y2="1.274" gradientUnits="objectBoundingBox">
      <stop offset="0" stop-color="#9b2172"/>
      <stop offset="0.247" stop-color="#831e61"/>
      <stop offset="0.763" stop-color="#471735"/>
      <stop offset="0.971" stop-color="#2e1523"/>
    </linearGradient>
    <linearGradient id="linear-gradient-2" x1="-11.457" y1="-7.584" x2="19.506" y2="13.34" xlink:href="#linear-gradient"/>
    <linearGradient id="linear-gradient-3" x1="-12.289" y1="-8.067" x2="18.956" y2="12.862" xlink:href="#linear-gradient"/>
    <linearGradient id="linear-gradient-4" x1="-20.35" y1="-13.601" x2="10.589" y2="7.322" xlink:href="#linear-gradient"/>
    <linearGradient id="linear-gradient-5" x1="-19.633" y1="-13.118" x2="11.297" y2="7.803" xlink:href="#linear-gradient"/>
    <linearGradient id="linear-gradient-6" x1="-16.806" y1="-4.663" x2="14.245" y2="4.599" xlink:href="#linear-gradient"/>
    <linearGradient id="linear-gradient-7" x1="-21.096" y1="-5.94" x2="9.954" y2="3.32" xlink:href="#linear-gradient"/>
    <linearGradient id="linear-gradient-8" x1="-13.643" y1="-7.117" x2="17.298" y2="9.545" xlink:href="#linear-gradient"/>
    <linearGradient id="linear-gradient-9" x1="-17.931" y1="-9.414" x2="13.029" y2="7.243" xlink:href="#linear-gradient"/>
  </defs>
  <g id="Group_183" data-name="Group 183" transform="translate(-1186.5 -2332.5)">
    <g transform="matrix(1, 0, 0, 1, 1186.5, 2332.5)" filter="url(#Rectangle_12)">
      <rect id="Rectangle_12-2" data-name="Rectangle 12" width="175" height="176" rx="24" transform="translate(43.5 43.5)" fill="#fff"/>
    </g>
    <g id="Group_166" data-name="Group 166" transform="translate(997.948 3729.225)">
      <path id="Path_83" data-name="Path 83" d="M276-1281.224v-4.1l1.67-2.321a16.512,16.512,0,0,1-.969-1.68,20.59,20.59,0,0,1-.7-2.073v-2.3a10.921,10.921,0,0,1,3.105-5.833,19.378,19.378,0,0,0,4.2-5.917,2.559,2.559,0,0,1,2.569-1.571,2.572,2.572,0,0,1,2.461,1.61,18.276,18.276,0,0,0,3.964,5.681,18.224,18.224,0,0,1,1.444,1.678,8.427,8.427,0,0,1,.13,10.411.7.7,0,0,0-.074.232,2.736,2.736,0,0,1,1.773,2.378,32.515,32.515,0,0,1,0,3.361,2.647,2.647,0,0,1-2.1,2.432c-.208.055-.414.116-.6.168v5.5h50.39c0-1.644-.018-3.25.01-4.855a.684.684,0,0,0-.642-.821,2.655,2.655,0,0,1-2.162-2.631c-.034-.682.02-1.369-.021-2.051a3.143,3.143,0,0,1,1.91-3.485,8.037,8.037,0,0,1-1.627-7.385,10.7,10.7,0,0,1,3.162-5.09,17.824,17.824,0,0,0,3.787-5.407,2.652,2.652,0,0,1,2.657-1.7,2.7,2.7,0,0,1,2.53,1.772,16.768,16.768,0,0,0,3.508,5.108,21.3,21.3,0,0,1,1.785,2.032,8.28,8.28,0,0,1,1.707,7.093,23.881,23.881,0,0,1-1.465,3.624c1.449,1.007,1.663,1.431,1.663,3.455a9.286,9.286,0,0,1-.031,1.963,4.433,4.433,0,0,1-.849,1.958,6.855,6.855,0,0,1-1.875,1.068v10.989c.249,0,.462,0,.674,0,1.716.017,2.081.377,2.082,2.057q0,20.434.013,40.867a1.912,1.912,0,0,1-1,1.894H276v-43.828c.555-1.26,1.747-.936,2.764-1.017v-11.161A3.177,3.177,0,0,1,276-1281.224Zm32.277,28.746v26.518h2.736v-.933c0-4.02.015-8.04,0-12.06a9.819,9.819,0,0,1,2.609-6.962,36.027,36.027,0,0,1,2.571-2.528,2.714,2.714,0,0,1,3.732.026c.6.519,1.169,1.072,1.738,1.624a10.746,10.746,0,0,1,3.413,8.3c-.083,3.882-.02,7.766-.017,11.649,0,.29.025.58.037.859H327.8v-26.5Zm35.029,26.5h13.907v-12.5H343.306Zm-64.445-12.517v12.523h13.886v-12.523Zm43.319,12.542a2.587,2.587,0,0,0,.06-.368c0-4.322-.011-8.643,0-12.965.005-3.2-2.035-5.14-4.213-7.044-.29.257-.509.462-.74.653a8.883,8.883,0,0,0-3.5,7.648c.157,3.714.037,7.438.037,11.158v.917Zm28.07-78.452c-1.116,3.1-3.237,5.211-5.2,7.444a8.178,8.178,0,0,0-1.318,2.056,5.068,5.068,0,0,0,4.709,7.343c1.365.017,2.734.043,4.1-.025a4.908,4.908,0,0,0,4.725-5.073,6.92,6.92,0,0,0-2.25-4.849A21.081,21.081,0,0,1,350.249-1304.4Zm-64.487.086c-1.052,2.954-3.111,5.036-5.041,7.223a8.8,8.8,0,0,0-1.456,2.259c-1.315,3.013.135,6.479,3.2,7.026a18.888,18.888,0,0,0,6.671,0c3.387-.637,4.752-4.686,2.833-7.834a17.051,17.051,0,0,0-2.216-2.73,19.87,19.87,0,0,1-3.652-5.315C286.025-1303.854,285.927-1304.012,285.762-1304.316Zm7,44.837H278.849v12.509h13.911Zm64.483-.016H343.333v12.513h13.909Zm-51.891,33.546V-1244.1h-9.689v18.148Zm35.037,0v-18.113H330.7v18.113Zm-47.539-42.044h50.367v-2.694H292.849Zm2.833,8.473v12.554h9.659v-12.554Zm44.717.036H330.7v12.5H340.4Zm-58.765-8.5h8.313v-11.1h-8.312Zm72.8-11.095h-8.315v11.094h8.315Zm-46.179,23.707H327.8v-4.108H308.253Zm0-7.018h19.537v-2.687H308.257Zm-29.431-19.6h13.906v-2.686H278.825Zm78.4,16.893H343.318v2.712h13.908Zm-78.389,23.722h13.908v-2.71H278.837Zm13.92-23.7H278.838v2.675h13.918Zm50.549,23.686h13.922v-2.678H343.306Zm0-40.616h13.91v-2.679h-13.91Zm-12.616,19.636H340.4v-2.72h-9.712ZM295.68-1265.1v2.722h9.68v-2.722Z" transform="translate(0 0)" fill="url(#linear-gradient)"/>
      <path id="Path_84" data-name="Path 84" d="M295.088-1153.429c0,.465.021.93,0,1.393a1.4,1.4,0,0,1-1.334,1.392,1.358,1.358,0,0,1-1.416-1.218,24.549,24.549,0,0,1,.005-3.193,1.306,1.306,0,0,1,1.44-1.166,1.322,1.322,0,0,1,1.3,1.316C295.112-1154.415,295.087-1153.921,295.088-1153.429Z" transform="translate(-10.701 -99.087)" fill="url(#linear-gradient-2)"/>
      <path id="Path_85" data-name="Path 85" d="M311.465-1153.462c0,.492.025.985-.006,1.475a1.373,1.373,0,0,1-1.289,1.347,1.3,1.3,0,0,1-1.414-1.1,19.907,19.907,0,0,1,.013-3.426,1.21,1.21,0,0,1,1.437-1.043,1.326,1.326,0,0,1,1.255,1.275,1.634,1.634,0,0,1,.01.164q0,.655,0,1.311Z" transform="translate(-21.479 -99.091)" fill="url(#linear-gradient-3)"/>
      <path id="Path_86" data-name="Path 86" d="M499.434-1153.492c0,.492.031.986-.007,1.475a1.42,1.42,0,0,1-1.45,1.372,1.383,1.383,0,0,1-1.324-1.4q-.041-1.392,0-2.787a1.323,1.323,0,0,1,1.31-1.39,1.37,1.37,0,0,1,1.464,1.336C499.466-1154.423,499.434-1153.956,499.434-1153.492Z" transform="translate(-144.973 -99.087)" fill="url(#linear-gradient-4)"/>
      <path id="Path_87" data-name="Path 87" d="M483.1-1153.477c0,.492.036.987-.008,1.474a1.416,1.416,0,0,1-1.464,1.358,1.374,1.374,0,0,1-1.307-1.413q-.043-1.392,0-2.786a1.319,1.319,0,0,1,1.321-1.378,1.355,1.355,0,0,1,1.44,1.272,13.611,13.611,0,0,1,.01,1.473Z" transform="translate(-134.238 -99.086)" fill="url(#linear-gradient-5)"/>
      <path id="Path_88" data-name="Path 88" d="M348.232-1109.14c0,1.557.007,3.115,0,4.672-.006.979-.535,1.606-1.347,1.634a1.45,1.45,0,0,1-1.444-1.629q-.014-4.672,0-9.344a1.446,1.446,0,0,1,1.44-1.63c.817.024,1.346.645,1.351,1.625C348.239-1112.254,348.232-1110.7,348.232-1109.14Z" transform="translate(-45.622 -125.885)" fill="url(#linear-gradient-6)"/>
      <path id="Path_89" data-name="Path 89" d="M443.535-1109.154c0-1.557-.008-3.115,0-4.672a1.428,1.428,0,0,1,1.364-1.612c.84-.016,1.424.636,1.427,1.645q.013,4.672,0,9.344a1.457,1.457,0,0,1-1.377,1.618c-.836.018-1.408-.637-1.415-1.65C443.528-1106.04,443.535-1107.6,443.535-1109.154Z" transform="translate(-110.081 -125.884)" fill="url(#linear-gradient-7)"/>
      <path id="Path_90" data-name="Path 90" d="M348.216-1156.88c0,.681.016,1.362-.005,2.042a1.408,1.408,0,0,1-1.345,1.462,1.414,1.414,0,0,1-1.437-1.459q-.041-2.041,0-4.084a1.412,1.412,0,0,1,1.434-1.461,1.422,1.422,0,0,1,1.351,1.459c0,.054,0,.109,0,.163Q348.218-1157.819,348.216-1156.88Z" transform="translate(-45.607 -96.353)" fill="url(#linear-gradient-8)"/>
      <path id="Path_91" data-name="Path 91" d="M446.32-1156.89c0,.684.022,1.369-.006,2.052a1.426,1.426,0,0,1-1.452,1.457,1.4,1.4,0,0,1-1.331-1.484q-.029-2.01,0-4.021a1.411,1.411,0,0,1,1.4-1.5,1.445,1.445,0,0,1,1.387,1.528C446.337-1158.2,446.321-1157.547,446.32-1156.89Z" transform="translate(-110.071 -96.349)" fill="url(#linear-gradient-9)"/>
    </g>
  </g>
</svg>
