<svg xmlns="http://www.w3.org/2000/svg" xmlns:xlink="http://www.w3.org/1999/xlink" width="111" height="111" viewBox="0 0 111 111">
  <defs>
    <clipPath id="clip-path">
      <rect id="Rectangle_58" data-name="Rectangle 58" width="44.27" height="76.776" fill="#fff"/>
    </clipPath>
  </defs>
  <g id="Group_286" data-name="Group 286" transform="translate(-630 -1151)">
    <g id="Group_218" data-name="Group 218" transform="translate(-275 313)">
      <circle id="Ellipse_3" data-name="Ellipse 3" cx="55.5" cy="55.5" r="55.5" transform="translate(905 838)" fill="#631549"/>
    </g>
    <g id="Group_278" data-name="Group 278" transform="translate(661.863 1168.111)">
      <g id="Group_277" data-name="Group 277" clip-path="url(#clip-path)">
        <path id="Path_101" data-name="Path 101" d="M34.286,47.868a4.026,4.026,0,0,1,6.767,2.166,3.911,3.911,0,0,1,6.829,1.972,4.176,4.176,0,0,1,2.038-1.312A4.226,4.226,0,0,1,55.2,54.68c.061,4.169.031,8.34,0,12.511a14.636,14.636,0,0,1-1.555,6.023Q52,76.787,50.448,80.4a1.352,1.352,0,0,1-1.45.939c-6.448-.03-12.9-.021-19.346-.013a1.215,1.215,0,0,1-.976-.433c-2.1-2.325-4.225-4.621-6.294-6.968a14.244,14.244,0,0,1-3.689-10.38,7.822,7.822,0,0,1,6.081-7.1c.3-.065.6-.117.973-.19v-.521q0-9.353,0-18.707a4.293,4.293,0,0,1,6.113-3.912A4.006,4.006,0,0,1,34.3,36.927c.018,3.49-.008,6.981-.016,10.472v.47M25,58.043c-.215.064-.365.1-.512.154a6.285,6.285,0,0,0-4.23,6.031,12.854,12.854,0,0,0,3.264,8.545c1.979,2.25,4.017,4.447,6.023,6.673a.75.75,0,0,0,.616.275q9.191-.011,18.383,0a.547.547,0,0,0,.592-.379q1.636-3.707,3.3-7.4a12.492,12.492,0,0,0,1.166-5.179q.015-5.855.007-11.71a3.429,3.429,0,0,0-.071-.715A2.569,2.569,0,0,0,51.679,52.3a2.21,2.21,0,0,0-2.411.614,2.453,2.453,0,0,0-.638,1.755q0,3.8,0,7.594a1.175,1.175,0,1,1-2.346.017c0-3.21-.036-6.421.013-9.631a2.277,2.277,0,0,0-2.639-2.354,2.219,2.219,0,0,0-1.791,1.892c-.009.53.008,1.059.007,1.589,0,2,0,4-.016,5.995a1.182,1.182,0,1,1-2.359,0c-.01-1.754-.009-3.508-.011-5.263,0-1.237,0-2.475,0-3.712a2.489,2.489,0,0,0-.532-1.518,2.415,2.415,0,0,0-2.523-.882,2.026,2.026,0,0,0-1.4,2.132c-.006,2,0,4,0,6a1.191,1.191,0,0,1-1.2,1.3,1.176,1.176,0,0,1-1.155-1.3c0-2.757-.007-5.515,0-8.273,0-2.011.03-4.022.035-6.033,0-1.812.031-3.624-.021-5.434a2.622,2.622,0,0,0-2.575-2.463,2.665,2.665,0,0,0-2.754,2.746c-.018,2.131-.009,4.263-.009,6.394q0,9.512,0,19.024A1.21,1.21,0,0,1,26.171,63.8,1.192,1.192,0,0,1,25,62.481q0-1.979,0-3.957v-.481" transform="translate(-10.966 -19.181)" fill="#fff"/>
        <path id="Path_102" data-name="Path 102" d="M48.232,166.976H36.481a1.935,1.935,0,0,1-2.165-2.17q0-4.477,0-8.953a3.242,3.242,0,0,1,.09-.868,1.8,1.8,0,0,1,1.743-1.336c.959-.03,1.919-.022,2.878-.022q10.512,0,21.024,0a1.919,1.919,0,0,1,2.091,1.577,2.442,2.442,0,0,1,.036.476q0,4.637,0,9.273a1.912,1.912,0,0,1-2.039,2.018q-5.956,0-11.911,0m.039-1.612h11.71c.547,0,.592-.047.592-.595q0-4.417,0-8.833c0-.668-.036-.706-.693-.706h-23.3c-.6,0-.649.046-.649.668q0,4.416,0,8.833c0,.6.028.632.631.632h11.71" transform="translate(-20.148 -90.201)" fill="#fff"/>
        <path id="Path_103" data-name="Path 103" d="M43.39,6.263V.95a.864.864,0,0,1,.459-.826A.872.872,0,0,1,44.8.156a.976.976,0,0,1,.4.9c-.006,1.5,0,3.009,0,4.514q0,3,0,5.992a.925.925,0,0,1-.718,1.01.884.884,0,0,1-1.082-.919c-.022-.852-.012-1.7-.013-2.556q0-1.418,0-2.836Z" transform="translate(-25.472 0)" fill="#fff"/>
        <path id="Path_104" data-name="Path 104" d="M68.358,45.433q-2.677,0-5.353,0a.867.867,0,0,1-.87-.582.765.765,0,0,1,.188-.917,1.349,1.349,0,0,1,.781-.3c2.437.007,4.874.045,7.311.077,1.092.014,2.184.036,3.275.055a.9.9,0,1,1-.019,1.788q-2.656,0-5.313,0v-.125" transform="translate(-36.44 -25.621)" fill="#fff"/>
        <path id="Path_105" data-name="Path 105" d="M17.374,27.717a.9.9,0,0,1-1.295.877,6.449,6.449,0,0,1-.649-.39L7,22.865a.934.934,0,0,1-.414-1.317.917.917,0,0,1,1.361-.23q4.466,2.829,8.93,5.662a.932.932,0,0,1,.492.738" transform="translate(-3.79 -12.4)" fill="#fff"/>
        <path id="Path_106" data-name="Path 106" d="M53.569,16.771a.912.912,0,0,1-.87-1.39c.693-1.212,1.4-2.414,2.108-3.62q1.627-2.792,3.251-5.586a.91.91,0,0,1,.952-.513.758.758,0,0,1,.724.64,1.486,1.486,0,0,1-.16.862c-.876,1.552-1.786,3.084-2.685,4.624Q55.6,13.993,54.321,16.2a.978.978,0,0,1-.752.57" transform="translate(-30.862 -3.319)" fill="#fff"/>
        <path id="Path_107" data-name="Path 107" d="M29.976,15.658a.929.929,0,0,1-.664.963.883.883,0,0,1-1.038-.47q-1.287-2.454-2.563-4.915c-.779-1.5-1.561-2.995-2.32-4.5a1.466,1.466,0,0,1-.148-.758.852.852,0,0,1,.769-.7.944.944,0,0,1,.936.548q1.127,2.156,2.244,4.317,1.3,2.515,2.6,5.035a3.915,3.915,0,0,1,.187.487" transform="translate(-13.644 -3.091)" fill="#fff"/>
        <path id="Path_108" data-name="Path 108" d="M6.39,45.209c-1.769-.06-3.538-.113-5.306-.189a1.472,1.472,0,0,1-.74-.226.815.815,0,0,1-.283-1,.869.869,0,0,1,.9-.589c1.636.051,3.271.112,4.907.173,1.928.072,3.855.151,5.782.222a.9.9,0,0,1,.862.534.767.767,0,0,1-.157.955,1.293,1.293,0,0,1-.78.287c-1.729-.031-3.458-.1-5.186-.159v-.008" transform="translate(0 -25.368)" fill="#fff"/>
        <path id="Path_109" data-name="Path 109" d="M60.423,28.9a.926.926,0,0,1-.99-.632.868.868,0,0,1,.424-1.056c.99-.573,1.99-1.128,2.984-1.692,2.06-1.167,4.116-2.34,6.183-3.5a1.523,1.523,0,0,1,.782-.216.821.821,0,0,1,.761.709.9.9,0,0,1-.469.972c-.968.557-1.943,1.1-2.915,1.653q-3.125,1.769-6.252,3.535a4.381,4.381,0,0,1-.509.222" transform="translate(-34.869 -12.804)" fill="#fff"/>
      </g>
    </g>
  </g>
</svg>
