<svg xmlns="http://www.w3.org/2000/svg" xmlns:xlink="http://www.w3.org/1999/xlink" width="111" height="111" viewBox="0 0 111 111">
  <defs>
    <clipPath id="clip-path">
      <rect id="Rectangle_60" data-name="Rectangle 60" width="59.681" height="61.251" fill="#fff"/>
    </clipPath>
  </defs>
  <g id="Group_221" data-name="Group 221" transform="translate(-905 -838)">
    <circle id="Ellipse_3" data-name="Ellipse 3" cx="55.5" cy="55.5" r="55.5" transform="translate(905 838)" fill="#631549"/>
    <g id="Group_282" data-name="Group 282" transform="translate(930.66 862.874)">
      <g id="Group_281" data-name="Group 281" transform="translate(0 0)" clip-path="url(#clip-path)">
        <path id="Path_117" data-name="Path 117" d="M10.855,4.125c0-.934.052-1.71-.012-2.476C10.738.372,11.338-.022,12.536,0c2.6.048,5.2.014,7.794.014H46.444c1.842,0,2.029.178,2.032,1.969,0,.647,0,1.3,0,2.141h3.654c2.035,0,4.071.027,6.106-.009,1.011-.018,1.415.447,1.408,1.406-.01,1.472,0,2.946,0,4.418q0,24.238,0,48.475a4.527,4.527,0,0,1-.08,1.668,3.147,3.147,0,0,1-1.146,1.1c-.174.123-.506.028-.766.027Q29.719,61.209,1.787,61.2C.208,61.2,0,60.99,0,59.395Q0,32.624,0,5.852C0,4.326.187,4.134,1.717,4.129c2.983-.01,5.967,0,9.138,0M57.543,52.753V12.526H2.1V52.719h3.88V51.228q0-14.881,0-29.761c0-1.859.139-2,1.98-2H51.61c1.927,0,2.024.093,2.026,2.077q.006,14.491.006,28.981v2.23Zm-35.172-.007h14.94V21.558H22.371ZM12.916,10.38H46.4V2.09H12.916ZM8.079,43.058h12.1V21.551H8.079Zm31.4,0H51.59v-21.5H39.479ZM57.59,54.9H2.092v4.255h55.5ZM8.049,52.7H20.159V45.281H8.049Zm31.415-.027H51.607V45.285H39.464Zm18.1-46.439H48.9v4.218h8.668ZM2.091,10.4h8.662V6.2H2.091Z" transform="translate(0 0)" fill="#fff"/>
        <path id="Path_118" data-name="Path 118" d="M39.876,46.9a14.127,14.127,0,0,1,.042-2.451,1.494,1.494,0,0,1,.924-.965c.234-.063.906.487.921.786.093,1.8.1,3.612.012,5.413-.013.293-.695.831-.951.77a1.454,1.454,0,0,1-.9-.973,16.339,16.339,0,0,1-.042-2.581Z" transform="translate(-6.65 -7.256)" fill="#fff"/>
      </g>
    </g>
  </g>
</svg>
