<svg xmlns="http://www.w3.org/2000/svg" xmlns:xlink="http://www.w3.org/1999/xlink" width="262" height="263" viewBox="0 0 262 263">
  <defs>
    <filter id="Rectangle_12" x="0" y="0" width="262" height="263" filterUnits="userSpaceOnUse">
      <feOffset input="SourceAlpha"/>
      <feGaussianBlur stdDeviation="14.5" result="blur"/>
      <feFlood flood-opacity="0.102"/>
      <feComposite operator="in" in2="blur"/>
      <feComposite in="SourceGraphic"/>
    </filter>
    <linearGradient id="linear-gradient" x1="-0.144" y1="-0.156" x2="0.908" y2="1.28" gradientUnits="objectBoundingBox">
      <stop offset="0" stop-color="#9b2172"/>
      <stop offset="0.247" stop-color="#831e61"/>
      <stop offset="0.763" stop-color="#471735"/>
      <stop offset="0.971" stop-color="#2e1523"/>
    </linearGradient>
    <linearGradient id="linear-gradient-2" x1="-14.983" y1="-17.346" x2="19.393" y2="22.276" xlink:href="#linear-gradient"/>
    <linearGradient id="linear-gradient-3" x1="-16.301" y1="-18.863" x2="18.075" y2="20.755" xlink:href="#linear-gradient"/>
    <linearGradient id="linear-gradient-4" x1="-23.771" y1="-27.473" x2="10.608" y2="12.15" xlink:href="#linear-gradient"/>
    <linearGradient id="linear-gradient-5" x1="-25.102" y1="-28.958" x2="9.294" y2="10.619" xlink:href="#linear-gradient"/>
  </defs>
  <g id="Group_180" data-name="Group 180" transform="translate(-472.5 -2332.5)">
    <g transform="matrix(1, 0, 0, 1, 472.5, 2332.5)" filter="url(#Rectangle_12)">
      <rect id="Rectangle_12-2" data-name="Rectangle 12" width="175" height="176" rx="24" transform="translate(43.5 43.5)" fill="#fff"/>
    </g>
    <g id="Group_163" data-name="Group 163" transform="translate(1354.568 3731.402)">
      <path id="Path_71" data-name="Path 71" d="M-799.639-1228.6h6.212v-30.875h3.038c1.01-5.625,2.841-7.777,7.855-9.249v-3.133h3.055v3.129a9.738,9.738,0,0,1,7.812,7.713v-17.138h-2.983v-3.093h2.961v-3.153h-2.991v-3.061h2.987v-3.154h-2.983v-3.059h3.057c0-.969,0-1.861,0-2.753a6.125,6.125,0,0,1,4.1-6.193c.519-.207.574-.5.571-.952-.013-1.845-.005-3.69-.005-5.611h3.062v2.438c0,.648.047,1.3-.01,1.943a2.189,2.189,0,0,0,1.466,2.65c2.145.94,3.108,2.931,3.2,5.275.04,1,.007,2.006.007,3.125h3.048v3.094h-3v3.152h2.99v3.059h-2.985v3.153h2.981v3.062h-2.977v9.353h2.735a23.71,23.71,0,0,1,1.8-3.791,6.437,6.437,0,0,1,2.436-1.83,1.161,1.161,0,0,0,.8-1.3c-.047-.737-.011-1.48-.011-2.285h3.062c0,.856-.037,1.719.021,2.577a1.071,1.071,0,0,0,.439.808,6.387,6.387,0,0,1,4.248,5.816h3.04v-9.277h-2.976v-3.059h2.971v-3.153h-2.967v-3.1h3v-3.154h-2.993v-3.059h3.045c0-1.075-.02-2.038,0-3a6.059,6.059,0,0,1,3.974-5.887.947.947,0,0,0,.7-1.064c-.026-1.838-.01-3.678-.01-5.57h3.063c0,1.864.024,3.7-.013,5.536a1,1,0,0,0,.758,1.122,6.034,6.034,0,0,1,3.914,5.732c.042,1,.006,1.994.006,3.072h3.035v3.059h-2.971v3.152h2.966v3.092h-2.961v3.153h2.991v3.062h-2.987v17.27c1.533-4.765,2.919-6.164,7.75-7.812v-3.107h3.033v3.121c4.833,1.212,7.436,4.278,7.864,9.24h3.025v31.093h6.174v3.1H-798.28c-.453,0-.906.015-1.359.023Zm59.059.184v-37.274h-18.578v37.242h3.092v-1.119c0-7-.04-14,.017-20.994a14.657,14.657,0,0,1,5.442-11.464.946.946,0,0,1,1.475,0,14.663,14.663,0,0,1,5.444,11.464c.062,7,.017,14,.017,20.995v1.154Zm-46.591-.01c0-5,.048-9.892-.022-14.781a5.529,5.529,0,0,1,2.48-4.984c3.682-2.479,3.794-2.483,7.459-.014a5.531,5.531,0,0,1,2.5,4.976c-.07,4.566-.021,9.135-.021,13.7v1.092h3.077v-27.911h-18.551v27.919Zm77.7.01v-27.944h-18.583v27.916h3.1v-1.112c0-4.535.058-9.072-.023-13.605a5.647,5.647,0,0,1,2.678-5.177c3.564-2.3,3.527-2.3,7.073-.009a5.657,5.657,0,0,1,2.691,5.172c-.079,4.566-.024,9.135-.024,13.7v1.057Zm-52.882,0v-27.941h-6.133v27.941Zm31.106.034v-27.975h-6.133v27.975h6.133Zm-18.57-30.1a11.711,11.711,0,0,0-3.178,8.117q-.023,10.541,0,21.082c0,.279.037.558.056.837h6.137a2.161,2.161,0,0,0,.065-.34c0-7.416.052-14.832-.038-22.247A11.376,11.376,0,0,0-749.819-1258.479Zm-28.027,30.066c0-5.248.017-10.391-.015-15.533-.007-1.047-2.281-2.987-3.218-2.867a4.15,4.15,0,0,0-3.031,3.467q0,6.993,0,13.985c0,.31.029.62.046.948Zm62.213,0c0-5.247.017-10.39-.015-15.532-.007-1.047-2.279-2.987-3.217-2.869a4.152,4.152,0,0,0-3.032,3.467q0,6.993,0,13.985c0,.31.029.62.046.949Zm-71.521-31.127h12.349a6.127,6.127,0,0,0-6.118-6.212A6.135,6.135,0,0,0-787.154-1259.54Zm62.232-.007h12.35a6.168,6.168,0,0,0-6.454-6.2C-722.324-1265.657-725.2-1262.651-724.922-1259.547Zm-37.4-18.58h-6.167v9.244h6.167Zm24.939-.034v9.277h6.133v-9.277Zm-31.1,12.444v6.162h6.127v-6.162Zm37.219,6.182v-6.167H-737.4v6.167Zm-31.029-34.209c0-1.175.04-2.241-.009-3.3a3.133,3.133,0,0,0-2.765-2.911,2.952,2.952,0,0,0-3.31,2.223,27.592,27.592,0,0,0-.219,3.991Zm24.858-.025h6.238c0-1.193.068-2.324-.016-3.443a3.1,3.1,0,0,0-3.108-2.757,3.086,3.086,0,0,0-3.1,2.765C-737.5-1296.084-737.436-1294.954-737.436-1293.768Zm-31.076,6.23h6.167v-3.044h-6.167Zm37.3-3.031h-6.163v3.019h6.163Zm-37.3,9.235h6.154v-3.008h-6.154Zm31.1.005h6.164v-3.018h-6.164Zm-9.386,12.465a3.038,3.038,0,0,0-3.249-3.106,2.914,2.914,0,0,0-2.828,3.106Z" transform="translate(0)" fill="url(#linear-gradient)"/>
      <path id="Path_72" data-name="Path 72" d="M-760.113-1144.127a1.562,1.562,0,0,1-1.52,1.571,1.561,1.561,0,0,1-1.521-1.471,1.554,1.554,0,0,1,1.519-1.57A1.561,1.561,0,0,1-760.113-1144.127Z" transform="translate(-24.007 -107.655)" fill="url(#linear-gradient-2)"/>
      <path id="Path_73" data-name="Path 73" d="M-734.34-1142.557a1.56,1.56,0,0,1-1.527-1.466,1.554,1.554,0,0,1,1.514-1.576,1.557,1.557,0,0,1,1.528,1.562A1.566,1.566,0,0,1-734.34-1142.557Z" transform="translate(-41.963 -107.654)" fill="url(#linear-gradient-3)"/>
      <path id="Path_74" data-name="Path 74" d="M-578.192-1144.127a1.562,1.562,0,0,1-1.52,1.571,1.561,1.561,0,0,1-1.521-1.471,1.553,1.553,0,0,1,1.519-1.57A1.56,1.56,0,0,1-578.192-1144.127Z" transform="translate(-143.716 -107.655)" fill="url(#linear-gradient-4)"/>
      <path id="Path_75" data-name="Path 75" d="M-550.9-1144.063a1.562,1.562,0,0,1-1.588,1.5,1.563,1.563,0,0,1-1.453-1.539,1.556,1.556,0,0,1,1.586-1.5A1.562,1.562,0,0,1-550.9-1144.063Z" transform="translate(-161.674 -107.651)" fill="url(#linear-gradient-5)"/>
    </g>
  </g>
</svg>
