<svg xmlns="http://www.w3.org/2000/svg" xmlns:xlink="http://www.w3.org/1999/xlink" width="111" height="111" viewBox="0 0 111 111">
  <defs>
    <clipPath id="clip-path">
      <rect id="Rectangle_59" data-name="Rectangle 59" width="65.346" height="59.344" fill="#fff"/>
    </clipPath>
  </defs>
  <g id="Group_220" data-name="Group 220" transform="translate(-905 -838)">
    <circle id="Ellipse_3" data-name="Ellipse 3" cx="55.5" cy="55.5" r="55.5" transform="translate(905 838)" fill="#631549"/>
    <g id="Group_280" data-name="Group 280" transform="translate(930.315 866)">
      <g id="Group_279" data-name="Group 279" transform="translate(0 0)" clip-path="url(#clip-path)">
        <path id="Path_110" data-name="Path 110" d="M.024,26.21q0-9.5,0-19.007A3.232,3.232,0,0,1,2.368,3.953a2.677,2.677,0,0,1,.806-.1c1.522-.01,3.045-.016,4.567,0,.347,0,.45-.1.441-.444-.021-.741-.016-1.483,0-2.224A1.19,1.19,0,0,1,9.161.029,1.148,1.148,0,0,1,10.418.67a1.406,1.406,0,0,1,.113.563c.013.689,0,1.379.006,2.069,0,.543,0,.547.535.547q5.894,0,11.788,0c.806,0,1.613-.01,2.42.006.29.006.388-.092.382-.38-.016-.728-.011-1.457-.005-2.186a1.186,1.186,0,1,1,2.364-.009c-.03.688.015,1.38-.014,2.068-.016.39.1.512.5.511,4.4-.015,8.8-.01,13.193-.01l.9,0c.542,0,.541,0,.541-.561,0-.676,0-1.353,0-2.029a1.18,1.18,0,1,1,2.353.01c0,.728.015,1.457,0,2.186-.007.306.093.4.4.4,2.043-.012,4.087.045,6.127-.022a3.4,3.4,0,0,1,3.19,3.189c-.042,7.311-.016,14.623-.025,21.935a.659.659,0,0,0,.472.72,15.613,15.613,0,0,1,8.467,8.4,13.849,13.849,0,0,1,1.062,7.737,15.362,15.362,0,0,1-9.741,12.414,13.589,13.589,0,0,1-7.913.879A15.474,15.474,0,0,1,36.28,50.878a16.718,16.718,0,0,1-.812-1.85.528.528,0,0,0-.579-.383q-14.188.014-28.376.009c-1.08,0-2.16-.015-3.24,0A3.4,3.4,0,0,1,0,45.374C.053,38.987.023,32.6.024,26.21M52.8,28.781c.014-.192.035-.354.035-.517q0-5.912,0-11.825c0-.538,0-.539-.521-.539H2.945c-.562,0-.563,0-.563.575V45.042c0,1.238,0,1.238,1.227,1.238H28.352c1.977,0,3.954-.009,5.932,0,.359,0,.47-.116.4-.457a5.184,5.184,0,0,1-.1-.694,14.829,14.829,0,0,1,2.25-9.148,15.5,15.5,0,0,1,9.584-7.027,14.914,14.914,0,0,1,4.875-.38c.489.037.973.129,1.507.2M36.9,43.911A13.032,13.032,0,1,0,49.893,30.886,12.841,12.841,0,0,0,36.9,43.911M27.566,13.545H52.423c.21,0,.416.036.414-.3-.01-2.159-.008-4.318-.009-6.477a.487.487,0,0,0-.546-.557c-2.159,0-4.319,0-6.478-.006-.241,0-.317.092-.312.324.011.455.009.911,0,1.365a1.175,1.175,0,0,1-2.349-.005,11.852,11.852,0,0,1,0-1.209c.028-.375-.1-.482-.475-.48-2.939.015-5.879.006-8.819.006-1.808,0-3.616.006-5.424-.006-.325,0-.437.1-.418.424.024.414.011.832,0,1.248a1.134,1.134,0,0,1-1.108,1.167,1.172,1.172,0,0,1-1.244-1.126c-.017-.39,0-.78,0-1.17,0-.537,0-.537-.521-.537H18.386c-2.471,0-4.942.007-7.414-.005-.344,0-.462.1-.439.446.027.4.011.806,0,1.209A1.131,1.131,0,0,1,9.363,9.04,1.166,1.166,0,0,1,8.182,7.849c-.012-.416-.023-.833,0-1.248.017-.315-.1-.4-.4-.4-1.548.012-3.1,0-4.644.006-.648,0-.749.1-.75.75q0,3,0,6.009c0,.576,0,.576.56.576H27.566" transform="translate(0 0)" fill="#fff"/>
        <path id="Path_111" data-name="Path 111" d="M18.013,37.1c1.574,0,3.147.011,4.721-.008.4,0,.508.12.5.514q-.024,3.745,0,7.491c0,.358-.11.471-.469.47-3.148-.011-6.295-.006-9.442-.007-.529,0-.53,0-.53-.547,0-2.484.006-4.968-.01-7.452,0-.364.109-.47.465-.467,1.587.015,3.173.006,4.76.008m-.047,6.1c.82,0,1.64-.01,2.459,0,.314.006.448-.094.444-.423-.013-.976-.011-1.951,0-2.927,0-.28-.088-.4-.38-.4q-2.479.012-4.957,0c-.291,0-.382.111-.379.4.013.976.015,1.951,0,2.927,0,.327.115.432.434.426.793-.016,1.587-.005,2.381-.005" transform="translate(-5.868 -17.02)" fill="#fff"/>
        <path id="Path_112" data-name="Path 112" d="M17.985,70.128c-1.574,0-3.148-.008-4.722.006-.344,0-.475-.079-.472-.455q.024-3.786,0-7.571c0-.347.109-.442.446-.441q4.781.015,9.562,0c.352,0,.439.123.437.455q-.017,3.785,0,7.571c0,.351-.121.443-.453.44-1.6-.012-3.2-.005-4.8,0m.035-2.361v0c.819,0,1.638-.008,2.458,0,.281,0,.4-.09.392-.383-.012-1-.01-2,0-3,0-.272-.106-.363-.371-.361q-2.5.012-4.993,0c-.286,0-.349.121-.346.377.009.988.013,1.976,0,2.964-.005.314.113.407.409.4.819-.012,1.638,0,2.458,0" transform="translate(-5.87 -28.298)" fill="#fff"/>
        <path id="Path_113" data-name="Path 113" d="M42.671,37.1c1.574,0,3.147.008,4.721-.007.335,0,.448.085.446.436q-.021,3.784,0,7.568c0,.346-.082.469-.454.468q-4.76-.021-9.519,0c-.351,0-.445-.126-.443-.456q.014-3.784,0-7.568c0-.345.118-.448.453-.445,1.6.013,3.2.006,4.8.006m-.008,6.1v0c.819,0,1.638-.005,2.458,0,.235,0,.36-.049.358-.32-.01-1.04-.008-2.081,0-3.121,0-.213-.069-.3-.291-.3q-2.536.009-5.071,0c-.235,0-.323.1-.322.327q.008,1.5,0,3c0,.3.106.417.414.411.819-.016,1.638-.005,2.458-.005" transform="translate(-17.171 -17.023)" fill="#fff"/>
        <path id="Path_114" data-name="Path 114" d="M42.63,61.674c1.6,0,3.2.006,4.8-.006.3,0,.409.071.407.391q-.019,3.844,0,7.688c0,.282-.075.387-.372.386q-4.82-.014-9.639,0c-.31,0-.407-.113-.406-.412q.012-3.825,0-7.649c0-.308.109-.4.411-.4,1.6.011,3.2.005,4.8.005m0,6.1v0c.819,0,1.637-.009,2.456,0,.274,0,.4-.057.391-.365q-.025-1.52,0-3.04c0-.289-.114-.344-.37-.343q-2.455.012-4.912,0c-.306,0-.412.1-.409.406q.019,1.481,0,2.963c0,.291.1.386.388.381.818-.014,1.637,0,2.456,0" transform="translate(-17.17 -28.299)" fill="#fff"/>
        <path id="Path_115" data-name="Path 115" d="M67.22,45.559c-1.573,0-3.146-.009-4.719.007-.343,0-.45-.1-.449-.443q.017-3.8,0-7.6c0-.327.11-.421.428-.42q4.777.014,9.555,0c.3,0,.412.085.411.4q-.018,3.821-.008,7.643c0,.317-.093.43-.423.427-1.6-.015-3.2-.007-4.8-.007m.047-6.1c-.819,0-1.637.008-2.456,0-.274,0-.4.067-.4.369.014,1,.012,2,0,3,0,.289.106.38.391.378q2.416-.016,4.833,0c.314,0,.441-.088.436-.417q-.023-1.48,0-2.962c0-.3-.118-.373-.393-.368-.805.013-1.611,0-2.417,0" transform="translate(-28.475 -17.024)" fill="#fff"/>
        <path id="Path_116" data-name="Path 116" d="M83.8,78.691c0-1.08-.015-2.16.009-3.24.008-.357-.113-.431-.446-.429-2.173.014-4.346,0-6.519.015-.376,0-.509-.109-.485-.487.029-.453.007-.911.008-1.366,0-.508,0-.509.528-.51,2.147,0,4.294-.009,6.44.009.381,0,.476-.112.472-.482-.017-2.16,0-4.32-.016-6.479,0-.374.108-.51.486-.489a12.978,12.978,0,0,0,1.444,0c.354-.02.44.12.439.453-.012,2.173,0,4.346-.014,6.518,0,.372.1.483.475.48,2.16-.018,4.32,0,6.479-.017.4,0,.534.115.509.509a13.818,13.818,0,0,0-.008,1.444c.014.335-.127.418-.438.416-2.173-.009-4.346.005-6.518-.014-.393,0-.5.095-.5.5.021,2.134.01,4.267.01,6.4,0,.55,0,.55-.566.551-.455,0-.911-.011-1.366.008-.32.013-.433-.1-.429-.427.016-1.118.006-2.237.006-3.356" transform="translate(-35.038 -29.934)" fill="#fff"/>
      </g>
    </g>
  </g>
</svg>
