<svg xmlns="http://www.w3.org/2000/svg" xmlns:xlink="http://www.w3.org/1999/xlink" width="262" height="263" viewBox="0 0 262 263">
  <defs>
    <filter id="Rectangle_12" x="0" y="0" width="262" height="263" filterUnits="userSpaceOnUse">
      <feOffset input="SourceAlpha"/>
      <feGaussianBlur stdDeviation="14.5" result="blur"/>
      <feFlood flood-opacity="0.102"/>
      <feComposite operator="in" in2="blur"/>
      <feComposite in="SourceGraphic"/>
    </filter>
    <linearGradient id="linear-gradient" x1="0.097" y1="0.15" x2="0.768" y2="1.102" gradientUnits="objectBoundingBox">
      <stop offset="0" stop-color="#9b2172"/>
      <stop offset="0.247" stop-color="#831e61"/>
      <stop offset="0.763" stop-color="#471735"/>
      <stop offset="0.971" stop-color="#2e1523"/>
    </linearGradient>
    <linearGradient id="linear-gradient-2" x1="-15.128" y1="-12.358" x2="9.054" y2="7.543" xlink:href="#linear-gradient"/>
    <linearGradient id="linear-gradient-3" x1="-11.148" y1="-9.098" x2="13.013" y2="10.807" xlink:href="#linear-gradient"/>
    <linearGradient id="linear-gradient-4" x1="-8.382" y1="-6.802" x2="15.826" y2="13.087" xlink:href="#linear-gradient"/>
    <linearGradient id="linear-gradient-5" x1="-5.644" y1="-4.557" x2="18.542" y2="15.338" xlink:href="#linear-gradient"/>
    <linearGradient id="linear-gradient-6" x1="-21.776" y1="-17.911" x2="2.303" y2="1.985" xlink:href="#linear-gradient"/>
    <linearGradient id="linear-gradient-7" x1="-19.127" y1="-15.665" x2="5.042" y2="4.232" xlink:href="#linear-gradient"/>
  </defs>
  <g id="Group_179" data-name="Group 179" transform="translate(-234.5 -2332.5)">
    <g transform="matrix(1, 0, 0, 1, 234.5, 2332.5)" filter="url(#Rectangle_12)">
      <rect id="Rectangle_12-2" data-name="Rectangle 12" width="175" height="176" rx="24" transform="translate(43.5 43.5)" fill="#fff"/>
    </g>
    <path id="Path_64" data-name="Path 64" d="M-1300.083-1227.215v-4.468c0-8.486.017-16.973-.025-25.459a3.867,3.867,0,0,0-.651-1.995c-.946-1.425-2.073-2.731-3.018-4.157a2.021,2.021,0,0,1-.252-1.637c.161-.371.887-.617,1.4-.689a18.2,18.2,0,0,1,2.486-.03v-5.865c-.982-.2-2.305.023-2.284-1.462.02-1.41,1.263-1.213,2.351-1.342,0-1.29,0-2.541,0-3.791,0-2.009.263-2.279,2.235-2.28q14.51,0,29.02,0h1.592v-1.451c0-4.692.139-9.39-.045-14.074a13.258,13.258,0,0,1,3.107-9.278,6.192,6.192,0,0,0,1.68-5.106c-.024-.158-.063-.39.021-.478.407-.427.852-1.129,1.284-1.129s1.249.793,1.2,1.133c-.4,2.616.968,4.452,2.406,6.367a11.562,11.562,0,0,1,2.409,7.906c-.094,1.412-.016,2.836-.016,4.4,1.849-.5,3.446-.332,4.6.81a12.392,12.392,0,0,1,3.307-1.012,13.123,13.123,0,0,1,3.44.956c2.5-1.47,3.425-1.472,5.972.21a4.359,4.359,0,0,1,6.155.015c2.48-1.693,3.864-1.7,6.147-.056,3.079-1.613,3.9-1.613,6.2-.028a11.951,11.951,0,0,1,2.318-1.045,13.176,13.176,0,0,1,2.676-.039c0-1.114.1-2.379-.019-3.623a12.331,12.331,0,0,1,3-9.182,6.261,6.261,0,0,0,1.714-5.21,1.331,1.331,0,0,1,.008-.366c.094-.792.5-1.322,1.332-1.309s1.393.543,1.265,1.33c-.391,2.407.742,4.149,2.129,5.938a12.326,12.326,0,0,1,2.627,8.2c-.151,4.81-.038,9.627-.037,14.442v1.52h1.5q14.143,0,28.286,0c1.884,0,2.2.325,2.189,2.211-.005,1.3,0,2.6,0,3.929,1.033.368,2.7-.247,2.673,1.492-.024,1.636-1.544,1.183-2.6,1.392v5.875a23.814,23.814,0,0,1,2.834.032c.5.062,1.235.34,1.381.711a1.963,1.963,0,0,1-.313,1.625c-1.072,1.385-2.3,2.649-3.406,4.01a2.435,2.435,0,0,0-.558,1.4q-.045,14.932-.018,29.864c0,.2.04.4.081.8h3.253c1.8,0,3.592.018,5.388-.007.953-.013,1.812.161,1.823,1.294s-.848,1.341-1.8,1.34q-9-.006-18,0h-121.346c-2.612,0-5.224,0-7.836,0-.95,0-1.8-.221-1.788-1.35s.88-1.294,1.829-1.288C-1305.94-1227.2-1303.092-1227.215-1300.083-1227.215Zm44.993-35.721v29.821h7.178c0-3.775.03-7.443-.009-11.11a11.354,11.354,0,0,1,3.583-8.543,22.636,22.636,0,0,1,9.121-5.29,2.186,2.186,0,0,1,1.3,0,23.061,23.061,0,0,1,9.519,5.792,10.921,10.921,0,0,1,3.177,7.958c-.055,3.3-.013,6.606-.013,9.909v1.314h6.769v-29.85Zm31.208,35.645v-1.512c0-5.1-.058-10.191.023-15.285a8.934,8.934,0,0,0-3.019-6.939,21.138,21.138,0,0,0-7.083-4.252,1.8,1.8,0,0,0-1.164-.029,19.519,19.519,0,0,0-7.551,4.612,8.712,8.712,0,0,0-2.593,6.384c.049,5.257.011,10.516.014,15.774,0,.4.039.792.063,1.248Zm-73.479-29.43v29.409h6.087c0-4.009-.008-7.922,0-11.835.014-5.657,2.934-9.505,7.685-12.16a1.946,1.946,0,0,1,1.591-.089c4.149,2.225,7.375,5.345,7.821,10.247.376,4.129.174,8.31.226,12.468.006.465,0,.931,0,1.4h6.623v-29.437Zm124.242.008h-29.161v29.411h5.657v-1.4c0-3.468.023-6.936,0-10.4-.045-5.689,2.908-9.5,7.632-12.18a2.056,2.056,0,0,1,1.7-.07c4.838,2.64,7.937,6.46,7.963,12.241.016,3.549,0,7.1,0,10.648,0,.392.035.783.055,1.191h6.157Zm-69.1-14.843c0,.981.014,1.83,0,2.677s-.435,1.451-1.322,1.437-1.293-.589-1.288-1.463c0-.846,0-1.693,0-2.605h-5.164c0,.948.021,1.8-.006,2.649s-.461,1.438-1.345,1.418-1.286-.6-1.285-1.471c0-.85,0-1.7,0-2.586h-2.489v5.766h40.651v-5.781h-4.379c0,.924.005,1.737,0,2.55-.007.91-.423,1.541-1.374,1.509-.879-.03-1.259-.651-1.26-1.5s0-1.686,0-2.573h-5.163c0,.837-.021,1.6.005,2.364.031.929-.236,1.7-1.276,1.72-1.12.019-1.383-.807-1.37-1.769.01-.76,0-1.519,0-2.307h-5.158c0,.887-.013,1.693,0,2.5.019.907-.338,1.574-1.291,1.584s-1.324-.664-1.323-1.563c0-.834,0-1.668,0-2.549Zm-55.165,5.829h30.049v-5.806h-30.049Zm95.091-.031h29.188v-5.773h-29.188Zm-52.829-12.087v3.523h40.67v-3.523Zm.007-2.784h40.663v-3.269h-40.663Zm-33.4,42.057v10.8h11.809v-10.8Zm106.431,10.846v-10.809h-11.83v10.809Zm-75.84-10.452v-18.537h-6.6v18.537Zm46.293-18.546v18.557h6.57v-18.557Zm-85.7-20.994v3.411h29.974v-3.411Zm-2.937,14.757c.672.907,1.24,1.551,1.664,2.279a2.506,2.506,0,0,0,2.509,1.274c8.652-.048,17.305-.021,25.958-.018h2.789v-3.535Zm97.978-11.392h29.163v-3.489h-29.163Zm32.1,11.426h-32.1v3.366a2.779,2.779,0,0,0,.519.111q13.958.011,27.917,0a1.451,1.451,0,0,0,.965-.369C-1172.012-1260.762-1171.192-1261.764-1170.193-1262.925Zm-94.317-14.917v12.1h6.623v-12.1Zm59.411,12.142v-12.131h-6.538v12.131Zm-59.415,30.3v8.1h6.6v-8.1Zm-12.426-5.941a1.522,1.522,0,0,0,.041-.426,11.13,11.13,0,0,0-5.412-6.787,1.165,1.165,0,0,0-1.067.186,33.413,33.413,0,0,0-3.692,3.68,15.77,15.77,0,0,0-1.548,3.347Zm94.755,0a9.885,9.885,0,0,0-3.778-5.98c-2.384-1.872-1.832-1.9-4.219.022a9.816,9.816,0,0,0-3.64,5.957Zm-22.893,5.965h-6.559v8.088h6.559Zm-59.432-52.7v7.432h6.615v-7.432Zm59.458.026h-6.569v7.426h6.569Zm-54.743-2.817h1.874v-5.74h-6.571v5.74h1.88c.305-1.093-.381-2.818,1.464-2.77C-1259.433-1293.593-1260.09-1291.942-1259.793-1290.867Zm54.731-5.726h-6.6v5.71h1.9c.213-1.1-.331-2.633,1.261-2.745,2.027-.142,1.164,1.8,1.586,2.747h1.856Zm-52.8,33.7h-6.638v3.353h6.638Zm2.74,32.585v3.014h7.137v-3.014Zm43.474-32.634v3.4h6.579v-3.4Zm-9.527,35.65h6.715v-2.971h-6.715Zm9.412-72.1h6.854l-3.2-5.442-.452.057Zm-46,0-3.172-5.427-.462.045-3.207,5.383Zm37.142,12.717c.156-1.19.065-2.239-.951-2.794a1.955,1.955,0,0,0-1.682.053,2.4,2.4,0,0,0-.809,2.741Zm-18.659-.023a2.36,2.36,0,0,0-.867-2.742,1.935,1.935,0,0,0-1.683-.014c-.982.585-1.076,1.621-.862,2.756Zm24.832.015c.179-1.171.109-2.225-.907-2.786a1.971,1.971,0,0,0-1.68.04c-.984.6-.976,1.652-.8,2.746Zm-12.4,0c.138-1.191.081-2.248-.949-2.8a1.96,1.96,0,0,0-1.674.062c-.958.614-1.007,1.642-.777,2.735Zm-28.261-.047h3.42c.163-1.166.071-2.206-.953-2.764a1.893,1.893,0,0,0-1.582.014C-1255.24-1288.9-1255.285-1287.857-1255.11-1286.736Zm9.607.037c.186-1.151.12-2.2-.89-2.77a1.962,1.962,0,0,0-1.676.024c-.981.6-1.02,1.637-.812,2.746Zm12.41-.007c.211-1.126.135-2.162-.855-2.744a1.961,1.961,0,0,0-1.678-.013c-1,.585-1.045,1.632-.836,2.757Z" transform="translate(1599.779 3730.693)" fill="url(#linear-gradient)"/>
    <path id="Path_65" data-name="Path 65" d="M-1063.185-1163.576a2.115,2.115,0,0,1,2.1,2.087,2.1,2.1,0,0,1-2.093,2.091,2.059,2.059,0,0,1-2.09-2.078A2.081,2.081,0,0,1-1063.185-1163.576Z" transform="translate(1442.014 3635.266)" fill="url(#linear-gradient-2)"/>
    <path id="Path_66" data-name="Path 66" d="M-1138.982-1161.522a2.057,2.057,0,0,1-2.04,2.128,2.1,2.1,0,0,1-2.146-2.041,2.121,2.121,0,0,1,2.059-2.135A2.078,2.078,0,0,1-1138.982-1161.522Z" transform="translate(1492.107 3635.264)" fill="url(#linear-gradient-3)"/>
    <path id="Path_67" data-name="Path 67" d="M-1207.059-1145.139a2.1,2.1,0,0,1-2.135,2.048,2.125,2.125,0,0,1-2.042-2.152,2.076,2.076,0,0,1,2.147-2.027A2.045,2.045,0,0,1-1207.059-1145.139Z" transform="translate(1535.877 3624.781)" fill="url(#linear-gradient-4)"/>
    <path id="Path_68" data-name="Path 68" d="M-1262.716-1143.092a2.111,2.111,0,0,1-2.132-2.057,2.062,2.062,0,0,1,2.047-2.122,2.069,2.069,0,0,1,2.135,2.037A2.114,2.114,0,0,1-1262.716-1143.092Z" transform="translate(1570.35 3624.781)" fill="url(#linear-gradient-5)"/>
    <path id="Path_69" data-name="Path 69" d="M-942.013-1145.244a2.116,2.116,0,0,1-2.039,2.153,2.145,2.145,0,0,1-2.161-2.044,2.109,2.109,0,0,1,2.052-2.134A2.072,2.072,0,0,1-942.013-1145.244Z" transform="translate(1365.464 3624.781)" fill="url(#linear-gradient-6)"/>
    <path id="Path_70" data-name="Path 70" d="M-995.657-1145.181a2.094,2.094,0,0,1-2.087,2.094,2.146,2.146,0,0,1-2.1-2.106,2.1,2.1,0,0,1,2.111-2.073A2.037,2.037,0,0,1-995.657-1145.181Z" transform="translate(1399.947 3624.777)" fill="url(#linear-gradient-7)"/>
  </g>
</svg>
