<?xml version="1.0" encoding="UTF-8"?>
<svg version="1.1" xmlns="http://www.w3.org/2000/svg" width="512" height="512">
<path d="M0 0 C1.01790619 0.00215515 2.03581238 0.0043103 3.08456421 0.00653076 C17.69363523 0.05620146 32.02575853 0.30709809 46.375 3.3125 C47.34985352 3.51117676 48.32470703 3.70985352 49.32910156 3.91455078 C97.7109774 14.03517194 141.69928269 35.9516877 177.375 70.3125 C178.3640332 71.26068604 178.3640332 71.26068604 179.37304688 72.22802734 C188.86130305 81.37247479 197.6012044 90.66984009 205.375 101.3125 C206.23306152 102.46355017 207.09113451 103.61459177 207.94921875 104.765625 C213.98736829 112.95680614 219.34595521 121.47054105 224.375 130.3125 C224.73948242 130.94430176 225.10396484 131.57610352 225.47949219 132.22705078 C247.08534998 169.97532572 256.85198095 212.74189997 256.6875 255.9375 C256.68534485 256.95540619 256.6831897 257.97331238 256.68096924 259.02206421 C256.63129854 273.63113523 256.38040191 287.96325853 253.375 302.3125 C253.07698486 303.77478027 253.07698486 303.77478027 252.77294922 305.26660156 C242.65232806 353.6484774 220.7358123 397.63678269 186.375 433.3125 C185.74287598 433.97185547 185.11075195 434.63121094 184.45947266 435.31054688 C175.31502521 444.79880305 166.01765991 453.5387044 155.375 461.3125 C154.22394983 462.17056152 153.07290823 463.02863451 151.921875 463.88671875 C143.73224019 469.92427396 135.22961724 475.30707302 126.375 480.3125 C125.66778809 480.7146875 124.96057617 481.116875 124.23193359 481.53125 C101.09654164 494.5566741 75.92537591 503.30551461 49.9375 508.625 C49.21860596 508.77235596 48.49971191 508.91971191 47.7590332 509.0715332 C33.08339502 511.86090125 18.55831162 512.66142619 3.64770508 512.62817383 C0.70811513 512.6250221 -2.2304558 512.64854926 -5.16992188 512.67382812 C-18.54306192 512.71848737 -31.43916711 511.51301542 -44.625 509.3125 C-46.33055054 509.03031616 -46.33055054 509.03031616 -48.07055664 508.74243164 C-91.33802759 500.97044532 -132.38793216 480.98345309 -165.625 452.3125 C-166.37007813 451.67828125 -167.11515625 451.0440625 -167.8828125 450.390625 C-181.38779833 438.57948485 -194.05918743 425.82889772 -204.625 411.3125 C-205.48149066 410.16255169 -206.33826433 409.01281411 -207.1953125 407.86328125 C-213.23534209 399.67315742 -218.61867614 391.16870382 -223.625 382.3125 C-224.0271875 381.60528809 -224.429375 380.89807617 -224.84375 380.16943359 C-237.8691741 357.03404164 -246.61801461 331.86287591 -251.9375 305.875 C-252.08485596 305.15610596 -252.23221191 304.43721191 -252.3840332 303.6965332 C-255.35789088 288.05024391 -255.99800362 272.57681954 -255.9375 256.6875 C-255.93534485 255.66959381 -255.9331897 254.65168762 -255.93096924 253.60293579 C-255.88129854 238.99386477 -255.63040191 224.66174147 -252.625 210.3125 C-252.42632324 209.33764648 -252.22764648 208.36279297 -252.02294922 207.35839844 C-241.90232806 158.9765226 -219.9858123 114.98821731 -185.625 79.3125 C-184.99287598 78.65314453 -184.36075195 77.99378906 -183.70947266 77.31445312 C-174.56502521 67.82619695 -165.26765991 59.0862956 -154.625 51.3125 C-153.47394983 50.45443848 -152.32290823 49.59636549 -151.171875 48.73828125 C-142.98224019 42.70072604 -134.47961724 37.31792698 -125.625 32.3125 C-124.91778809 31.9103125 -124.21057617 31.508125 -123.48193359 31.09375 C-100.34654164 18.0683259 -75.17537591 9.31948539 -49.1875 4 C-48.46860596 3.85264404 -47.74971191 3.70528809 -47.0090332 3.5534668 C-31.36274391 0.57960912 -15.88931954 -0.06050362 0 0 Z " fill="#631549" transform="translate(255.625,-0.3125)"/>
<path d="M0 0 C6.38755526 1.40526216 10.4163909 3.72289583 14.484375 8.8828125 C22.82317793 22.32796104 17.45692241 42.18687527 15.42407227 56.96923828 C15.33207047 57.64481781 15.24006866 58.32039734 15.14527893 59.01644897 C14.89096776 60.86811226 14.62932245 62.71876403 14.3671875 64.56933594 C13.98937537 68.09926685 13.80003977 71.45396619 14 75 C16.52078299 77.52078299 18.08479581 77.24553944 21.52404785 77.27897644 C22.67967224 77.27514702 22.67967224 77.27514702 23.85864258 77.27124023 C24.67020309 77.27646698 25.48176361 77.28169373 26.31791687 77.28707886 C28.08362196 77.29733502 29.84935742 77.30310207 31.61509132 77.30496025 C34.41017985 77.30861421 37.20491044 77.32531481 39.99992371 77.34571838 C47.94787947 77.40121856 55.89588886 77.43180097 63.84399414 77.45629883 C68.70285783 77.47217962 73.56146926 77.50240779 78.42020226 77.54106331 C80.27211515 77.5527127 82.12407319 77.55864365 83.97602272 77.55874443 C86.56867385 77.55893662 89.1606306 77.57721399 91.75317383 77.59936523 C92.5175174 77.59478806 93.28186096 77.59021088 94.06936646 77.585495 C99.62589333 77.6609178 102.84746151 78.92168697 106.8125 82.75 C108.52868326 86.00171564 108.38162088 88.37460162 108 92 C106.17564843 96.22481416 104.10350224 98.01441181 100 100 C97.3883627 100.283116 95.00581522 100.41772294 92.3984375 100.40625 C91.68015778 100.41708618 90.96187805 100.42792236 90.22183228 100.43908691 C87.16487906 100.48479184 84.10801509 100.49645812 81.05078125 100.51123047 C78.81219185 100.5269082 76.57431367 100.55989099 74.3359375 100.59375 C73.64527191 100.59072876 72.95460632 100.58770752 72.24301147 100.58459473 C69.36207286 100.62980429 67.4341037 100.70064776 65.02587891 102.36132812 C63.73624779 104.05173702 63.73624779 104.05173702 64.25 106.625 C64.77745645 108.9312407 64.77745645 108.9312407 66 110 C68.00175973 110.10968805 70.00705456 110.15590761 72.01171875 110.17578125 C73.24470703 110.19962891 74.47769531 110.22347656 75.74804688 110.24804688 C78.35465617 110.29069343 80.96147552 110.32211733 83.56835938 110.34179688 C95.43101874 110.60705655 95.43101874 110.60705655 100 115 C102.68468038 119.02702057 102.68187737 122.2684363 102 127 C99.85872981 130.59427497 97.87348415 132.51285152 94 134 C91.45466809 134.22342318 89.00804056 134.3480655 86.4609375 134.37890625 C85.73887115 134.39590073 85.01680481 134.4128952 84.27285767 134.43040466 C81.97365984 134.48338895 79.6744787 134.52377447 77.375 134.5625 C75.06846998 134.60644992 72.76207816 134.65314014 70.45571899 134.70530701 C69.0223736 134.7372275 67.58890593 134.7641291 66.15536499 134.78553772 C62.45332566 134.81495034 62.45332566 134.81495034 59 136 C59 138.64 59 141.28 59 144 C60.31605225 144.01401855 60.31605225 144.01401855 61.65869141 144.02832031 C64.93567422 144.07251603 68.21138143 144.13420652 71.48779297 144.20751953 C72.90173448 144.23562392 74.31583002 144.25689067 75.72998047 144.27099609 C77.77130384 144.29257456 79.81079599 144.33929086 81.8515625 144.390625 C83.07697754 144.41157227 84.30239258 144.43251953 85.56494141 144.45410156 C90.17670838 145.18700213 93.58634428 147.07228766 96.375 150.875 C97.23855538 153.81108828 97.36658209 155.94514926 97 159 C94.96006092 162.6578218 93.49580738 164.66946174 90 167 C87.42567638 167.20452471 84.95031098 167.30092656 82.375 167.30859375 C80.84895439 167.33374596 79.32291281 167.3591441 77.796875 167.38476562 C75.39389014 167.41354831 72.99097514 167.43757034 70.58789062 167.45629883 C68.26656581 167.4779246 65.9460469 167.51735089 63.625 167.55859375 C62.54677979 167.55876747 62.54677979 167.55876747 61.44677734 167.5589447 C58.52633594 167.61701768 56.47560554 167.68131392 54.01171875 169.33227539 C52.70990361 171.12158264 52.70990361 171.12158264 53.1875 174.125 C53.455625 175.07375 53.72375 176.0225 54 177 C56.76475757 178.38237878 59.08920378 178.1810609 62.1796875 178.24609375 C64.03787109 178.29540039 64.03787109 178.29540039 65.93359375 178.34570312 C68.55330137 178.40671713 71.17309786 178.46403141 73.79296875 178.51757812 C75.03433594 178.55173828 76.27570313 178.58589844 77.5546875 178.62109375 C78.69405762 178.6461499 79.83342773 178.67120605 81.00732422 178.69702148 C84.82039342 179.08305663 86.96608453 180.03993563 89.75 182.625 C91.55143477 186.04772606 91.54431557 189.25689842 91 193 C89.20571612 197.24961971 87.1379108 199.05537825 83 201 C79.91674811 201.4615385 76.8583307 201.47137391 73.74462891 201.48339844 C72.81833679 201.49829315 71.89204468 201.51318787 70.93768311 201.52853394 C67.86724064 201.57237974 64.79726703 201.59282727 61.7265625 201.609375 C60.13659517 201.6220982 60.13659517 201.6220982 58.51450729 201.63507843 C52.87667356 201.68010717 47.23907001 201.70774056 41.60107422 201.72070312 C36.99616565 201.73373589 32.39298211 201.77491169 27.78857422 201.84375 C-23.55627092 202.59763917 -23.55627092 202.59763917 -48 192 C-49.85581966 190.14418034 -49.12004366 187.50601694 -49.12442017 185.03713989 C-49.12082489 184.18046722 -49.11722961 183.32379456 -49.11352539 182.44116211 C-49.11367142 181.54368759 -49.11381744 180.64621307 -49.1139679 179.72154236 C-49.11326842 176.74011866 -49.10547441 173.7587566 -49.09765625 170.77734375 C-49.09579219 168.71611058 -49.09436823 166.65487696 -49.09336853 164.59364319 C-49.08954237 159.1569599 -49.07971126 153.72030314 -49.06866455 148.28363037 C-49.05845253 142.74052286 -49.05387136 137.19741108 -49.04882812 131.65429688 C-49.03808908 120.76951957 -49.02101149 109.88476198 -49 99 C-47.967967 98.60120384 -47.967967 98.60120384 -46.91508484 98.1943512 C-46.01328995 97.84090134 -45.11149506 97.48745148 -44.18237305 97.12329102 C-43.28810104 96.77492691 -42.39382904 96.42656281 -41.47245789 96.06764221 C-32.65454813 92.25994432 -25.93511062 83.51516812 -22 75 C-19.20647291 67.48042651 -17.11041933 59.73270831 -15 52 C-14.71125 50.94200195 -14.4225 49.88400391 -14.125 48.79394531 C-12.95176174 44.47155747 -11.78802306 40.1467885 -10.63818359 35.81811523 C-8.56344013 28.01644719 -6.38428659 20.25021836 -4.125 12.5 C-3.67737305 10.95904663 -3.67737305 10.95904663 -3.22070312 9.38696289 C-1.12901051 2.25802103 -1.12901051 2.25802103 0 0 Z " fill="#631649" transform="translate(193,223)"/>
<path d="M0 0 C9.62518609 1.91836465 18.02089308 5.7381701 23.8984375 13.66796875 C33.9564553 29.13431242 31.28737224 44.88704595 28.75390625 62.13671875 C28.51231823 63.8208629 28.27142737 65.50510722 28.03125 67.18945312 C27.44682922 71.27724023 26.85300476 75.36355809 26.25390625 79.44921875 C27.22363876 79.43589508 28.19337128 79.42257141 29.19248962 79.40884399 C38.3576919 79.28690189 47.52272832 79.19712194 56.68855953 79.13834572 C61.40022179 79.10711132 66.11122611 79.06478433 70.82250977 78.99658203 C75.37428256 78.93110568 79.92542492 78.89545342 84.47763252 78.87995529 C86.20914184 78.86891937 87.94061894 78.84736852 89.67185783 78.81483841 C106.02917358 78.51987219 106.02917358 78.51987219 112.63063049 83.80331421 C117.97509431 89.22228091 120.34404977 94.04419798 120.62890625 101.63671875 C120.55992866 109.01732056 117.53869321 114.31248605 112.44140625 119.51171875 C111.71953125 120.15109375 110.99765625 120.79046875 110.25390625 121.44921875 C111.24390625 122.77953125 111.24390625 122.77953125 112.25390625 124.13671875 C115.32430971 129.59275943 115.22117454 135.38767079 114.25390625 141.44921875 C112.15274166 146.49464845 109.8296151 150.39874618 105.25390625 153.44921875 C105.68703125 154.50109375 105.68703125 154.50109375 106.12890625 155.57421875 C106.50015625 156.52296875 106.87140625 157.47171875 107.25390625 158.44921875 C107.62515625 159.37734375 107.99640625 160.30546875 108.37890625 161.26171875 C110.51904491 169.05793817 109.12237772 174.55439204 105.25390625 181.44921875 C103.38327224 184.03509518 101.50365849 186.19946651 99.25390625 188.44921875 C99.91390625 189.52171875 100.57390625 190.59421875 101.25390625 191.69921875 C103.96507119 197.21907255 104.24832068 202.42058124 103.25390625 208.44921875 C100.64214655 215.71317541 96.58557868 219.31458508 90.05785751 223.14643478 C85.55806808 225.23714642 81.47453506 225.27377978 76.57861328 225.19384766 C75.56255005 225.20114899 74.54648682 225.20845032 73.49963379 225.2159729 C70.16962995 225.23207036 66.84160837 225.20505989 63.51171875 225.17578125 C61.1782125 225.17474248 58.84470448 225.17578393 56.51119995 225.17880249 C51.63073444 225.17862354 46.75093307 225.15787123 41.87060547 225.12158203 C35.64125725 225.0762592 29.41288021 225.07511552 23.18341255 225.08861732 C18.3669688 225.09532883 13.55074295 225.08197622 8.73434067 225.06235886 C6.43883279 225.05470571 4.14330055 225.05233714 1.84778214 225.05553055 C-20.40501382 225.06070625 -20.40501382 225.06070625 -30.74609375 220.44921875 C-32.11466747 220.01396992 -33.4907566 219.60124939 -34.875 219.21875 C-44.41276042 216.56032986 -44.41276042 216.56032986 -47.74609375 215.44921875 C-47.68421875 216.37734375 -47.62234375 217.30546875 -47.55859375 218.26171875 C-47.74609375 221.44921875 -47.74609375 221.44921875 -48.88952637 223.12417603 C-51.51628435 224.99890817 -53.42789362 224.83022651 -56.63867188 224.83740234 C-57.85002808 224.84685883 -59.06138428 224.85631531 -60.30944824 224.86605835 C-61.61885376 224.85998566 -62.92825928 224.85391296 -64.27734375 224.84765625 C-65.63350582 224.84967726 -66.98966684 224.85258893 -68.3458252 224.85635376 C-71.18719842 224.86077591 -74.0282886 224.85434998 -76.86962891 224.84033203 C-80.51161478 224.82323972 -84.15293745 224.83308155 -87.79489899 224.85104942 C-90.59504187 224.8618905 -93.39502755 224.85843954 -96.19517517 224.85066605 C-98.19103425 224.84769173 -100.18689943 224.85680215 -102.18273926 224.86605835 C-103.99977356 224.85187363 -103.99977356 224.85187363 -105.85351562 224.83740234 C-106.92146362 224.83501556 -107.98941162 224.83262878 -109.08972168 224.83016968 C-112.20491193 224.38341953 -112.88199123 223.92206628 -114.74609375 221.44921875 C-115.12361717 219.08943176 -115.12361717 219.08943176 -115.12704468 216.24926758 C-115.13550415 215.17246735 -115.14396362 214.09566711 -115.15267944 212.98623657 C-115.14660675 211.804841 -115.14053406 210.62344543 -115.13427734 209.40625 C-115.1395343 208.16217377 -115.14479126 206.91809753 -115.15020752 205.63632202 C-115.1611609 202.22299238 -115.15857695 198.81020713 -115.14907026 195.39690781 C-115.14148099 191.82685355 -115.14851723 188.25682274 -115.15322876 184.68676758 C-115.15868847 178.69120094 -115.15148913 172.69574513 -115.13720703 166.70019531 C-115.12088002 159.76607158 -115.12616838 152.83221245 -115.14268625 145.89809513 C-115.15629505 139.94727086 -115.15822377 133.9965263 -115.15037024 128.04569149 C-115.14569035 124.49034728 -115.14507742 120.9351275 -115.15497971 117.37979126 C-115.16524524 113.41715183 -115.15102177 109.4548094 -115.13427734 105.4921875 C-115.14035004 104.31079193 -115.14642273 103.12939636 -115.15267944 101.91220093 C-115.14421997 100.8354007 -115.1357605 99.75860046 -115.12704468 98.64916992 C-115.1259136 97.71191574 -115.12478252 96.77466156 -115.12361717 95.80900574 C-114.67481266 93.00366178 -114.01926563 92.10862924 -111.74609375 90.44921875 C-109.08972168 90.06826782 -109.08972168 90.06826782 -105.85351562 90.06103516 C-104.64215942 90.05157867 -103.43080322 90.04212219 -102.18273926 90.03237915 C-100.87333374 90.03845184 -99.56392822 90.04452454 -98.21484375 90.05078125 C-96.85868168 90.04876024 -95.50252066 90.04584857 -94.1463623 90.04208374 C-91.30498908 90.03766159 -88.4638989 90.04408752 -85.62255859 90.05810547 C-81.98057272 90.07519778 -78.33925005 90.06535595 -74.69728851 90.04738808 C-71.89714563 90.036547 -69.09715995 90.03999796 -66.29701233 90.04777145 C-64.30115325 90.05074577 -62.30528807 90.04163535 -60.30944824 90.03237915 C-58.49241394 90.04656387 -58.49241394 90.04656387 -56.63867188 90.06103516 C-55.57072388 90.06342194 -54.50277588 90.06580872 -53.40246582 90.06826782 C-50.74609375 90.44921875 -50.74609375 90.44921875 -48.92077637 91.77426147 C-47.22638915 94.19025551 -47.06717799 96.55946062 -46.74609375 99.44921875 C-31.93039551 89.20992507 -28.72618416 75.63843028 -24.37109375 58.88671875 C-22.11124971 50.33346124 -19.70853117 41.86975041 -16.95019531 33.46435547 C-15.5601073 29.18180797 -14.31122944 24.88996358 -13.1796875 20.53125 C-12.91873291 19.5299707 -12.65777832 18.52869141 -12.38891602 17.49707031 C-11.88888493 15.55291129 -11.40047763 13.60571362 -10.92553711 11.65527344 C-9.32474347 5.43407185 -7.65121549 -0.4792338 0 0 Z M1.25390625 12.44921875 C-2.20220269 22.95680271 -5.35708624 33.50404566 -8.18359375 44.19921875 C-11.40587547 56.37816875 -14.9508107 68.43698682 -18.74609375 80.44921875 C-18.99012939 81.2577832 -19.23416504 82.06634766 -19.4855957 82.89941406 C-22.67673606 93.13061597 -29.18782921 101.09535569 -37.74609375 107.44921875 C-41.04609375 108.76921875 -44.34609375 110.08921875 -47.74609375 111.44921875 C-47.74609375 141.80921875 -47.74609375 172.16921875 -47.74609375 203.44921875 C-28.75080764 210.57245104 -12.02199384 214.51499085 8.296875 214.23828125 C10.49261484 214.23281735 12.68836287 214.2300568 14.8841095 214.22982788 C19.42796187 214.22219264 23.97081981 214.1916977 28.5144043 214.14208984 C34.33367633 214.07912429 40.1520183 214.06122438 45.97159863 214.05829811 C50.47977236 214.05360436 54.98774943 214.0328452 59.49584389 214.00642014 C61.64362312 213.99439051 63.7914236 213.9856705 65.93922997 213.98036575 C68.92234137 213.96916209 71.90456466 213.93804703 74.88745117 213.90087891 C76.20653976 213.90056168 76.20653976 213.90056168 77.55227661 213.90023804 C82.27455686 213.81758637 85.41239376 213.49626348 89.25390625 210.44921875 C92.15870793 206.94342362 92.83483322 203.82757254 92.68359375 199.3828125 C91.94681057 196.06728817 89.8359618 194.47797668 87.25390625 192.44921875 C84.47669692 191.06061408 82.14311948 191.28595859 79.0390625 191.23828125 C77.79576172 191.20992187 76.55246094 191.1815625 75.27148438 191.15234375 C72.63881326 191.10034037 70.00597837 191.05604541 67.37304688 191.01953125 C65.50616211 190.973125 65.50616211 190.973125 63.6015625 190.92578125 C62.45695557 190.90596191 61.31234863 190.88614258 60.13305664 190.86572266 C57.25390625 190.44921875 57.25390625 190.44921875 55.34545898 189.11474609 C54.25390625 187.44921875 54.25390625 187.44921875 54.44140625 184.32421875 C54.70953125 183.37546875 54.97765625 182.42671875 55.25390625 181.44921875 C58.27118317 179.94058029 61.40053289 180.29264528 64.7109375 180.2734375 C66.23113357 180.25023448 67.7513159 180.22611695 69.27148438 180.20117188 C71.66781744 180.16609401 74.06364682 180.13673423 76.46020508 180.12329102 C78.77357035 180.10777469 81.08546331 180.06754119 83.3984375 180.0234375 C84.46587944 180.02630013 84.46587944 180.02630013 85.55488586 180.02922058 C90.39038236 179.91088683 92.83715469 178.8500135 96.25390625 175.44921875 C98.54244619 172.17987597 98.72552843 169.37940355 98.25390625 165.44921875 C96.11691515 161.48052099 94.49161595 159.02685908 90.25390625 157.44921875 C86.96170073 157.08227254 86.96170073 157.08227254 83.30078125 157.03515625 C82.64055969 157.0157901 81.98033813 156.99642395 81.30010986 156.97647095 C79.20150472 156.91692526 77.10284397 156.87039153 75.00390625 156.82421875 C73.57679965 156.78601581 72.14971553 156.74696273 70.72265625 156.70703125 C67.23327934 156.61124545 63.74373339 156.52712233 60.25390625 156.44921875 C60.25390625 153.80921875 60.25390625 151.16921875 60.25390625 148.44921875 C63.20800109 146.97217133 66.21750703 147.2929127 69.45703125 147.2734375 C70.92709749 147.25022909 72.39714961 147.22611134 73.8671875 147.20117188 C76.18222364 147.16614011 78.49674349 147.13676042 80.81201172 147.12329102 C83.04848814 147.10773666 85.28345722 147.06747455 87.51953125 147.0234375 C88.20412415 147.02534592 88.88871704 147.02725433 89.59405518 147.02922058 C94.57206832 146.90365454 97.42027674 145.57174896 101.25390625 142.44921875 C103.93858663 138.42219818 103.93578362 135.18078245 103.25390625 130.44921875 C101.10915887 126.84910707 99.11559788 124.97289073 95.25390625 123.44921875 C92.18934597 123.11536712 92.18934597 123.11536712 88.80859375 123.10546875 C87.56722656 123.07582031 86.32585937 123.04617188 85.046875 123.015625 C82.42708557 122.97122179 79.80729389 122.92695174 77.1875 122.8828125 C75.94871094 122.85316406 74.70992188 122.82351563 73.43359375 122.79296875 C72.29647949 122.77427734 71.15936523 122.75558594 69.98779297 122.73632812 C67.25390625 122.44921875 67.25390625 122.44921875 65.25390625 120.44921875 C65.50390625 117.38671875 65.50390625 117.38671875 66.25390625 114.44921875 C69.21475369 112.96879503 72.24394677 113.27236513 75.4921875 113.23828125 C76.96680784 113.21020546 78.44141706 113.18154095 79.91601562 113.15234375 C82.23982345 113.11114061 84.56342541 113.07425261 86.88745117 113.04785156 C89.13113256 113.02015474 91.37387196 112.97427876 93.6171875 112.92578125 C94.30694168 112.92252838 94.99669586 112.91927551 95.70735168 112.91592407 C100.04775998 112.80595231 102.78079314 112.06844384 106.25390625 109.44921875 C108.57770846 106.56449877 109.21839589 104.69335251 109.75390625 101.01171875 C109.08661176 96.2572455 107.66092776 94.7770072 104.25390625 91.44921875 C100.54539801 90.21304934 97.0973953 90.28872058 93.23413086 90.27563477 C92.00934273 90.26560425 92.00934273 90.26560425 90.7598114 90.25537109 C88.98701912 90.24132392 87.21420878 90.2294288 85.44138908 90.21942329 C82.63872048 90.20302242 79.83618649 90.17978708 77.03358459 90.15452576 C69.06534512 90.08370903 61.09705205 90.02350698 53.12866211 89.97241211 C48.25572478 89.94068706 43.3829444 89.89943368 38.51013374 89.85221672 C36.65016045 89.83616377 34.79015102 89.8238575 32.9301281 89.81530952 C30.33468474 89.80320586 27.73961329 89.77907937 25.14428711 89.75219727 C23.98394958 89.75131355 23.98394958 89.75131355 22.8001709 89.75041199 C17.4818077 89.6771202 17.4818077 89.6771202 15.25390625 87.44921875 C15.171875 84.81640625 15.171875 84.81640625 15.44140625 81.32421875 C15.48966553 80.67678711 15.5379248 80.02935547 15.58764648 79.36230469 C16.01545796 74.14216468 16.70081333 68.96552524 17.40356445 63.77636719 C21.21390657 42.03615695 21.21390657 42.03615695 15.87890625 21.40234375 C11.76902541 16.46258312 7.64874428 13.43731004 1.25390625 12.44921875 Z " fill="#FCFBFC" transform="translate(191.74609375,210.55078125)"/>
<path d="M0 0 C1.14210938 -0.00064453 2.28421875 -0.00128906 3.4609375 -0.00195312 C4.64945312 0.01802734 5.83796875 0.03800781 7.0625 0.05859375 C8.25101562 0.05150391 9.43953125 0.04441406 10.6640625 0.03710938 C19.31111778 0.10054714 19.31111778 0.10054714 22.40917969 1.73144531 C24.53343792 3.99874279 24.53135977 5.09334767 24.453125 8.1640625 C24.44023437 9.05673828 24.42734375 9.94941406 24.4140625 10.86914062 C24.38054687 11.79791016 24.34703125 12.72667969 24.3125 13.68359375 C24.29445313 14.62396484 24.27640625 15.56433594 24.2578125 16.53320312 C24.2106655 18.85519264 24.14488231 21.17513065 24.0625 23.49609375 C24.6922876 23.47514648 25.3220752 23.45419922 25.97094727 23.43261719 C28.85546571 23.34889276 31.73972768 23.29725754 34.625 23.24609375 C35.61564453 23.21257812 36.60628906 23.1790625 37.62695312 23.14453125 C44.04863506 23.05919328 47.84656214 23.66922057 53.0625 27.49609375 C57.0859382 32.04893171 58.32315458 36.52189086 58.0625 42.49609375 C56.30830775 48.34340125 53.46489007 52.6082098 48.04467773 55.61572266 C43.61528954 56.92332592 39.31728319 56.77429524 34.72265625 56.76953125 C32.66991639 56.78981702 30.61718205 56.81066774 28.56445312 56.83203125 C25.34085415 56.85463748 22.11747347 56.8711074 18.89379883 56.87695312 C15.77385402 56.88648477 12.6548825 56.92026524 9.53515625 56.95703125 C8.09584496 56.94946304 8.09584496 56.94946304 6.62745667 56.94174194 C0.81577266 57.02697519 -2.49973178 57.64189903 -6.9375 61.49609375 C-8.67381636 64.96872648 -8.53940402 68.70802388 -7.9375 72.49609375 C-5.75590855 75.25178822 -4.06572506 76.93198122 -0.9375 78.49609375 C0.65026546 78.58990882 2.24152115 78.62788504 3.83203125 78.63671875 C20.30345272 78.90475907 32.90858806 80.60838924 45.1484375 92.52734375 C55.83817221 103.81316032 57.56009751 114.63026307 57.33984375 129.58984375 C57.12586888 135.23622529 55.97797328 139.63697161 53.0625 144.49609375 C52.42634766 145.63884766 52.42634766 145.63884766 51.77734375 146.8046875 C46.26723561 155.90634245 38.1244081 162.88145319 28.0625 166.49609375 C26.7425 166.49609375 25.4225 166.49609375 24.0625 166.49609375 C24.0939209 167.41890137 24.0939209 167.41890137 24.12597656 168.36035156 C24.20927017 171.15543184 24.26120013 173.9502509 24.3125 176.74609375 C24.34601563 177.71417969 24.37953125 178.68226563 24.4140625 179.6796875 C24.43339844 181.08154297 24.43339844 181.08154297 24.453125 182.51171875 C24.47407227 183.37055664 24.49501953 184.22939453 24.51660156 185.11425781 C23.88928822 188.40461745 22.74429403 189.52855198 20.0625 191.49609375 C17.28515625 192.01367188 17.28515625 192.01367188 14.125 192.02734375 C12.98289062 192.0325 11.84078125 192.03765625 10.6640625 192.04296875 C9.47554688 192.0275 8.28703125 192.01203125 7.0625 191.99609375 C5.87398438 192.0115625 4.68546875 192.02703125 3.4609375 192.04296875 C1.74777344 192.03523438 1.74777344 192.03523438 0 192.02734375 C-1.04285156 192.02283203 -2.08570313 192.01832031 -3.16015625 192.01367188 C-6.65893213 191.36164965 -7.84575098 190.34398595 -9.9375 187.49609375 C-10.39160156 185.29785156 -10.39160156 185.29785156 -10.328125 182.94921875 C-10.31523437 182.10488281 -10.30234375 181.26054687 -10.2890625 180.390625 C-10.25554687 179.51792969 -10.22203125 178.64523437 -10.1875 177.74609375 C-10.16945313 176.85792969 -10.15140625 175.96976563 -10.1328125 175.0546875 C-10.08577374 172.86738527 -10.02007009 170.68229559 -9.9375 168.49609375 C-10.56205078 168.52751465 -11.18660156 168.55893555 -11.83007812 168.59130859 C-14.69884039 168.71712219 -17.56702111 168.79440157 -20.4375 168.87109375 C-21.41976563 168.92136719 -22.40203125 168.97164062 -23.4140625 169.0234375 C-29.80146276 169.15118551 -33.46396742 168.24632854 -38.39648438 164.11889648 C-42.05133055 160.27007479 -43.08998525 156.08113288 -43.375 150.93359375 C-43.20797319 146.46942255 -41.88418256 143.92061673 -38.9375 140.49609375 C-35.01278715 137.03860862 -32.69084715 135.38338811 -27.49121094 135.32250977 C-26.56975281 135.30901993 -25.64829468 135.29553009 -24.69891357 135.28163147 C-23.69999084 135.27119308 -22.70106812 135.2607547 -21.671875 135.25 C-19.56379807 135.21705289 -17.45572525 135.1838414 -15.34765625 135.15039062 C-12.01874718 135.10303109 -8.68985377 135.05862156 -5.36083984 135.01928711 C-2.15183733 134.97947851 1.05681606 134.92794469 4.265625 134.875 C5.75186371 134.86237877 5.75186371 134.86237877 7.26812744 134.84950256 C12.18806809 134.7618454 16.52666788 134.63791258 21.0625 132.49609375 C23.69449211 127.68984729 23.22893852 123.66175005 22.0625 118.49609375 C19.80798302 115.56522168 18.57807135 114.66795087 15.0625 113.49609375 C13.49179696 113.39415246 11.91761643 113.34139649 10.34375 113.3203125 C-7.33926817 112.92237161 -20.41731166 110.00623472 -33.08203125 96.8359375 C-41.7130144 85.95181348 -44.27968713 73.06557134 -42.9375 59.49609375 C-40.26712439 46.81580716 -32.59248758 36.58274433 -21.9375 29.49609375 C-17.86606972 27.03088811 -14.81700177 25.49609375 -9.9375 25.49609375 C-9.95844727 24.88088867 -9.97939453 24.26568359 -10.00097656 23.63183594 C-10.08427017 20.83675566 -10.13620013 18.0419366 -10.1875 15.24609375 C-10.23777344 13.79396484 -10.23777344 13.79396484 -10.2890625 12.3125 C-10.30195313 11.37792969 -10.31484375 10.44335938 -10.328125 9.48046875 C-10.34907227 8.62163086 -10.37001953 7.76279297 -10.39160156 6.87792969 C-9.28130004 1.0542191 -5.36992278 -0.00954174 0 0 Z " fill="#FBF9FA" transform="translate(304.9375,98.50390625)"/>
<path d="M0 0 C26.50444412 20.86180041 43.88625478 50.56676891 47.90234375 84.1796875 C50.21633957 107.17913743 46.77719821 128.23140661 37.375 149.3125 C36.85164062 150.52292969 36.32828125 151.73335937 35.7890625 152.98046875 C21.93670857 182.88128149 -4.63017855 204.0442314 -34.99560547 215.41113281 C-40.95872338 217.55667537 -47.10490289 219.60801671 -53.5 219.5625 C-54.23992187 219.56765625 -54.97984375 219.5728125 -55.7421875 219.578125 C-57.625 219.3125 -57.625 219.3125 -59.625 217.3125 C-59.75 213.6875 -59.75 213.6875 -59.625 210.3125 C-55.81920336 208.21931185 -52.28699361 206.94306124 -48.0703125 205.95703125 C-19.44957666 198.41322707 4.87382108 180.18040831 19.9453125 154.73046875 C26.58525235 142.99040008 31.32537696 130.66045832 33.375 117.3125 C33.55417969 116.28898438 33.73335937 115.26546875 33.91796875 114.2109375 C37.53773031 83.33468076 30.5466445 53.94676922 11.375 29.3125 C7.92199141 25.09606702 4.22718225 21.16468225 0.375 17.3125 C-0.27855469 16.65894531 -0.93210937 16.00539062 -1.60546875 15.33203125 C-23.47611368 -5.04637352 -53.34254825 -13.57396297 -82.64453125 -12.9296875 C-107.29846708 -11.97142407 -131.0822409 -1.80863011 -149.625 14.3125 C-150.2334375 14.78945312 -150.841875 15.26640625 -151.46875 15.7578125 C-171.0342149 31.32125049 -183.83084426 58.73336056 -186.99511719 83.17089844 C-187.39630737 86.98916586 -187.74233336 90.8043195 -187.9934082 94.63549805 C-188.05101318 95.47894775 -188.10861816 96.32239746 -188.16796875 97.19140625 C-188.20946045 97.9397876 -188.25095215 98.68816895 -188.29370117 99.45922852 C-188.625 101.3125 -188.625 101.3125 -190.625 103.3125 C-194.125 103.625 -194.125 103.625 -197.625 103.3125 C-202.24877415 96.37683877 -200.0052895 85.84648229 -198.52734375 78.03515625 C-195.91059179 65.52280778 -192.70500347 53.59742398 -186.625 42.3125 C-186.28065918 41.67280273 -185.93631836 41.03310547 -185.58154297 40.37402344 C-175.92218532 22.79338419 -161.96031106 5.77077898 -144.625 -4.6875 C-143.55765625 -5.34105469 -142.4903125 -5.99460937 -141.390625 -6.66796875 C-128.85715406 -14.17428796 -115.88701946 -19.51495775 -101.625 -22.6875 C-100.82811768 -22.86555176 -100.03123535 -23.04360352 -99.21020508 -23.22705078 C-64.75908498 -30.27408549 -27.90613528 -20.99762373 0 0 Z " fill="#FBF9FB" transform="translate(388.625,101.6875)"/>
<path d="M0 0 C14.85 0 29.7 0 45 0 C45 36.96 45 73.92 45 112 C30.15 112 15.3 112 0 112 C0 75.04 0 38.08 0 0 Z " fill="#63164A" transform="translate(88,312)"/>
<path d="M0 0 C3.63 0 7.26 0 11 0 C11.04898438 1.34835938 11.09796875 2.69671875 11.1484375 4.0859375 C11.22346057 5.84897959 11.29900859 7.61199939 11.375 9.375 C11.4059375 10.26445313 11.436875 11.15390625 11.46875 12.0703125 C11.52675781 13.34648438 11.52675781 13.34648438 11.5859375 14.6484375 C11.6173584 15.43395996 11.6487793 16.21948242 11.68115234 17.02880859 C11.8399465 19.23002939 11.8399465 19.23002939 14 21 C16.76567076 21.33930803 16.76567076 21.33930803 19.99609375 21.34375 C21.79336914 21.38822266 21.79336914 21.38822266 23.62695312 21.43359375 C25.51317383 21.46646484 25.51317383 21.46646484 27.4375 21.5 C29.91553332 21.54331781 32.39343862 21.59500758 34.87109375 21.65625 C36.52516235 21.68428711 36.52516235 21.68428711 38.21264648 21.71289062 C41 22 41 22 44 24 C44.375 27.5 44.375 27.5 44 31 C40.83810592 33.10792939 40.08324517 33.24971784 36.47192383 33.25537109 C35.099533 33.26580948 35.099533 33.26580948 33.69941711 33.27645874 C32.71192978 33.27546173 31.72444244 33.27446472 30.70703125 33.2734375 C28.61132288 33.29373607 26.5156198 33.31458703 24.41992188 33.3359375 C21.11966497 33.3584866 17.81961736 33.37498734 14.51928711 33.38085938 C11.331484 33.39042159 8.14462198 33.4242555 4.95703125 33.4609375 C3.49098198 33.45336929 3.49098198 33.45336929 1.99531555 33.44564819 C-5.81708882 33.55698285 -11.23113276 35.23113276 -16.8125 40.8125 C-21.05526097 46.99480884 -23.25146359 52.539819 -22 60 C-19.78228642 67.09239801 -16.41180466 71.13077296 -10.0859375 74.94140625 C-6.70702565 76.65617237 -4.01461774 77.12576794 -0.28125 77.17578125 C14.35704965 77.501416 24.92098717 78.07942103 35.90234375 88.6953125 C42.77535141 96.2466617 44.48091683 104.46118798 44.3125 114.4609375 C43.50679027 123.58560024 38.96677298 131.73430233 32.03515625 137.6875 C26.86856188 141.42463878 21.48914783 143.41802016 15.40625 145.23828125 C13.07273683 145.77368571 13.07273683 145.77368571 12 147 C11.84344973 148.48638992 11.74933057 149.97949127 11.68359375 151.47265625 C11.62075195 152.82133789 11.62075195 152.82133789 11.55664062 154.19726562 C11.51732422 155.14279297 11.47800781 156.08832031 11.4375 157.0625 C11.37272461 158.4865918 11.37272461 158.4865918 11.30664062 159.93945312 C11.20020868 162.29278176 11.09956846 164.64637099 11 167 C7.37 167 3.74 167 0 167 C-0.03738281 165.73542969 -0.07476562 164.47085938 -0.11328125 163.16796875 C-0.17893833 161.5077827 -0.24538576 159.84762778 -0.3125 158.1875 C-0.34633789 156.93743164 -0.34633789 156.93743164 -0.38085938 155.66210938 C-0.41630859 154.85966797 -0.45175781 154.05722656 -0.48828125 153.23046875 C-0.51446533 152.49207764 -0.54064941 151.75368652 -0.56762695 150.99291992 C-1.136347 148.37154117 -1.77908651 147.51208636 -4 146 C-6.85436687 145.55835471 -6.85436687 145.55835471 -10.09375 145.62890625 C-11.88619141 145.60280273 -11.88619141 145.60280273 -13.71484375 145.57617188 C-16.23827016 145.56705733 -18.76171371 145.56184896 -21.28515625 145.56054688 C-22.48011719 145.54185547 -23.67507813 145.52316406 -24.90625 145.50390625 C-26.00259766 145.50205322 -27.09894531 145.5002002 -28.22851562 145.49829102 C-31 145 -31 145 -32.89257812 143.13256836 C-34 141 -34 141 -33.8125 138.375 C-33 136 -33 136 -31 134 C-29.07371521 133.7484436 -29.07371521 133.7484436 -26.69311523 133.74462891 C-25.80136093 133.73766998 -24.90960663 133.73071106 -23.99082947 133.72354126 C-23.02319168 133.72453827 -22.05555389 133.72553528 -21.05859375 133.7265625 C-19.00976033 133.70625704 -16.96093225 133.68540597 -14.91210938 133.6640625 C-11.6821646 133.64154565 -8.45243151 133.62502721 -5.22241211 133.61914062 C-2.10491554 133.60955938 1.01162592 133.57569461 4.12890625 133.5390625 C5.55910851 133.54663071 5.55910851 133.54663071 7.01820374 133.55435181 C14.09040292 133.45170537 20.58434469 132.2233825 25.88526917 127.22085571 C31.34428193 121.16880914 32.5266606 116.48556439 32.37109375 108.33203125 C31.7166891 102.45616638 29.61563014 98.11693023 24.9921875 94.375 C20.39143723 91.38705886 16.5524569 89.89419513 11.02734375 89.82421875 C10.04443359 89.80037109 9.06152344 89.77652344 8.04882812 89.75195312 C6.00215369 89.70955497 3.95522093 89.6780002 1.90820312 89.65820312 C-9.16490365 89.34881808 -16.78136527 86.08273215 -24.796875 78.4453125 C-32.47753455 69.92032513 -33.54980187 61.37242976 -33.34765625 50.28515625 C-33.05547884 44.69222052 -31.19755913 40.55652176 -28 36 C-27.278125 34.9275 -26.55625 33.855 -25.8125 32.75 C-19.84393651 26.91407125 -13.0860776 23.62884194 -5.03125 21.640625 C-2.80143302 21.10921927 -2.80143302 21.10921927 -1 19 C-0.63105418 16.96939341 -0.63105418 16.96939341 -0.5859375 14.6484375 C-0.54726563 13.79765625 -0.50859375 12.946875 -0.46875 12.0703125 C-0.4378125 11.18085937 -0.406875 10.29140625 -0.375 9.375 C-0.33632813 8.4778125 -0.29765625 7.580625 -0.2578125 6.65625 C-0.16341224 4.43784395 -0.08061195 2.21894987 0 0 Z " fill="#65184B" transform="translate(307,111)"/>
<path d="M0 0 C3.0625 0.3125 3.0625 0.3125 4.9375 1.375 C6.64446395 4.31477124 6.25049766 6.99120803 6.0625 10.3125 C7.135 10.23 8.2075 10.1475 9.3125 10.0625 C13.0625 10.3125 13.0625 10.3125 15.5625 11.9375 C17.0625 14.3125 17.0625 14.3125 17 17.4375 C16.0625 20.3125 16.0625 20.3125 13.0625 22.3125 C10.73050612 22.39155064 8.39417378 22.40048769 6.0625 22.3125 C6.18625 23.92125 6.18625 23.92125 6.3125 25.5625 C6.0625 29.3125 6.0625 29.3125 4.4375 31.8125 C2.0625 33.3125 2.0625 33.3125 -1.0625 33.25 C-3.9375 32.3125 -3.9375 32.3125 -5.9375 29.3125 C-6.01655064 26.98050612 -6.02548769 24.64417378 -5.9375 22.3125 C-7.54625 22.43625 -7.54625 22.43625 -9.1875 22.5625 C-12.9375 22.3125 -12.9375 22.3125 -15.4375 20.625 C-16.9375 18.3125 -16.9375 18.3125 -16.8125 15.6875 C-15.9375 13.3125 -15.9375 13.3125 -13.9375 11.3125 C-11.7734375 11.1171875 -11.7734375 11.1171875 -9.3125 11.1875 C-8.08660156 11.21457031 -8.08660156 11.21457031 -6.8359375 11.2421875 C-5.89621094 11.27699219 -5.89621094 11.27699219 -4.9375 11.3125 C-4.96070313 10.68601563 -4.98390625 10.05953125 -5.0078125 9.4140625 C-5.02585938 8.59679687 -5.04390625 7.77953125 -5.0625 6.9375 C-5.08570313 6.12539062 -5.10890625 5.31328125 -5.1328125 4.4765625 C-4.80705328 0.86715029 -3.44854374 0.36686636 0 0 Z " fill="#F8F5F7" transform="translate(160.9375,138.6875)"/>
<path d="M0 0 C3.0625 0.3125 3.0625 0.3125 4.9375 1.3125 C6.76738947 4.56563684 6.24378355 7.62640109 6.0625 11.3125 C7.320625 11.250625 8.57875 11.18875 9.875 11.125 C13.76993136 11.13878737 13.76993136 11.13878737 16.0625 12.5 C17.42953913 14.97775842 17.48076612 16.52405919 17.0625 19.3125 C16.0625 21.125 16.0625 21.125 14.0625 22.3125 C11.34375957 22.55917073 8.80366148 22.44731122 6.0625 22.3125 C6.124375 23.570625 6.18625 24.82875 6.25 26.125 C6.23168653 28.70719981 6.19411109 30.05701965 5 32.375 C1.8595884 33.894554 -0.64397317 33.10538609 -3.9375 32.3125 C-5.54475635 29.09798731 -4.99498185 25.87637464 -4.9375 22.3125 C-7.91601562 22.41015625 -7.91601562 22.41015625 -10.89453125 22.5078125 C-12.9375 22.3125 -12.9375 22.3125 -15.9375 20.3125 C-16.25 16.8125 -16.25 16.8125 -15.9375 13.3125 C-13.9375 11.3125 -13.9375 11.3125 -11.7734375 11.1171875 C-10.55527344 11.15199219 -10.55527344 11.15199219 -9.3125 11.1875 C-8.08660156 11.21457031 -8.08660156 11.21457031 -6.8359375 11.2421875 C-5.89621094 11.27699219 -5.89621094 11.27699219 -4.9375 11.3125 C-4.96070313 10.68601562 -4.98390625 10.05953125 -5.0078125 9.4140625 C-5.02585937 8.59679687 -5.04390625 7.77953125 -5.0625 6.9375 C-5.08570313 6.12539063 -5.10890625 5.31328125 -5.1328125 4.4765625 C-4.80705328 0.86715029 -3.44854374 0.36686636 0 0 Z " fill="#FCFBFC" transform="translate(367.9375,345.6875)"/>
</svg>
