<?xml version="1.0" encoding="UTF-8"?>
<svg version="1.1" xmlns="http://www.w3.org/2000/svg" width="512" height="512">
<path d="M0 0 C1.01790619 0.00215515 2.03581238 0.0043103 3.08456421 0.00653076 C17.69363523 0.05620146 32.02575853 0.30709809 46.375 3.3125 C47.34985352 3.51117676 48.32470703 3.70985352 49.32910156 3.91455078 C97.7109774 14.03517194 141.69928269 35.9516877 177.375 70.3125 C178.3640332 71.26068604 178.3640332 71.26068604 179.37304688 72.22802734 C188.86130305 81.37247479 197.6012044 90.66984009 205.375 101.3125 C206.23306152 102.46355017 207.09113451 103.61459177 207.94921875 104.765625 C213.98736829 112.95680614 219.34595521 121.47054105 224.375 130.3125 C224.73948242 130.94430176 225.10396484 131.57610352 225.47949219 132.22705078 C247.08534998 169.97532572 256.85198095 212.74189997 256.6875 255.9375 C256.68534485 256.95540619 256.6831897 257.97331238 256.68096924 259.02206421 C256.63129854 273.63113523 256.38040191 287.96325853 253.375 302.3125 C253.07698486 303.77478027 253.07698486 303.77478027 252.77294922 305.26660156 C242.65232806 353.6484774 220.7358123 397.63678269 186.375 433.3125 C185.74287598 433.97185547 185.11075195 434.63121094 184.45947266 435.31054688 C175.31502521 444.79880305 166.01765991 453.5387044 155.375 461.3125 C154.22394983 462.17056152 153.07290823 463.02863451 151.921875 463.88671875 C143.73224019 469.92427396 135.22961724 475.30707302 126.375 480.3125 C125.66778809 480.7146875 124.96057617 481.116875 124.23193359 481.53125 C101.09654164 494.5566741 75.92537591 503.30551461 49.9375 508.625 C49.21860596 508.77235596 48.49971191 508.91971191 47.7590332 509.0715332 C33.08339502 511.86090125 18.55831162 512.66142619 3.64770508 512.62817383 C0.70811513 512.6250221 -2.2304558 512.64854926 -5.16992188 512.67382812 C-18.54306192 512.71848737 -31.43916711 511.51301542 -44.625 509.3125 C-46.33055054 509.03031616 -46.33055054 509.03031616 -48.07055664 508.74243164 C-91.33802759 500.97044532 -132.38793216 480.98345309 -165.625 452.3125 C-166.37007813 451.67828125 -167.11515625 451.0440625 -167.8828125 450.390625 C-181.38779833 438.57948485 -194.05918743 425.82889772 -204.625 411.3125 C-205.48149066 410.16255169 -206.33826433 409.01281411 -207.1953125 407.86328125 C-213.23534209 399.67315742 -218.61867614 391.16870382 -223.625 382.3125 C-224.0271875 381.60528809 -224.429375 380.89807617 -224.84375 380.16943359 C-237.8691741 357.03404164 -246.61801461 331.86287591 -251.9375 305.875 C-252.08485596 305.15610596 -252.23221191 304.43721191 -252.3840332 303.6965332 C-255.35789088 288.05024391 -255.99800362 272.57681954 -255.9375 256.6875 C-255.93534485 255.66959381 -255.9331897 254.65168762 -255.93096924 253.60293579 C-255.88129854 238.99386477 -255.63040191 224.66174147 -252.625 210.3125 C-252.42632324 209.33764648 -252.22764648 208.36279297 -252.02294922 207.35839844 C-241.90232806 158.9765226 -219.9858123 114.98821731 -185.625 79.3125 C-184.99287598 78.65314453 -184.36075195 77.99378906 -183.70947266 77.31445312 C-174.56502521 67.82619695 -165.26765991 59.0862956 -154.625 51.3125 C-153.47394983 50.45443848 -152.32290823 49.59636549 -151.171875 48.73828125 C-142.98224019 42.70072604 -134.47961724 37.31792698 -125.625 32.3125 C-124.91778809 31.9103125 -124.21057617 31.508125 -123.48193359 31.09375 C-100.34654164 18.0683259 -75.17537591 9.31948539 -49.1875 4 C-48.46860596 3.85264404 -47.74971191 3.70528809 -47.0090332 3.5534668 C-31.36274391 0.57960912 -15.88931954 -0.06050362 0 0 Z " fill="#631549" transform="translate(255.625,-0.3125)"/>
<path d="M0 0 C6.50694172 3.647203 11.45391369 8.8327773 13.75 16 C14.68416962 23.77750517 13.93200713 30.33633745 9.75 37 C5.21018582 42.30715996 -0.2209717 46.40026701 -5.875 50.4375 C-7.56626423 51.66376621 -9.25632448 52.89169431 -10.9453125 54.12109375 C-11.81704102 54.75515137 -12.68876953 55.38920898 -13.58691406 56.04248047 C-18.02057599 59.30147399 -22.3836034 62.65172758 -26.75 66 C-34.13585047 71.65426229 -41.58196028 77.21471338 -49.0859375 82.7109375 C-55.02671433 87.07277032 -60.8975326 91.52054548 -66.75 96 C-74.12685867 101.64621734 -81.56144231 107.20204824 -89.05737305 112.68896484 C-96.18606268 117.92060564 -103.21483882 123.27966305 -110.22265625 128.671875 C-111.0528125 129.30867187 -111.88296875 129.94546875 -112.73828125 130.6015625 C-113.46571533 131.16182129 -114.19314941 131.72208008 -114.94262695 132.29931641 C-115.70406006 132.86054199 -116.46549316 133.42176758 -117.25 134 C-118.1497052 134.68872696 -119.0494104 135.37745392 -119.97637939 136.08705139 C-123.72300962 138.27640439 -125.64273798 138.44364878 -129.93530273 138.30786133 C-131.24784531 138.27916458 -132.56038788 138.25046783 -133.91270447 138.22090149 C-134.60785597 138.19738428 -135.30300747 138.17386707 -136.01922417 138.14963722 C-138.22112285 138.080859 -140.42096473 138.04722454 -142.62379456 138.02433777 C-148.8827894 137.95810182 -155.13923666 137.87069694 -161.39526367 137.66088867 C-181.54620832 136.23822255 -181.54620832 136.23822255 -198.97169495 144.44889832 C-201.73442314 147.47794134 -204.04426753 150.54166795 -206.25 154 C-204.95084456 156.87756859 -204.04571484 158.18482943 -201.625 160.375 C-199.25 163 -199.25 163 -198.5 165.8125 C-200.44607741 174.08332899 -209.95493185 181.01259496 -215.79296875 186.94799805 C-216.77060688 187.94742335 -217.74191798 188.95307422 -218.70703125 189.96459961 C-220.12362338 191.44825076 -221.55909012 192.91109471 -223 194.37109375 C-223.84046875 195.23661865 -224.6809375 196.10214355 -225.546875 196.99389648 C-228.85346398 199.44785617 -231.16602563 199.86801699 -235.25 200 C-237.68359375 198.34765625 -237.68359375 198.34765625 -239.6875 196.0625 C-240.36683594 195.31097656 -241.04617187 194.55945313 -241.74609375 193.78515625 C-242.24238281 193.19605469 -242.73867187 192.60695313 -243.25 192 C-246.84549616 194.92656664 -250.21394491 197.92333124 -253.3984375 201.29296875 C-253.95958252 201.87989502 -254.52072754 202.46682129 -255.09887695 203.0715332 C-256.23025535 204.26222878 -257.34897462 205.46509814 -258.45385742 206.68041992 C-261.20605184 209.55928612 -262.4867051 210.88173023 -266.52734375 211.5078125 C-269.25 211 -269.25 211 -271.25 209 C-271.8125 206.375 -271.8125 206.375 -271.25 203 C-269.26722664 199.99957807 -266.78029496 197.54324869 -264.25 195 C-263.55148926 194.29109619 -263.55148926 194.29109619 -262.83886719 193.56787109 C-259.66885602 190.35151474 -256.4693379 187.16694361 -253.25 184 C-254.88065645 179.86374991 -257.88223452 177.10043401 -260.98486328 174.03808594 C-261.57036957 173.4522876 -262.15587585 172.86648926 -262.75912476 172.26293945 C-264.69148356 170.33197161 -266.63082516 168.40818053 -268.5703125 166.484375 C-269.91310456 165.14531389 -271.25545513 163.80580991 -272.59738159 162.46588135 C-276.12753717 158.94335571 -279.66365806 155.42687797 -283.2010498 151.91162109 C-286.81082851 148.32231449 -290.41494015 144.72732744 -294.01953125 141.1328125 C-301.09081558 134.08296682 -308.16841413 127.03949663 -315.25 120 C-318.35206103 121.4803137 -320.44696861 122.96873323 -322.8515625 125.44140625 C-323.50640625 126.10720703 -324.16125 126.77300781 -324.8359375 127.45898438 C-325.50882813 128.15314453 -326.18171875 128.84730469 -326.875 129.5625 C-328.21911869 130.94098537 -329.56537153 132.31739401 -330.9140625 133.69140625 C-331.50654785 134.30185791 -332.0990332 134.91230957 -332.70947266 135.54125977 C-334.98481117 137.6957998 -336.06768945 137.98860559 -339.25 138.1875 C-342.25 138 -342.25 138 -344.25 136 C-344.74949952 132.32791787 -344.69455196 130.61816617 -342.50585938 127.57470703 C-341.70986328 126.81013184 -340.91386719 126.04555664 -340.09375 125.2578125 C-339.23652344 124.41992188 -338.37929688 123.58203125 -337.49609375 122.71875 C-336.58988281 121.8628125 -335.68367188 121.006875 -334.75 120.125 C-333.84378906 119.24585938 -332.93757813 118.36671875 -332.00390625 117.4609375 C-329.76547913 115.29319755 -327.51427911 113.14066925 -325.25 111 C-325.65992188 110.52949219 -326.06984375 110.05898438 -326.4921875 109.57421875 C-327.30042969 108.64029297 -327.30042969 108.64029297 -328.125 107.6875 C-328.65867187 107.07261719 -329.19234375 106.45773437 -329.7421875 105.82421875 C-333.24799712 101.58273405 -333.24799712 101.58273405 -333.25952148 98.22973633 C-331.87446202 93.79855093 -329.39334226 91.49559968 -326.09765625 88.32421875 C-325.48232529 87.71359085 -324.86699432 87.10296295 -324.23301697 86.47383118 C-322.27094015 84.53304632 -320.29189152 82.61060551 -318.3125 80.6875 C-316.98393793 79.37544985 -315.65645117 78.06230991 -314.33007812 76.74804688 C-303.70397271 66.27050655 -303.70397271 66.27050655 -299.5625 65.5 C-294.64111965 66.24284986 -292.40494917 69.34100569 -289.25 73 C-286.22047187 71.68985338 -284.62160375 70.52845562 -282.80503845 67.78134155 C-273.47816839 54.31000268 -262.05844605 39.76005862 -245.29034424 36.17443848 C-228.20453208 33.56879563 -210.63014889 34.52010431 -193.42962492 35.34041095 C-186.02718651 35.68455965 -178.62552169 35.8005011 -171.21660721 35.91319013 C-164.83230501 36.01778975 -158.44916307 36.17804411 -152.06640625 36.3515625 C-151.39245229 36.36962212 -150.71849833 36.38768174 -150.02412152 36.40628862 C-145.55095993 36.53117483 -141.081913 36.70798599 -136.61157227 36.90869141 C-134.94792633 36.95949356 -134.94792633 36.95949356 -133.25067139 37.01132202 C-124.97274416 37.44434601 -118.17150336 39.57585805 -111.84765625 45.09765625 C-111.34105469 45.74605469 -110.83445312 46.39445312 -110.3125 47.0625 C-109.78785156 47.71347656 -109.26320313 48.36445313 -108.72265625 49.03515625 C-108.23667969 49.68355469 -107.75070312 50.33195312 -107.25 51 C-106.25002454 52.33335173 -105.25002774 53.66668748 -104.25 55 C-98.72177364 51.36420248 -93.19473017 47.72661106 -87.66848755 44.08779907 C-85.68446047 42.78143786 -83.70030966 41.47526453 -81.71603394 40.16928101 C-70.72606447 32.93471847 -59.74935539 25.68182747 -48.8203125 18.35546875 C-47.92496292 17.75581299 -47.02961334 17.15615723 -46.10713196 16.53833008 C-41.84334876 13.68203998 -37.58302089 10.82081011 -33.32788086 7.95166016 C-31.79292559 6.92202221 -30.25785712 5.89255297 -28.72265625 4.86328125 C-28.03499176 4.39689743 -27.34732727 3.93051361 -26.63882446 3.44999695 C-18.11444966 -2.2484126 -9.77033266 -4.43021191 0 0 Z " fill="#FBF9FA" transform="translate(421.25,224)"/>
<path d="M0 0 C4.28712087 2.26965223 7.52115655 4.80503416 10 9 C10.95743035 14.29276102 10.04814965 17.55800825 7 22 C1.18599764 28.36975258 -6.28483105 33.24502939 -13.22265625 38.30249023 C-19.37754378 42.78924724 -25.45462164 47.36692588 -31.5 52 C-38.88602623 57.65403696 -46.33195537 63.21470979 -53.8359375 68.7109375 C-59.7767179 73.07277294 -65.64740917 77.52070271 -71.5 82 C-86.9109672 93.78951723 -86.9109672 93.78951723 -93.72987366 98.61433411 C-97.68663559 101.44520156 -101.38608548 104.28098256 -104.85229492 107.70092773 C-117.82172705 119.84389178 -130.98589679 119.67114684 -147.74236298 119.17650604 C-149.28179988 119.12464355 -150.82119143 119.07141766 -152.36053467 119.0168457 C-158.51653997 118.80693601 -164.67340419 118.6963924 -170.83243752 118.6288166 C-172.96194311 118.59073391 -175.08551366 118.50501709 -177.21330261 118.41355896 C-185.65150281 118.20416145 -185.65150281 118.20416145 -192.72387695 122.31884766 C-193.84534502 123.51906288 -194.93942136 124.74565549 -196 126 C-197.1267416 127.11172598 -198.26091814 128.21602969 -199.40625 129.30859375 C-200.44013999 130.34894555 -201.47143676 131.3918815 -202.5 132.4375 C-203.03625 132.97826172 -203.5725 133.51902344 -204.125 134.07617188 C-205.41904036 135.38176617 -206.70988174 136.69052996 -208 138 C-212.56964892 134.17599988 -216.92089744 130.22181138 -221.11889648 125.99462891 C-221.68562576 125.42804565 -222.25235504 124.8614624 -222.83625793 124.27770996 C-224.68358747 122.42969132 -226.52736301 120.57817097 -228.37109375 118.7265625 C-229.66124403 117.43454448 -230.95161724 116.14274904 -232.24220276 114.85116577 C-235.61944189 111.47012957 -238.99366562 108.08609986 -242.36724854 104.70141602 C-245.81786929 101.24052041 -249.27136338 97.78249457 -252.72460938 94.32421875 C-259.48587186 87.55226856 -266.24394899 80.77714917 -273 74 C-272.2164917 73.12996338 -271.4329834 72.25992676 -270.62573242 71.36352539 C-268.09879503 68.46662769 -265.96756857 65.44794745 -263.86456966 62.23293781 C-257.20750605 52.36446971 -248.79547535 42.43783885 -236.93395233 39.15018463 C-219.8007466 35.93253073 -201.85188378 37.11864016 -184.5032903 37.82910764 C-177.44185567 38.11107705 -170.38093304 38.20714249 -163.31494749 38.30035794 C-152.32793361 38.45627867 -141.34005002 38.69322713 -130.36010742 39.11743164 C-129.29265793 39.14546875 -128.22520844 39.17350586 -127.12541199 39.20239258 C-121.156598 39.47151888 -117.56352558 40.04685516 -113 44 C-108.57036971 49.02822897 -107.69437309 51.88392994 -107.7890625 58.46484375 C-108.21074922 63.53289345 -110.31697567 66.58896805 -114.0625 69.8125 C-118.42560285 73.06161915 -121.23824468 73.15023185 -126.52319336 73.15771484 C-127.29895218 73.16279556 -128.074711 73.16787628 -128.87397766 73.17311096 C-130.56111962 73.18382307 -132.24827586 73.19243995 -133.93543816 73.19923019 C-136.60389056 73.21099945 -139.27217968 73.23044627 -141.94056702 73.25234985 C-149.52827547 73.31403848 -157.11596715 73.36805944 -164.70385742 73.40136719 C-169.34228894 73.42227861 -173.98042292 73.45755216 -178.61868477 73.50212479 C-180.3885098 73.51631231 -182.15838746 73.52501341 -183.92826653 73.52817917 C-186.40163317 73.5330721 -188.87420599 73.5561867 -191.34741211 73.58349609 C-192.08154327 73.58048996 -192.81567444 73.57748383 -193.572052 73.5743866 C-196.49062033 73.6223956 -198.52623624 73.68319362 -200.99000549 75.33071899 C-202.28957893 77.12182597 -202.28957893 77.12182597 -201.8125 80.125 C-201.544375 81.07375 -201.27625 82.0225 -201 83 C-198.01514108 84.49242946 -194.95403946 84.16470197 -191.6796875 84.17700195 C-190.5475457 84.18685875 -190.5475457 84.18685875 -189.39253235 84.19691467 C-186.88668723 84.21667262 -184.38090233 84.22832028 -181.875 84.23828125 C-181.01774323 84.24235678 -180.16048645 84.2464323 -179.2772522 84.25063133 C-174.73350261 84.27150997 -170.18978331 84.28579978 -165.64599609 84.29516602 C-160.96999803 84.30619026 -156.29448114 84.34053841 -151.61865234 84.38033772 C-148.01018442 84.40659925 -144.40182899 84.41486663 -140.79327393 84.41844749 C-139.07103249 84.42329461 -137.34879544 84.43485466 -135.62664795 84.45348549 C-123.82263828 84.57317208 -113.51464952 84.10879145 -104.4609375 75.62890625 C-101.08077039 71.8601103 -99.28850341 68.00857717 -97.90014648 63.1550293 C-95.95773486 57.96335168 -92.39060741 55.79237575 -87.84765625 52.89453125 C-87.01591888 52.34018906 -86.18418152 51.78584686 -85.32723999 51.21470642 C-82.58496847 49.39396828 -79.82432953 47.60340233 -77.0625 45.8125 C-75.14794644 44.54970456 -73.23463343 43.28502647 -71.32250977 42.01855469 C-67.30495624 39.36274929 -63.27943559 36.71968597 -59.24707031 34.08642578 C-52.95757488 29.97774426 -46.6919752 25.83358544 -40.4296875 21.68359375 C-32.72973698 16.58556991 -25.02586745 11.49364681 -17.30859375 6.421875 C-16.4928891 5.88473373 -15.67718445 5.34759247 -14.83676147 4.79417419 C-13.72151596 4.06219566 -13.72151596 4.06219566 -12.58374023 3.31542969 C-11.93622299 2.88993835 -11.28870575 2.46444702 -10.62156677 2.02606201 C-6.95199955 -0.29589203 -4.35585638 -0.36298803 0 0 Z " fill="#631549" transform="translate(414,233)"/>
<path d="M0 0 C0.79792969 0.64582031 1.59585938 1.29164062 2.41796875 1.95703125 C8.40154459 7.01371927 13.25010888 12.7892768 18 19 C18.60714844 19.79148438 19.21429688 20.58296875 19.83984375 21.3984375 C34.78981081 41.80632905 42.09436565 65.49540551 42.4375 90.6875 C42.47109619 92.24815186 42.47109619 92.24815186 42.50537109 93.84033203 C42.49124187 98.38473605 42.4698881 101.20079702 40.1328125 105.17578125 C38 107 38 107 35.4375 107.5 C32.52341662 106.90223931 31.77111305 106.36127479 30 104 C29.58349609 101.32373047 29.58349609 101.32373047 29.5234375 98.1171875 C29.47703125 96.36535156 29.47703125 96.36535156 29.4296875 94.578125 C29.41164063 93.35609375 29.39359375 92.1340625 29.375 90.875 C28.7134129 60.11119965 18.47475113 33.76126696 -4 12 C-26.91813946 -8.28668419 -55.80882254 -16.86585914 -86.10839844 -15.25439453 C-111.58185016 -13.01331578 -134.1568369 -0.8431631 -152 17 C-152.81339844 17.81339844 -153.62679687 18.62679687 -154.46484375 19.46484375 C-176.07176796 42.25368518 -181.80958982 70.62825618 -181.12304688 100.84033203 C-180.68305469 112.1387028 -177.13924448 121.95654518 -172.60546875 132.21459961 C-169.96762231 138.31826967 -169.96762231 138.31826967 -170.140625 141.9609375 C-171 144 -171 144 -173 146 C-175.8125 146.625 -175.8125 146.625 -179 146 C-183.55938185 140.82967495 -185.63654736 134.07218598 -187.6875 127.625 C-188.12932617 126.30242187 -188.12932617 126.30242187 -188.58007812 124.953125 C-192.20522712 113.84143234 -193.32000894 103.82816166 -193.25 92.125 C-193.25773438 90.83980469 -193.26546875 89.55460937 -193.2734375 88.23046875 C-193.25729611 80.2808336 -192.60267262 72.78483113 -191 65 C-190.75121094 63.75089844 -190.50242188 62.50179687 -190.24609375 61.21484375 C-185.18706945 40.70990949 -174.53734295 23.19336023 -160 8 C-159.38898438 7.32582031 -158.77796875 6.65164062 -158.1484375 5.95703125 C-144.23942161 -8.86938781 -125.23606889 -18.25016414 -106 -24 C-104.86949219 -24.34160156 -103.73898437 -24.68320313 -102.57421875 -25.03515625 C-66.84104041 -33.89632504 -27.95749107 -23.07010745 0 0 Z " fill="#FAF8FA" transform="translate(371,104)"/>
<path d="M0 0 C18.14157941 15.45683418 31.49015939 36.76435054 34.375 60.75 C35.24917232 73.10348827 36.00390385 87.00787234 31.375 98.75 C29.375 100.75 29.375 100.75 26.375 101 C23.375 100.75 23.375 100.75 21.375 98.75 C21.3984375 96.16015625 21.3984375 96.16015625 21.75 92.8125 C24.07612726 65.51553675 20.80481392 40.92344218 2.578125 19.18359375 C-11.0479775 4.13206564 -29.96122142 -7.11346432 -50.62255859 -8.44287109 C-71.66223129 -9.02563212 -71.66223129 -9.02563212 -91.625 -3.25 C-92.24004395 -2.9823584 -92.85508789 -2.7147168 -93.48876953 -2.43896484 C-101.30310008 1.00693085 -108.14621507 5.18051822 -114.625 10.75 C-115.27597656 11.24628906 -115.92695313 11.74257812 -116.59765625 12.25390625 C-131.84397604 24.34790544 -141.10156301 44.77085038 -143.625 63.75 C-145.39812763 84.01625929 -141.13371681 103.25814695 -129.84765625 120.19921875 C-128.625 122.75 -128.625 122.75 -128.80859375 125.45703125 C-129.625 127.75 -129.625 127.75 -131.625 129.75 C-134.5 130.1875 -134.5 130.1875 -137.625 129.75 C-141.15715118 126.01925398 -143.37759656 121.75264047 -145.625 117.1875 C-145.97385254 116.48004639 -146.32270508 115.77259277 -146.68212891 115.04370117 C-157.1097865 93.46932123 -159.45502693 67.60044478 -151.625 44.75 C-146.44785242 30.50291358 -139.12171012 18.72952302 -128.625 7.75 C-127.96113281 6.99976562 -127.29726562 6.24953125 -126.61328125 5.4765625 C-93.73115574 -30.22403091 -36.37829105 -28.58294296 0 0 Z " fill="#FBF9FA" transform="translate(355.625,120.25)"/>
<path d="M0 0 C5.34695977 4.464212 10.31846816 9.1808263 15.23022461 14.11669922 C16.02128601 14.90761459 16.81234741 15.69852997 17.62738037 16.51341248 C20.22141442 19.10813889 22.81189602 21.7063811 25.40234375 24.3046875 C27.20816034 26.11237067 29.01419896 27.91983206 30.82044983 29.7270813 C35.07552727 33.98557671 39.32837186 38.24628943 43.58012348 42.50810444 C48.42463409 47.36382988 53.27201732 52.21668335 58.1196326 57.069309 C68.08293322 67.04303501 78.0426579 77.0203255 88 87 C87.03966763 88.1257744 86.07857377 89.25089924 85.11715698 90.37574768 C84.58202925 91.00237084 84.04690151 91.62899401 83.49555779 92.27460575 C81.91677272 94.0960176 80.28338127 95.83175527 78.5703125 97.52734375 C77.71953125 98.37329102 77.71953125 98.37329102 76.8515625 99.23632812 C75.99691406 100.0784082 75.99691406 100.0784082 75.125 100.9375 C74.53203125 101.52595703 73.9390625 102.11441406 73.328125 102.72070312 C71.88773534 104.14947674 70.4442033 105.57508132 69 107 C65.86650313 105.60961241 63.74483836 103.9925774 61.33001709 101.57052612 C60.61772949 100.86098785 59.90544189 100.15144958 59.17156982 99.42041016 C58.40048889 98.64213867 57.62940796 97.86386719 56.83496094 97.06201172 C56.0150769 96.24241974 55.19519287 95.42282776 54.35046387 94.57839966 C51.64033376 91.86687568 48.93735752 89.14833508 46.234375 86.4296875 C44.35722571 84.5488083 42.479688 82.66832513 40.60162354 80.7883606 C36.16365594 76.34417974 31.73081075 71.89492578 27.29978585 67.44382393 C22.25416591 62.37584024 17.20285784 57.31354229 12.15106535 52.25171256 C1.76103903 41.84078771 -8.62183072 31.42274494 -19 21 C-17.42411996 17.6752055 -15.7182851 15.48368383 -13.0859375 12.890625 C-12.32539062 12.13652344 -11.56484375 11.38242187 -10.78125 10.60546875 C-9.9871875 9.82816406 -9.193125 9.05085938 -8.375 8.25 C-7.57320312 7.45722656 -6.77140625 6.66445313 -5.9453125 5.84765625 C-3.96797154 3.89385507 -1.98611091 1.94487897 0 0 Z " fill="#64164A" transform="translate(121,303)"/>
<path d="M0 0 C3.0625 0.3125 3.0625 0.3125 4.7355957 1.3215332 C6.83769427 4.47564798 6.42886383 7.82124078 6.35546875 11.48046875 C6.35122391 12.27528152 6.34697906 13.0700943 6.34260559 13.88899231 C6.3258193 16.42634021 6.28816824 18.96289238 6.25 21.5 C6.23495305 23.22069165 6.22126466 24.94139576 6.20898438 26.66210938 C6.17591607 30.87921262 6.12413495 35.09572142 6.0625 39.3125 C6.80411377 39.29678955 7.54572754 39.2810791 8.30981445 39.26489258 C11.66479896 39.20259286 15.01966186 39.16352493 18.375 39.125 C19.54224609 39.09986328 20.70949219 39.07472656 21.91210938 39.04882812 C23.03037109 39.03916016 24.14863281 39.02949219 25.30078125 39.01953125 C26.33243408 39.0038208 27.36408691 38.98811035 28.42700195 38.97192383 C31.0625 39.3125 31.0625 39.3125 32.93041992 40.6394043 C34.0625 42.3125 34.0625 42.3125 33.9375 45.375 C33.0625 48.3125 33.0625 48.3125 30.0625 50.3125 C25.49264234 50.7010346 20.91347048 50.64165727 16.32910156 50.62817383 C14.07047402 50.62501117 11.81315336 50.64848804 9.5546875 50.67382812 C8.11979332 50.67610094 6.68489562 50.6768047 5.25 50.67578125 C3.94417969 50.67876221 2.63835937 50.68174316 1.29296875 50.68481445 C-1.9375 50.3125 -1.9375 50.3125 -3.61613464 49.06671143 C-5.28702698 46.84847676 -5.31202206 45.63211574 -5.30981445 42.87280273 C-5.31604324 41.97855087 -5.32227203 41.08429901 -5.32868958 40.16294861 C-5.31947983 39.20038651 -5.31027008 38.2378244 -5.30078125 37.24609375 C-5.30152901 35.761343 -5.30152901 35.761343 -5.30229187 34.24659729 C-5.29995128 32.154368 -5.29022367 30.06213591 -5.27368164 27.9699707 C-5.25006636 24.75902272 -5.25312368 21.54890349 -5.25976562 18.33789062 C-5.25418977 16.30728669 -5.24708047 14.27668627 -5.23828125 12.24609375 C-5.23919266 11.28150742 -5.24010406 10.31692108 -5.24104309 9.32310486 C-5.23151108 8.43200516 -5.22197906 7.54090546 -5.2121582 6.62280273 C-5.20755081 5.83687241 -5.20294342 5.05094208 -5.19819641 4.24119568 C-4.73164493 0.78953392 -3.28043839 0.34898281 0 0 Z " fill="#FCFBFC" transform="translate(294.9375,149.6875)"/>
<path d="M0 0 C3.21212976 0.83515374 5.4327823 1.88948735 8.125 3.8125 C9.50625018 6.57500036 9.31579306 8.75981099 9.125 11.8125 C7.125 13.8125 7.125 13.8125 4.5 14.3125 C-0.34038458 13.59540599 -3.22033673 10.92916715 -6.875 7.8125 C-6.5625 4.9375 -6.5625 4.9375 -5.875 1.8125 C-2.875 -0.1875 -2.875 -0.1875 0 0 Z " fill="#F7F4F6" transform="translate(237.875,155.1875)"/>
<path d="M0 0 C0.9590625 -0.00773438 1.918125 -0.01546875 2.90625 -0.0234375 C5.5 0.375 5.5 0.375 7.3203125 1.7421875 C9.00711309 4.07689825 8.92169638 5.56369079 8.5 8.375 C7.3203125 10.0078125 7.3203125 10.0078125 5.5 11.375 C2.90625 11.7734375 2.90625 11.7734375 0 11.75 C-0.9590625 11.75773438 -1.918125 11.76546875 -2.90625 11.7734375 C-5.5 11.375 -5.5 11.375 -7.3203125 10.0078125 C-9.00711309 7.67310175 -8.92169638 6.18630921 -8.5 3.375 C-6.09387887 0.04467341 -3.97390307 -0.03204761 0 0 Z " fill="#F9F6F8" transform="translate(359.5,188.625)"/>
<path d="M0 0 C1.875 1.0625 1.875 1.0625 3 3 C3.125 6.4375 3.125 6.4375 2 10 C-0.88134368 12.65021986 -3.91987576 13.82816205 -7.75 14.4375 C-10 14 -10 14 -11.8125 12.8125 C-13.46927316 10.28374096 -13.57882517 8.966479 -13 6 C-9.07513451 2.2872894 -5.56742686 -0.69592836 0 0 Z " fill="#F8F5F7" transform="translate(356,155)"/>
<path d="M0 0 C0.96808594 -0.01675781 1.93617188 -0.03351563 2.93359375 -0.05078125 C5.5625 0.3125 5.5625 0.3125 7.38671875 1.67578125 C9.0664967 4.0140768 8.98412268 5.50168213 8.5625 8.3125 C6.83406715 10.69911092 5.90770814 11.25479201 2.96875 11.74609375 C1.53015625 11.74802734 1.53015625 11.74802734 0.0625 11.75 C-1.37609375 11.77900391 -1.37609375 11.77900391 -2.84375 11.80859375 C-5.4375 11.3125 -5.4375 11.3125 -7.29296875 9.44921875 C-8.4375 7.3125 -8.4375 7.3125 -8.25 4.6875 C-6.66184951 0.04521394 -4.5223823 0.01801746 0 0 Z " fill="#F9F7F9" transform="translate(230.4375,188.6875)"/>
<path d="M0 0 C3.0625 1 3.0625 1 5.4375 3.625 C7.28274351 7.45742882 7.62798069 9.79928629 7.0625 14 C3.82096834 16.1610211 2.82557099 16.64247553 -0.9375 16 C-4.1947556 12.56178575 -5.84941204 10.23323142 -6.1875 5.5 C-6.105 4.345 -6.0225 3.19 -5.9375 2 C-2.9375 0 -2.9375 0 0 0 Z " fill="#F8F5F7" transform="translate(326.9375,242)"/>
<path d="M0 0 C4.5100088 0.36967285 6.46964054 1.2880081 9.8125 4.3125 C10.8125 7.375 10.8125 7.375 10.8125 10.3125 C9.8225 11.7975 9.8225 11.7975 8.8125 13.3125 C4.42602838 13.90298656 2.30363016 13.59444509 -1.5625 11.375 C-4.1875 9.3125 -4.1875 9.3125 -5.1875 8.3125 C-4.34248938 0.42573425 -4.34248938 0.42573425 0 0 Z " fill="#F9F6F8" transform="translate(348.1875,219.6875)"/>
<path d="M0 0 C2.32509613 2.37820747 3.80491574 4.90389799 5 8 C4.81132075 13.18867925 4.81132075 13.18867925 3 15 C-0.25 15.5625 -0.25 15.5625 -4 15 C-6.40207003 12.65040237 -7.83319654 10.13965956 -9 7 C-8.9375 3.5625 -8.9375 3.5625 -8 1 C-4.99449319 -0.50275341 -3.33001693 -0.58765005 0 0 Z " fill="#FAF8F9" transform="translate(265,131)"/>
<path d="M0 0 C3.0625 0.3125 3.0625 0.3125 4.73046875 1.51953125 C6.48658392 3.88333437 6.46358454 5.39103159 6.4375 8.3125 C6.44523437 9.17875 6.45296875 10.045 6.4609375 10.9375 C5.98841441 13.75410824 5.35655104 14.65240217 3.0625 16.3125 C0 16.625 0 16.625 -2.9375 16.3125 C-4.9375 14.3125 -4.9375 14.3125 -5.203125 11.5625 C-5.19796875 10.49 -5.1928125 9.4175 -5.1875 8.3125 C-5.19265625 7.24 -5.1978125 6.1675 -5.203125 5.0625 C-4.82298726 1.12695632 -3.90131389 0.41503339 0 0 Z " fill="#FAF7F9" transform="translate(294.9375,121.6875)"/>
<path d="M0 0 C2 2 2 2 2.4375 4.875 C2 8 2 8 -0.375 10.3125 C-4.25594246 12.80739158 -6.35308276 13.29043233 -11 13 C-13 11 -13 11 -13.4375 8.125 C-13 5 -13 5 -10.625 2.6875 C-6.74405754 0.19260842 -4.64691724 -0.29043233 0 0 Z " fill="#FCFBFC" transform="translate(245,220)"/>
<path d="M0 0 C3.0625 0.1875 3.0625 0.1875 5.0625 2.1875 C5.61369398 6.2295892 5.20953535 7.93611698 3.125 11.5 C1.0625 14.1875 1.0625 14.1875 0.0625 15.1875 C-2.875 15.375 -2.875 15.375 -5.9375 15.1875 C-7.9375 13.1875 -7.9375 13.1875 -8.3125 10.4375 C-7.73005904 5.38967831 -5.34937583 0.34144952 0 0 Z " fill="#FCFBFB" transform="translate(328.9375,130.8125)"/>
</svg>
