<svg xmlns="http://www.w3.org/2000/svg" xmlns:xlink="http://www.w3.org/1999/xlink" width="262" height="263" viewBox="0 0 262 263">
  <defs>
    <filter id="Rectangle_12" x="0" y="0" width="262" height="263" filterUnits="userSpaceOnUse">
      <feOffset input="SourceAlpha"/>
      <feGaussianBlur stdDeviation="14.5" result="blur"/>
      <feFlood flood-opacity="0.102"/>
      <feComposite operator="in" in2="blur"/>
      <feComposite in="SourceGraphic"/>
    </filter>
    <linearGradient id="linear-gradient" x1="0.266" y1="0.471" x2="0.805" y2="0.936" gradientUnits="objectBoundingBox">
      <stop offset="0" stop-color="#9b2172"/>
      <stop offset="0.247" stop-color="#831e61"/>
      <stop offset="0.763" stop-color="#471735"/>
      <stop offset="0.971" stop-color="#2e1523"/>
    </linearGradient>
    <linearGradient id="linear-gradient-2" x1="-4.99" y1="-3.581" x2="9.467" y2="7.166" xlink:href="#linear-gradient"/>
  </defs>
  <g id="Group_181" data-name="Group 181" transform="translate(-710.5 -2332.5)">
    <g transform="matrix(1, 0, 0, 1, 710.5, 2332.5)" filter="url(#Rectangle_12)">
      <rect id="Rectangle_12-2" data-name="Rectangle 12" width="175" height="176" rx="24" transform="translate(43.5 43.5)" fill="#fff"/>
    </g>
    <g id="Group_164" data-name="Group 164" transform="translate(1226.601 3726.656)">
      <path id="Path_76" data-name="Path 76" d="M-430.841-1255.162c-1.743,0-3.377,0-5.01,0-.761,0-1.515-.054-1.86-.908s.142-1.4.693-1.946c1.848-1.833,3.662-3.7,5.537-5.5a2.452,2.452,0,0,0,.762-1.853,60.4,60.4,0,0,1,.568-7.851,7.209,7.209,0,0,1,2.08-3.69,8.162,8.162,0,0,1,9.159-1.765,8.12,8.12,0,0,1,5.133,6.99c.076.7.159,1.4.172,2.1.027,1.408.008,2.817.008,4.422,1.109,0,2.132,0,3.155,0a12.89,12.89,0,0,1,2.445.054,1.95,1.95,0,0,1,1.322.927,1.875,1.875,0,0,1-.4,1.563c-1.107,1.251-2.337,2.392-3.517,3.578-.257.258-.5.527-.878.922h9.215c.023-.342.067-.7.067-1.053.005-3.421.03-6.842-.027-10.262a2.486,2.486,0,0,0-.652-1.526c-1.848-1.935-3.8-3.771-5.629-5.725a2.562,2.562,0,0,1-.614-1.827c.1-.831.956-.921,1.685-.925,1.7-.011,3.4,0,5.239,0,0-.615-.03-1.089.005-1.558.2-2.7.1-5.467.739-8.059a18.081,18.081,0,0,1,2.974-5.866,13.046,13.046,0,0,1,6.086-4.52,1.345,1.345,0,0,0,.919-1.531c-.055-1.747-.069-3.508,1.093-4.994a4.656,4.656,0,0,1,4.7-1.842,4.384,4.384,0,0,1,3.826,3.4,17.632,17.632,0,0,1,.345,3.636,1.261,1.261,0,0,0,.8,1.272c1.921.955,3.94,1.787,5.291,3.587.883,1.176,1.8,2.332,2.611,3.556,1.628,2.451,1.774,5.305,2,8.105.126,1.542.023,3.1.023,4.816,1.485,0,2.847,0,4.209,0a4.165,4.165,0,0,1,1.328.036c.514.183,1.228.478,1.362.885a1.983,1.983,0,0,1-.415,1.658c-1.856,1.979-3.787,3.889-5.739,5.774a2.308,2.308,0,0,0-.761,1.852c.035,3.309.015,6.618.015,9.928v1.191h9.279c-.708-.727-1.328-1.372-1.958-2.008a27.822,27.822,0,0,1-2.333-2.392,2.222,2.222,0,0,1-.46-1.742,1.931,1.931,0,0,1,1.478-.854c1.735-.107,3.48-.04,5.405-.04,0-.573-.031-1.042.005-1.506a42.167,42.167,0,0,1,.669-6.827,8.4,8.4,0,0,1,2.5-3.78,7.824,7.824,0,0,1,8.4-1.5,7.892,7.892,0,0,1,4.969,5.185c.862,2.712.516,5.521.631,8.3a2.889,2.889,0,0,0,.726,1.716c1.759,1.865,3.6,3.653,5.421,5.463.564.561,1.156,1.109.8,2.018-.381.97-1.243.927-2.065.931-1.588.007-3.176,0-4.837,0v25.67h5.708v2.837H-356.4v4.275h12.815v2.836h-85.8v-2.738h12.834v-4.277h-19.957v-2.875h5.667Zm39.361-24.336c0-1.722-.021-3.314.006-4.906a45.714,45.714,0,0,1,.188-5,4.826,4.826,0,0,1,4.783-4.274,4.765,4.765,0,0,1,4.814,4.224c.249,2.615.159,5.264.211,7.9.013.656,0,1.314,0,2.01h7.794c.14-4.978.4-9.935-3.21-13.863a13.761,13.761,0,0,0-4.86-3.541,12.582,12.582,0,0,0-7.509-.6,12.579,12.579,0,0,0-6.45,3.657,12.187,12.187,0,0,0-3.3,6.773,59.149,59.149,0,0,0-.278,7.621Zm46.3,49.977v-25.547h-9.183c.374.4.618.664.874.921,1.153,1.157,2.369,2.261,3.434,3.494a2.12,2.12,0,0,1,.447,1.741c-.146.418-.933.687-1.488.86a5.032,5.032,0,0,1-1.439.031h-3.846v18.5Zm-82.594-25.6v25.567h11.219v-18.4c-.347-.027-.6-.064-.857-.065-1.522-.009-3.049.061-4.564-.052a1.824,1.824,0,0,1-1.373-.849,2.187,2.187,0,0,1,.384-1.666,13.21,13.21,0,0,1,1.7-1.758l2.777-2.779Zm28.526-2.912c1.63,0,3.149.036,4.663-.027a1.789,1.789,0,0,0,1.009-.569c1.908-1.874,3.785-3.779,5.681-5.665,1.1-1.091,1.736-1.1,2.817-.027,1.9,1.884,3.777,3.786,5.68,5.666.252.249.583.575.888.586,1.582.059,3.168.027,4.784.027v-11.328h-25.52Zm7.17,10.055v18.42h11.205v-18.42Zm23.559-28.493h-35.894c1.388,1.372,2.581,2.59,3.827,3.752a1.723,1.723,0,0,0,1.082.4q13.03.032,26.06,0a1.729,1.729,0,0,0,1.081-.4C-371.118-1273.879-369.922-1275.094-368.522-1276.471Zm23.434,11.26c0-1.784.023-3.448-.012-5.111a9.328,9.328,0,0,0-.255-1.866,5.315,5.315,0,0,0-4.555-4.253,5.63,5.63,0,0,0-5.375,2.161c-2,2.83-.911,5.991-1.236,9.069Zm-71.514-.028c0-2.211.117-4.36-.054-6.486a6.054,6.054,0,0,0-1.159-2.695c-1.912-2.819-6.767-2.745-8.774.019-2.077,2.859-.986,6.056-1.31,9.162Zm-2.008,14.253h23.483v-4.088a5.078,5.078,0,0,0-.6-.08q-9.075-.007-18.151,0a1.266,1.266,0,0,0-.812.238C-415.983-1253.66-417.238-1252.37-418.61-1250.986Zm40.784-4.17v4.168h23.6c-1.3-1.271-2.37-2.4-3.543-3.418a2.926,2.926,0,0,0-1.716-.718c-5.715-.052-11.431-.032-17.146-.032Zm-14.352,4.169h11.4c0-1.615.012-3.132-.013-4.647a1.092,1.092,0,0,0-.279-.686c-1.781-1.813-3.581-3.608-5.4-5.435-1.812,1.814-3.548,3.536-5.261,5.282a1.423,1.423,0,0,0-.424.844C-392.2-1254.114-392.178-1252.6-392.178-1250.987Zm-17.246,21.468v-18.422H-413.5v18.422Zm7.138.005v-18.426h-4.076v18.426Zm3.063-18.463v18.422h4.075v-18.422Zm21.417,0v18.422h4.066v-18.422Zm7.108,18.505c1.1,0,2.1-.055,3.094.016.888.063,1.131-.258,1.125-1.129-.035-5.46-.016-10.92-.022-16.379,0-.32-.055-.64-.086-.987H-370.7Zm7.108-.1h4.147v-18.345h-4.147Zm-47.815-32.57a3.077,3.077,0,0,0-.526-.148q-8.123-.008-16.245,0a1.142,1.142,0,0,0-.726.177c-1.32,1.271-2.608,2.574-3.938,3.9.2.107.26.168.321.168,5.489.009,10.978.019,16.467,0a1.409,1.409,0,0,0,.862-.389C-413.956-1259.609-412.754-1260.814-411.405-1262.143Zm71.138,4.115.143-.3c-1.116-1.081-2.192-2.209-3.37-3.219a2.947,2.947,0,0,0-1.717-.723c-5.055-.056-10.112-.033-15.168-.03-.316,0-.633.037-1.214.073,1.288,1.279,2.372,2.436,3.552,3.485a2.741,2.741,0,0,0,1.623.683c3.828.058,7.658.031,11.487.031Zm-51.873,35.6h11.285v-4.073H-392.14Zm3.582-57.091h4.155c0-3.257.043-6.442-.025-9.625a1.921,1.921,0,0,0-2.023-1.689,1.929,1.929,0,0,0-2.082,1.748C-388.6-1285.936-388.559-1282.783-388.559-1279.52Zm-24.951,52.988v4.094h4.094v-4.094Zm7.124,0v4.107h4.122v-4.107Zm7.112,4.1h4.135v-4.058h-4.135Zm25.549.043v-4.1h-4.1v4.1Zm3.025.06c1.256,0,2.4.029,3.54-.025.224-.01.608-.334.617-.528.057-1.2.029-2.413.029-3.641H-370.7Zm7.133-.078h4.108v-4.112h-4.108Zm-20.781-78.369c-.134-1.444.563-3.082-1.036-3.968a2.651,2.651,0,0,0-2.244.036c-1.553.927-.849,2.539-.962,3.931Z" transform="translate(0)" fill="url(#linear-gradient)"/>
      <path id="Path_77" data-name="Path 77" d="M-298.172-1165.25a2.057,2.057,0,0,1,1.961,1.919,2.069,2.069,0,0,1-1.868,1.9,2.056,2.056,0,0,1-1.961-1.919A2.069,2.069,0,0,1-298.172-1165.25Z" transform="translate(-88.353 -91.47)" fill="url(#linear-gradient-2)"/>
    </g>
  </g>
</svg>
