<svg xmlns="http://www.w3.org/2000/svg" xmlns:xlink="http://www.w3.org/1999/xlink" width="262" height="263" viewBox="0 0 262 263">
  <defs>
    <filter id="Rectangle_12" x="0" y="0" width="262" height="263" filterUnits="userSpaceOnUse">
      <feOffset input="SourceAlpha"/>
      <feGaussianBlur stdDeviation="14.5" result="blur"/>
      <feFlood flood-opacity="0.102"/>
      <feComposite operator="in" in2="blur"/>
      <feComposite in="SourceGraphic"/>
    </filter>
    <linearGradient id="linear-gradient" x1="0.137" y1="0.058" x2="0.657" y2="1.191" gradientUnits="objectBoundingBox">
      <stop offset="0" stop-color="#9b2172"/>
      <stop offset="0.247" stop-color="#831e61"/>
      <stop offset="0.763" stop-color="#471735"/>
      <stop offset="0.971" stop-color="#2e1523"/>
    </linearGradient>
    <linearGradient id="linear-gradient-2" x1="-6.341" y1="-12.512" x2="9.971" y2="18.528" xlink:href="#linear-gradient"/>
    <linearGradient id="linear-gradient-3" x1="-9.128" y1="-17.833" x2="7.167" y2="13.191" xlink:href="#linear-gradient"/>
    <linearGradient id="linear-gradient-4" x1="-3.626" y1="-7.361" x2="12.733" y2="23.798" xlink:href="#linear-gradient"/>
    <linearGradient id="linear-gradient-5" x1="-2.22" y1="-4.691" x2="14.103" y2="26.44" xlink:href="#linear-gradient"/>
  </defs>
  <g id="Group_182" data-name="Group 182" transform="translate(-948.5 -2332.5)">
    <g transform="matrix(1, 0, 0, 1, 948.5, 2332.5)" filter="url(#Rectangle_12)">
      <rect id="Rectangle_12-2" data-name="Rectangle 12" width="175" height="176" rx="24" transform="translate(43.5 43.5)" fill="#fff"/>
    </g>
    <g id="Group_165" data-name="Group 165" transform="translate(1100.44 3726.656)">
      <path id="Path_78" data-name="Path 78" d="M7.664-1250.455c.8.1,1.734.074,1.734,1.169s-.89,1.126-1.76,1.207v5.222l.231-.185c.452.521,1.153,1,1.264,1.582.067.358-.773.887-1.206,1.339l-.3-.191v13.488c.653,0,1.24,0,1.827,0a1.186,1.186,0,0,1,1.353,1.382c-.013.815,0,1.631,0,2.566.48.023.875.058,1.27.058q7.789.005,15.577,0c.336,0,.751-.109.99.047.387.252.9.678.908,1.038s-.484.819-.86,1.09c-.227.163-.651.063-.986.063q-47.853,0-95.705,0c-.112,0-.224,0-.336,0-.81.024-1.584-.1-1.6-1.109s.744-1.136,1.562-1.135q7.9.012,15.8,0h1.427c0-.827-.006-1.592,0-2.357.013-1.377.272-1.636,1.64-1.651.478-.005.957,0,1.52,0v-13.456l-.268.2c-.436-.488-1.233-.994-1.21-1.46.025-.505.813-.973,1.268-1.457l.252.184v-5.128l-.249.151c-.392-.53-1.005-1.025-1.1-1.6-.056-.355.686-.836,1.069-1.259l.264.164c.018-.365.052-.73.052-1.094,0-6.236.022-12.472-.03-18.707a2.855,2.855,0,0,0-.739-1.716c-.977-1.075-2.119-2-3.115-3.059-.308-.328-.613-1.013-.467-1.322a1.823,1.823,0,0,1,1.282-.783,25.938,25.938,0,0,1,3.072-.035c0-1.667-.006-3.255,0-4.843.016-3.2-.394-3.428,3.133-3.324a4.265,4.265,0,0,0,.547-.088c0-1.175,0-2.386,0-3.6,0-2.207.061-2.268,2.256-2.281.33,0,.661,0,1.149,0v-1.278q0-3.753,0-7.506c0-1.653.2-1.843,1.893-1.85a11.589,11.589,0,0,1,1.68.011,8.971,8.971,0,0,0,7.5-2.319,2.094,2.094,0,0,0,.946-1.831c-.055-1.495.27-1.78,1.74-1.781q7.061-.006,14.121,0c1.485,0,1.806.278,1.744,1.765a2.06,2.06,0,0,0,.94,1.832,8.931,8.931,0,0,0,7.494,2.337,11.854,11.854,0,0,1,2.015-.01c1.281.022,1.6.323,1.607,1.593.013,2.539,0,5.078,0,7.617v1.42c.707,0,1.36,0,2.012,0a1.208,1.208,0,0,1,1.375,1.375c0,1.486,0,2.971,0,4.6.658,0,1.207-.009,1.755,0,1.206.024,1.536.332,1.546,1.533.017,1.9,0,3.809,0,5.713,0,.254.037.508.068.905a19.009,19.009,0,0,1,2.568.029,2.678,2.678,0,0,1,1.7.7c.535.746-.248,1.263-.75,1.747-.995.959-2.021,1.886-2.985,2.876a1.867,1.867,0,0,0-.568,1.124c-.029,6.646-.016,13.292-.008,19.938A1.972,1.972,0,0,0,7.664-1250.455Zm-18.539,27.6c.027-.332.059-.549.059-.767q0-12.373-.01-24.747a9.083,9.083,0,0,0-.307-2.209,9.321,9.321,0,0,0-10.265-6.934,9.3,9.3,0,0,0-8.114,9.139c-.056,8.249-.018,16.5-.012,24.746a5.1,5.1,0,0,0,.121.771Zm-34.708-43.383v15.749h9.69c0-3.978-.005-7.856,0-11.735,0-1.307.283-1.6,1.577-1.6q14.113-.008,28.225,0c1.373,0,1.639.275,1.642,1.646.006,3.508,0,7.016,0,10.524,0,.394.036.787.056,1.178H5.256v-15.769Zm0-11.046H5.247v-5.786H-45.586Zm44.136-22.367H-38.5v8.247H-1.45Zm3.426,10.626H-41.875v3.566H1.976Zm-47.571,62.131h9.617v-13.453h-9.617Zm50.742.023c.075-.158.134-.223.134-.289.015-4.18.015-8.359.045-12.539,0-.741-.436-.728-.953-.726-1.942.007-3.883,0-5.825,0H-4.366v13.552Zm-50.714-43.847v2.082H5.221v-2.082Zm53-4.145H-47.774a3.12,3.12,0,0,0,3.235,1.92q24.37-.1,48.74.008A3.123,3.123,0,0,0,7.431-1274.858Zm-41.01,24.372c1.868.222,1.841.212,2.418-1.411a11.457,11.457,0,0,1,8.274-7.615c.5-.133,1-.217,1.508-.324v-1.636H-33.642c0,3.526,0,6.955,0,10.383C-33.64-1250.908-33.6-1250.726-33.579-1250.486Zm14.569-9.383c6.017,1.451,7.727,3.021,10.333,9.419h1.89v-11.021H-19.01Zm-9.769-42.206h17.83c-1.4-1-2.978-1.583-2.481-3.525H-26.408C-26.731-1304.195-26.731-1304.195-28.779-1302.075Zm-16.813,59.35h9.609v-5.35h-9.609Zm41.213-.018h9.63v-5.314h-9.63Zm-29.234,19.829h1.742v-17.409h-1.742Zm26.837.073v-17.493H-8.453v17.493Zm15.272-.018v-1.63H-4.348v1.63Zm-57.339-.022h12.851v-1.644H-48.843Zm15.262-25.213v5.37h1.716v-5.37Zm26.8,5.371v-5.332H-8.494v5.332Z" transform="translate(0 0)" fill="url(#linear-gradient)"/>
      <path id="Path_79" data-name="Path 79" d="M10.99-1169.985a1.607,1.607,0,0,1-1.7,1.538,1.57,1.57,0,0,1-1.476-1.633,1.594,1.594,0,0,1,1.57-1.551A1.632,1.632,0,0,1,10.99-1169.985Z" transform="translate(-50.251 -88.062)" fill="url(#linear-gradient-2)"/>
      <path id="Path_80" data-name="Path 80" d="M127.887-1169.986a1.581,1.581,0,0,1-1.569,1.549,1.616,1.616,0,0,1-1.606-1.636,1.628,1.628,0,0,1,1.694-1.55A1.593,1.593,0,0,1,127.887-1169.986Z" transform="translate(-125.793 -88.065)" fill="url(#linear-gradient-3)"/>
      <path id="Path_81" data-name="Path 81" d="M97.5-1277.191a1.581,1.581,0,0,1,1.6,1.542,1.635,1.635,0,0,1-1.642,1.633,1.585,1.585,0,0,1-1.521-1.619A1.543,1.543,0,0,1,97.5-1277.191Z" transform="translate(-107.197 -19.843)" fill="url(#linear-gradient-4)"/>
      <path id="Path_82" data-name="Path 82" d="M39.248-1274.033a1.6,1.6,0,0,1-1.539-1.69,1.557,1.557,0,0,1,1.616-1.487,1.576,1.576,0,0,1,1.552,1.564A1.621,1.621,0,0,1,39.248-1274.033Z" transform="translate(-69.567 -19.831)" fill="url(#linear-gradient-5)"/>
    </g>
  </g>
</svg>
