<svg xmlns="http://www.w3.org/2000/svg" xmlns:xlink="http://www.w3.org/1999/xlink" width="262" height="263" viewBox="0 0 262 263">
  <defs>
    <filter id="Rectangle_12" x="0" y="0" width="262" height="263" filterUnits="userSpaceOnUse">
      <feOffset input="SourceAlpha"/>
      <feGaussianBlur stdDeviation="14.5" result="blur"/>
      <feFlood flood-opacity="0.102"/>
      <feComposite operator="in" in2="blur"/>
      <feComposite in="SourceGraphic"/>
    </filter>
    <linearGradient id="linear-gradient" y1="0.5" x2="1" y2="0.5" gradientUnits="objectBoundingBox">
      <stop offset="0" stop-color="#9b2172"/>
      <stop offset="0.247" stop-color="#831e61"/>
      <stop offset="0.763" stop-color="#471735"/>
      <stop offset="0.971" stop-color="#2e1523"/>
    </linearGradient>
  </defs>
  <g id="Group_184" data-name="Group 184" transform="translate(-1424.5 -2332.5)">
    <g transform="matrix(1, 0, 0, 1, 1424.5, 2332.5)" filter="url(#Rectangle_12)">
      <rect id="Rectangle_12-2" data-name="Rectangle 12" width="175" height="176" rx="24" transform="translate(43.5 43.5)" fill="#fff"/>
    </g>
    <g id="Group_167" data-name="Group 167" transform="translate(671.314 3906.004)">
      <path id="Path_92" data-name="Path 92" d="M928.078-1436.961v-4.826c0-2.554.019-5.107-.01-7.661-.011-.951.152-1.566,1.328-1.562.312,0,.876-.661.9-1.042.1-1.777.018-3.564.057-5.345a5.164,5.164,0,0,1,2.617-4.7,2.758,2.758,0,0,0,1.707-3.183,4.723,4.723,0,0,1,.056-.982c2.267-.74,2.664-.506,2.617,1.689a1.728,1.728,0,0,0,1.205,1.939,5.5,5.5,0,0,1,3.488,5.343c.01,1.638.05,3.277-.008,4.913-.037,1.036.286,1.478,1.388,1.451,2.134-.051,2.132-.448,2.132,2.2q0,23.415,0,46.83c0,1.949-.006,1.961-2,1.961q-48.059-.007-96.118-.018c-7.178,0-14.358-.025-21.536.053-1.428.015-1.758-.444-1.754-1.8q.065-23.776,0-47.553c0-1.289.312-1.916,1.678-1.688,1.436.24,2-.315,1.879-1.815-.124-1.483-.023-2.985-.024-4.479a5.578,5.578,0,0,1,3.563-5.446,1.557,1.557,0,0,0,1.132-1.69c-.023-2.385.015-2.385,2.441-2.055.057.075.169.158.16.226a4.23,4.23,0,0,0,2.4,4.61,4.738,4.738,0,0,1,2,4.275c.017,1.734.023,3.469,0,5.2-.01.731.136,1.261,1.016,1.167,1.1-.118,1.266.526,1.261,1.423-.02,3.661-.008,7.323-.007,10.985v1.53a1.923,1.923,0,0,0,.509.217c3.69.092,3.113.316,3.056-2.85-.061-3.447,1.091-6,4.448-7.305.291-.113.68-.541.661-.8-.15-2,1.064-1.895,2.53-1.622a5.517,5.517,0,0,1,.144,1.048,1.354,1.354,0,0,0,1.013,1.495,6.283,6.283,0,0,1,4.189,6.284c0,.626,0,1.253,0,1.879.006,1.913.012,1.823,1.869,1.937,1.442.089,1.857-.457,1.74-1.813-.1-1.2-.031-2.407-.021-3.612.006-.741-.216-1.6,1.018-1.664.179-.009.445-.656.466-1.019.062-1.1.023-2.215.025-3.323a4.747,4.747,0,0,1,2.312-4.51c1.274-.738.658-1.99.717-3.017.054-.939.258-1.385,1.316-1.382,1.037,0,1.4.4,1.288,1.365a3.555,3.555,0,0,0,1.593,3.787c.781.541,1.14,1.944,1.332,3.021a35.912,35.912,0,0,1,.137,4.035c.021.331.366.642.563.962.179-.332.509-.662.513-1,.04-3.08.024-6.161.024-9.321a4.473,4.473,0,0,1,.992-.224c.845.012,1.035-.431,1.044-1.185a52.94,52.94,0,0,1,.2-5.326,9.786,9.786,0,0,1,3.483-6.139A3,3,0,0,0,879.7-1469c.091-3.177.063-6.359.034-9.538a5.232,5.232,0,0,1,3.207-5.323c.99-.432.875-1.174.819-1.912-.078-1.037.263-1.479,1.364-1.474s1.5.447,1.358,1.481a1.981,1.981,0,0,0,1.225,2.271,5.033,5.033,0,0,1,2.538,4.722q.044,4.77-.005,9.539a2.225,2.225,0,0,0,.945,2.068c2.793,2.1,3.872,5.049,3.936,8.446.012.626.026,1.254,0,1.879-.061,1.4-.254,2.87,2.08,2.418v10.242l.355.049a5.035,5.035,0,0,0,.2-.932c.031-1.2.016-2.409.036-3.613a4.292,4.292,0,0,1,2.21-3.957c1.386-.779.664-2.072.756-3.131.077-.882.264-1.27,1.241-1.3,1.123-.031,1.469.425,1.371,1.449-.143,1.493.039,2.735,1.577,3.635,1.24.726,1.417,2.222,1.469,3.6.036.962,0,1.927.012,2.891.01.823-.283,1.81,1.107,1.889.153.008.369.7.381,1.082q.067,2.238.009,4.48c-.024.885.225,1.29,1.213,1.305,2.387.036,2.358.085,2.4-2.283a18.63,18.63,0,0,1,.281-3.573,5.393,5.393,0,0,1,3.054-3.823c1.273-.6,2.4-1.12,1.782-2.772,2.135-.621,2.294-.509,2.731,1.363a1.463,1.463,0,0,0,.751.9A6.527,6.527,0,0,1,924.48-1440c-.005.144,0,.289,0,.434C924.483-1436.376,924.568-1436.309,928.078-1436.961Zm-33.007-3.99H874.653v38.2h3.072c.046-.7.121-1.313.122-1.928.008-6.119-.008-12.238.007-18.357.005-2.167-.058-4.346.147-6.5a6.967,6.967,0,0,1,8.014-5.909,6.9,6.9,0,0,1,6.039,7.276c.03,7.757.009,15.514.013,23.272,0,2.367.058,2.415,2.464,2.2a3.475,3.475,0,0,0,.54-.157Zm-30.55,37.743c1.987,0,3.77-.094,5.538.029,1.445.1,1.887-.324,1.877-1.822-.068-9.775-.035-19.551-.036-29.327,0-1.83.04-3.662-.036-5.488-.016-.394-.442-1.093-.7-1.1-2.189-.089-4.383-.051-6.641-.051Zm40.661-37.777h-5.44c-1.918,0-1.922,0-1.923,1.854q0,16.976,0,33.952a3.239,3.239,0,0,0,.047,1.144c.129.321.485.774.753.782,2.156.064,4.315.036,6.563.036Zm-24.71,24.762c0,4,.025,7.995-.017,11.992-.012,1.078.28,1.593,1.458,1.556,2.069-.066,4.142-.048,6.212-.006.985.02,1.378-.35,1.376-1.348-.021-7.995,0-15.99-.022-23.985a4.58,4.58,0,0,0-2.153-4.168c-3.1-1.911-6.793.285-6.842,4.11C880.433-1424.122,880.473-1420.172,880.472-1416.222Zm-38.82-17.715c0,4.63,0,9.1,0,13.576,0,1.318,1.006.914,1.674.913.771,0,1.883.421,1.9-1.033.014-1.589.055-3.179.01-4.766-.03-1.062.573-1.111,1.384-1.124.837-.014,1.241.22,1.214,1.134-.046,1.539.014,3.082-.01,4.622-.013.849.316,1.219,1.194,1.2,1.781-.038,3.563-.028,5.345,0,.745.01,1.187-.176,1.159-1.041-.041-1.251-.01-2.5-.009-3.756,0-2.3.2-2.453,2.693-1.9,0,1.726.082,3.5-.025,5.262-.092,1.508.8,1.435,1.825,1.446,1.052.01,1.846.008,1.814-1.468-.084-3.9-.062-7.8-.007-11.7.016-1.13-.334-1.494-1.484-1.483-5.778.052-11.557.023-17.335.028C842.615-1434.031,842.24-1433.98,841.652-1433.937Zm69.87,7.719c2.654-.3,2.69-.265,2.69,2,0,1.2.036,2.409-.01,3.611-.033.865.289,1.208,1.168,1.188q2.671-.063,5.344,0c.885.019,1.2-.363,1.187-1.206-.023-1.54.038-3.082-.008-4.621-.028-.922.391-1.135,1.221-1.126s1.407.088,1.374,1.137c-.047,1.491.047,2.987-.014,4.477-.071,1.715,1.144,1.253,2.077,1.336,1.025.091,1.583-.127,1.556-1.382-.079-3.657-.027-7.318-.027-10.977v-2.01a2.237,2.237,0,0,0-.483-.2c-6.21-.018-12.42-.019-18.63-.056-1.015-.006-1.033.6-1.032,1.323.006,3.948.058,7.9-.026,11.844-.031,1.475.764,1.477,1.815,1.469,1.025-.008,1.917.062,1.826-1.445C911.441-1422.616,911.522-1424.389,911.522-1426.219Zm-69.8,9.593c-.028.594-.072,1.11-.073,1.626-.006,3.325-.021,6.65,0,9.974.019,2.555-.428,2.311,2.406,2.395,1.172.035,1.53-.415,1.494-1.512-.052-1.588.023-3.181-.021-4.769-.027-.955.373-1.246,1.292-1.242.9,0,1.337.236,1.305,1.219-.051,1.589.031,3.181-.021,4.77-.035,1.074.26,1.605,1.465,1.534a46.178,46.178,0,0,1,4.624-.006c1,.041,1.375-.306,1.331-1.322-.066-1.539.011-3.084-.026-4.625-.024-1.015.166-1.6,1.424-1.586,1.209.015,1.313.589,1.286,1.53-.044,1.492.075,2.993-.034,4.479-.1,1.416.623,1.555,1.749,1.532,1.1-.023,1.938.027,1.894-1.544-.1-3.708-.074-7.42-.011-11.13.02-1.18-.428-1.448-1.521-1.439-5.734.044-11.468.019-17.2.024C842.667-1416.718,842.247-1416.663,841.722-1416.626Zm86.346.06a4.5,4.5,0,0,0-.652-.137c-6.119-.009-12.238.005-18.356-.035-1.076-.007-1.135.569-1.131,1.373.015,3.469,0,6.938,0,10.407,0,2.423,0,2.378,2.379,2.325.979-.022,1.241-.429,1.219-1.318-.04-1.541.025-3.084-.019-4.625-.029-1,.079-1.608,1.37-1.6,1.332.012,1.344.74,1.334,1.672-.016,1.493.056,2.99-.025,4.479-.06,1.106.373,1.43,1.422,1.383,1.539-.068,3.084-.06,4.624,0,.993.037,1.4-.327,1.37-1.33-.043-1.54.011-3.083-.013-4.625-.014-.89-.006-1.578,1.249-1.571,1.157.006,1.387.511,1.344,1.494-.048,1.106-.006,2.216-.007,3.324,0,2.888.172,3.067,3.011,2.654.325-.047.835-.539.838-.831C928.085-1407.852,928.069-1412.178,928.069-1416.566Zm-93.271-9.611c0,1.4-.014,2.743,0,4.082.036,2.959-.362,2.62,2.733,2.687,1.045.023,1.45-.306,1.437-1.394q-.071-5.915,0-11.832c.012-1.043-.282-1.446-1.384-1.424-3.125.063-6.254.073-9.378-.005-1.184-.03-1.493.422-1.477,1.5.043,3.03-.025,6.061.024,9.09.078,4.88-.87,3.923,4.253,4.053.894.023,1.2-.368,1.188-1.2-.018-1.2,0-2.4,0-3.607C832.2-1426.54,832.241-1426.57,834.8-1426.177Zm95.971-.643q0,1.154,0,2.309c0,.769-.016,1.539,0,2.308.061,3.042-.562,2.741,2.9,2.79.948.014,1.284-.368,1.259-1.279-.037-1.394.022-2.79-.015-4.183-.025-.923.053-1.529,1.277-1.517,1.167.011,1.394.534,1.334,1.5-.03.479-.016.962,0,1.442.117,4.91-.834,3.9,4.27,4.037.9.024,1.185-.39,1.182-1.211q-.017-6.132,0-12.264c0-.865-.358-1.165-1.218-1.156q-4.9.052-9.811,0c-.866-.009-1.2.295-1.188,1.17C930.8-1430.86,930.77-1428.84,930.769-1426.82ZM877.952-1454.6c4.61,0,9.17.016,13.729-.042.255,0,.7-.609.717-.955a31.423,31.423,0,0,0,.011-4.039,7.433,7.433,0,0,0-7.02-6.991,7.246,7.246,0,0,0-7.378,5.855A38.65,38.65,0,0,0,877.952-1454.6Zm-39,44.793c0-1.83-.061-3.662.022-5.488.053-1.171-.4-1.47-1.5-1.448-3.08.063-6.163.07-9.243,0-1.152-.028-1.516.367-1.5,1.479.048,2.984-.008,5.97.023,8.954.044,4.24-.619,3.524,3.686,3.652,1.2.036,1.5-.484,1.464-1.541-.043-1.443.015-2.889-.013-4.333-.019-.974.084-1.641,1.374-1.632,1.249.009,1.277.67,1.248,1.567-.032.962-.027,1.926-.006,2.889.071,3.32-.65,3.019,3.268,3.033.865,0,1.2-.348,1.187-1.208C838.929-1405.861,838.951-1407.835,838.954-1409.809Zm104.02.134c0-1.876-.031-3.753.013-5.628.023-1-.251-1.467-1.381-1.443-3.174.068-6.35.056-9.524.005-1.006-.016-1.344.318-1.33,1.323.047,3.222-.018,6.447.026,9.669.045,3.333-.742,3.035,3.216,3.063.961.007,1.254-.43,1.233-1.323-.037-1.539.02-3.079-.016-4.618-.022-.923.053-1.548,1.276-1.539,1.163.009,1.389.548,1.348,1.51-.033.768-.021,1.54-.005,2.309.087,4.289-.676,3.569,3.8,3.665,1,.021,1.374-.388,1.355-1.364C942.946-1405.922,942.972-1407.8,942.974-1409.675Zm-67.153-41.935c0,2.431-.031,4.773.043,7.113.008.266.6.735.925.737q8.366.068,16.734.006c.324,0,.92-.371.926-.583.066-2.425.042-4.853.042-7.274Zm11.718-17.739c0-3.161.021-6.329-.008-9.5a2.636,2.636,0,0,0-2.5-2.815,2.627,2.627,0,0,0-2.568,2.875c-.019,2.84-.011,5.68,0,8.52a5.528,5.528,0,0,0,.133.915Zm-50.875,14.6c0-.865.026-1.731-.005-2.6a3.163,3.163,0,0,0-3.106-3.15,3.116,3.116,0,0,0-3.163,3.067c-.056,1.3-.04,2.6-.023,3.893.036,2.733-.435,2.552,2.535,2.561C836.67-1450.966,836.67-1450.974,836.664-1454.753Zm102.686-.063c0-.817.026-1.635-.005-2.45a3.165,3.165,0,0,0-3.152-3.239,3.175,3.175,0,0,0-3.132,3.27c-.029,1.585.057,3.174-.029,4.755-.062,1.131.325,1.614,1.458,1.494a9.35,9.35,0,0,1,1.008,0C939.364-1450.975,939.364-1450.975,939.35-1454.816Zm-112.568,6.61c0,1.312-.052,2.5.038,3.683a1.131,1.131,0,0,0,.8.754c3.512.05,7.026.058,10.537-.027.274-.007.767-.8.747-1.211a23.121,23.121,0,0,0-.53-3.177c0-.024-.18-.021-.276-.021Zm116.163,0c-3.944,0-7.643-.013-11.342.027-.27,0-.749.37-.767.6a18.322,18.322,0,0,0,.006,3.168c.025.254.574.65.886.654,3.417.048,6.836.053,10.253,0a1.246,1.246,0,0,0,.92-.784C943.008-1445.722,942.944-1446.911,942.944-1448.206ZM855.4-1436.763c.053-.519.105-.8.106-1.085,0-1.056.032-2.115-.027-3.168a3.643,3.643,0,0,0-3.361-3.514,3.573,3.573,0,0,0-4.024,2.718,20.894,20.894,0,0,0-.206,4.288c0,.256.513.719.8.727C850.884-1436.735,853.084-1436.763,855.4-1436.763Zm58.877,0c2.362,0,4.517.033,6.669-.037.319-.01.884-.5.888-.782a20.316,20.316,0,0,0-.218-4.285,3.593,3.593,0,0,0-3.782-2.7,3.642,3.642,0,0,0-3.526,3.032C914.164-1440.025,914.276-1438.491,914.276-1436.761Zm-81.41-4.265v-.006H829.7c-3.2,0-3.169,0-2.963,3.148.056.863.377,1.157,1.23,1.145,2.686-.037,5.373-.011,8.06-.011,3.233,0,3.262,0,2.879-3.284a1.437,1.437,0,0,0-1-.947C836.229-1441.084,834.546-1441.026,832.867-1441.026Zm103.91,4.276h3.311c3.074,0,3.044,0,2.9-3.066-.043-.93-.378-1.245-1.3-1.229-2.638.044-5.278.014-7.917.013-3.239,0-3.212,0-3.019,3.213.048.809.342,1.092,1.128,1.075C933.514-1436.778,935.145-1436.754,936.777-1436.75Zm-67.47-9.961h-.014c0-.671.047-1.346-.011-2.012-.088-1.019-.581-1.784-1.7-1.745a1.579,1.579,0,0,0-1.567,1.722c-.044,1.293-.054,2.59.014,3.881a1.217,1.217,0,0,0,.608.915c1.837.6,2.662-.014,2.668-1.9C869.308-1446.136,869.307-1446.424,869.307-1446.711Zm34.4,2.581c0-1.566.049-3.143-.018-4.715-.042-.977-.668-1.782-1.638-1.573a2.569,2.569,0,0,0-1.544,1.529,9.026,9.026,0,0,0-.087,2.712c0,2.42.2,2.594,2.628,2.263A4.419,4.419,0,0,0,903.706-1444.13Z" transform="translate(0 0)" fill="url(#linear-gradient)"/>
    </g>
  </g>
</svg>
