<?xml version="1.0" encoding="UTF-8"?>
<svg version="1.1" xmlns="http://www.w3.org/2000/svg" width="512" height="512">
<path d="M0 0 C8.69714693 7.95583408 16.60807541 16.36323719 23.83886719 25.68212891 C24.85675862 26.95974181 25.87501301 28.23706559 26.89355469 29.51416016 C34.72693996 39.43349598 41.61051825 49.68576284 47.83886719 60.68212891 C48.30035156 61.49665527 48.76183594 62.31118164 49.23730469 63.15039062 C64.48256677 90.4034023 74.02862023 119.85766505 78.83886719 150.68212891 C78.95601074 151.39804199 79.0731543 152.11395508 79.19384766 152.8515625 C89.34979179 217.51459463 70.37507405 285.8617101 32.54248047 338.48535156 C19.46809304 356.38289658 4.36899412 373.08000737 -13.16113281 386.68212891 C-14.43874571 387.70002034 -15.71606949 388.71827473 -16.99316406 389.73681641 C-26.91249989 397.57020168 -37.16476675 404.45377997 -48.16113281 410.68212891 C-49.38292236 411.37435547 -49.38292236 411.37435547 -50.62939453 412.08056641 C-77.88240621 427.32582849 -107.33666896 436.87188195 -138.16113281 441.68212891 C-138.8770459 441.79927246 -139.59295898 441.91641602 -140.33056641 442.03710938 C-202.19200196 451.75303613 -270.45619162 435.02178058 -321.16113281 398.68212891 C-321.80646973 398.22080566 -322.45180664 397.75948242 -323.11669922 397.28417969 C-342.09946248 383.60862469 -359.78127534 368.21458549 -374.16113281 349.68212891 C-375.17902425 348.40451601 -376.19727863 347.12719222 -377.21582031 345.85009766 C-385.04920558 335.93076183 -391.93278387 325.67849497 -398.16113281 314.68212891 C-398.62261719 313.86760254 -399.08410156 313.05307617 -399.55957031 312.21386719 C-414.8048324 284.96085551 -424.35088586 255.50659276 -429.16113281 224.68212891 C-429.27827637 223.96621582 -429.39541992 223.25030273 -429.51611328 222.51269531 C-439.66249354 157.91055655 -420.70897403 89.44301948 -382.86914062 36.88769531 C-369.79420688 18.9861306 -354.69418296 2.28651865 -337.16113281 -11.31787109 C-335.88351991 -12.33576253 -334.60619613 -13.35401691 -333.32910156 -14.37255859 C-323.40976574 -22.20594386 -313.15749887 -29.08952216 -302.16113281 -35.31787109 C-301.34660645 -35.77935547 -300.53208008 -36.24083984 -299.69287109 -36.71630859 C-272.43985942 -51.96157068 -242.98559667 -61.50762414 -212.16113281 -66.31787109 C-211.44521973 -66.43501465 -210.72930664 -66.5521582 -209.99169922 -66.67285156 C-133.83200866 -78.63445524 -56.45207557 -50.6949651 0 0 Z " fill="#631549" transform="translate(431.1611328125,68.31787109375)"/>
<path d="M0 0 C1.48173706 0.01100487 1.48173706 0.01100487 2.9934082 0.02223206 C4.58415161 0.05944618 4.58415161 0.05944618 6.20703125 0.09741211 C7.30168701 0.1143663 8.39634277 0.1313205 9.52416992 0.14878845 C11.83755056 0.18928168 14.15080403 0.23770315 16.46386719 0.29345703 C20.00592245 0.3744447 23.5471226 0.41813528 27.08984375 0.45874023 C29.33728491 0.50270503 31.5846846 0.54885564 33.83203125 0.59741211 C34.89252686 0.60805191 35.95302246 0.61869171 37.0456543 0.62965393 C44.34914423 0.84703566 44.34914423 0.84703566 47.69433594 3.16845703 C49.50040026 6.09016867 49.41760345 8.1565953 49.26953125 11.56225586 C49.2334375 12.63991211 49.19734375 13.71756836 49.16015625 14.82788086 C49.11375 15.64772461 49.06734375 16.46756836 49.01953125 17.31225586 C49.73238281 16.97452148 50.44523437 16.63678711 51.1796875 16.28881836 C69.6272464 7.69816509 90.71211426 6.48003918 109.97241211 13.34594727 C116.06547746 15.59532563 121.93485355 18.0559064 127.61328125 21.23413086 C134.88178585 24.49079851 142.13744563 24.65303868 149.97265625 24.80444336 C152.30730645 24.8703279 154.6419415 24.93675107 156.9765625 25.00366211 C160.62082474 25.09823554 164.26502728 25.18715859 167.90966797 25.26586914 C171.45212315 25.34597612 174.99338017 25.44888628 178.53515625 25.55444336 C179.60743469 25.57127167 180.67971313 25.58809998 181.78448486 25.60543823 C193.42041805 25.97985902 203.59109979 29.02143145 212.01953125 37.31225586 C213.89605646 39.57642008 215.44247185 41.81948455 217.01953125 44.31225586 C220.9762458 43.69237208 224.12541114 42.45534731 227.7109375 40.68725586 C228.81074951 40.14931396 229.91056152 39.61137207 231.04370117 39.05712891 C232.2113501 38.4813208 233.37899902 37.9055127 234.58203125 37.31225586 C235.7992638 36.72218468 237.01712544 36.13340954 238.2355957 35.54589844 C243.74089127 32.890506 249.230659 30.21091464 254.68359375 27.44897461 C265.90407656 21.89263165 275.41489678 18.58453967 287.94921875 22.14428711 C295.32310187 25.31572924 301.26680227 31.1694419 304.39453125 38.56225586 C303.92123315 42.03310863 302.4826849 42.87292658 299.82519531 44.97827148 C296.71140073 47.27867354 293.47618072 49.36594822 290.20703125 51.43725586 C288.68613603 52.41111755 287.16530443 53.38507861 285.64453125 54.35913086 C284.87367188 54.8509082 284.1028125 55.34268555 283.30859375 55.84936523 C279.76516668 58.11389329 276.23622838 60.40063978 272.70703125 62.68725586 C272.01440186 63.13536621 271.32177246 63.58347656 270.6081543 64.04516602 C265.07348222 67.62631296 259.54592728 71.2183546 254.01953125 74.81225586 C240.69111422 83.47788035 227.34527639 92.1142264 213.95703125 100.68725586 C212.36822144 101.70493042 212.36822144 101.70493042 210.74731445 102.74316406 C208.74247265 104.02577263 206.73650345 105.30662119 204.72924805 106.58544922 C203.04302513 107.66001942 201.35915131 108.73829632 199.67895508 109.82226562 C184.41881118 119.57264731 164.42791032 121.95128743 146.79125977 118.18286133 C139.23566512 116.38622819 131.81047109 114.09592206 124.39111328 111.81030273 C115.26709987 109.02101587 106.04375531 106.61257653 96.8137207 104.20385742 C89.75521343 102.35142828 82.77515568 100.35867434 75.82739258 98.12426758 C67.52550074 95.72342485 62.39203323 97.26481349 55.01953125 101.31225586 C53.72571016 102.05853313 52.4338972 102.80830743 51.14453125 103.56225586 C48.01953125 105.31225586 48.01953125 105.31225586 46.01953125 105.31225586 C46.10203125 106.57038086 46.18453125 107.82850586 46.26953125 109.12475586 C46.41015625 111.26928711 46.41015625 111.26928711 46.01953125 113.31225586 C43.05167767 116.09826655 41.0624552 116.68185861 37.0390625 116.62451172 C36.05123779 116.61717514 35.06341309 116.60983856 34.0456543 116.60227966 C32.98515869 116.57747025 31.92466309 116.55266083 30.83203125 116.52709961 C29.19004761 116.50166832 29.19004761 116.50166832 27.51489258 116.47572327 C25.20151194 116.43523004 22.88825847 116.38680857 20.57519531 116.33105469 C17.03314005 116.25006702 13.4919399 116.20637644 9.94921875 116.16577148 C7.70177759 116.12180669 5.4543779 116.07565608 3.20703125 116.02709961 C2.14653564 116.01645981 1.08604004 116.00582001 -0.0065918 115.99485779 C-7.14514838 115.78238515 -7.14514838 115.78238515 -10.66040039 113.80395508 C-12.59814308 110.14636272 -12.43364251 106.75769969 -12.2890625 102.73022461 C-12.2726622 101.82644577 -12.2562619 100.92266693 -12.23936462 99.99150085 C-12.17409067 96.76427241 -12.07682351 93.53870106 -11.98046875 90.31225586 C-11.93348036 88.36675058 -11.88655078 86.42124332 -11.84139442 84.47569466 C-11.63542876 75.62721849 -11.37773712 66.7805543 -11.1116333 57.93371582 C-11.04286846 55.62138332 -10.97623066 53.30899983 -10.91040039 50.99658203 C-10.66327442 42.31692393 -10.39652881 33.63836492 -10.09942627 24.96026611 C-9.9940671 21.7292696 -9.9096984 18.49858309 -9.83154297 15.2668457 C-9.77697283 13.6295963 -9.72128257 11.99238354 -9.6640625 10.35522461 C-9.64896385 9.30217888 -9.64896385 9.30217888 -9.63356018 8.2278595 C-9.50799995 5.29842798 -9.40862402 3.72676123 -7.2559967 1.64276123 C-4.58122696 0.07881845 -3.07893996 -0.04388526 0 0 Z " fill="#FBF9FB" transform="translate(111.98046875,289.687744140625)"/>
<path d="M0 0 C1.58699729 1.36791686 3.14873746 2.76554122 4.6875 4.1875 C5.61304688 5.033125 6.53859375 5.87875 7.4921875 6.75 C13.70411584 12.67574194 18.52904536 18.68556424 22.6875 26.1875 C23.22117187 27.13367188 23.75484375 28.07984375 24.3046875 29.0546875 C34.62366759 48.40919245 36.67971516 71.11715386 30.6875 92.1875 C22.36174533 116.50980463 6.69596402 134.73071465 -16.3125 146.1875 C-34.52047995 154.54075445 -57.5019038 156.69714958 -76.7890625 150.5859375 C-100.66707776 141.10885384 -120.0832529 126.33823578 -130.53808594 102.13818359 C-139.54381402 79.45351543 -139.63761406 56.60711141 -130.625 33.9375 C-120.64345687 12.21150439 -102.98967629 -3.78308374 -80.9140625 -12.59375 C-53.61457589 -21.83175415 -22.9963316 -17.67277137 0 0 Z " fill="#64164A" transform="translate(313.3125,145.8125)"/>
<path d="M0 0 C1.00482422 0.00572021 2.00964844 0.01144043 3.04492188 0.01733398 C16.53633337 0.33737785 27.55068063 5.00799112 39.47265625 10.94921875 C46.36552432 14.09097377 52.42009353 14.84678213 59.91015625 15.09765625 C61.34372719 15.15644203 61.34372719 15.15644203 62.80625916 15.21641541 C65.84975169 15.33979668 68.89352742 15.45165641 71.9375 15.5625 C94.8465973 16.44751131 94.8465973 16.44751131 103 16.9296875 C104.03511719 16.9901123 105.07023438 17.05053711 106.13671875 17.11279297 C113.64915417 18.17508992 118.59978338 22.74455427 123.46484375 28.2421875 C125.29591325 31.17392759 125.9734024 34.17893445 126.875 37.5 C126.03783951 37.49777939 125.20067902 37.49555878 124.33815002 37.49327087 C116.46532586 37.47326968 108.59251017 37.45802675 100.71966648 37.44818783 C96.67174258 37.44295959 92.62383959 37.43586301 88.57592773 37.42456055 C84.67264029 37.41372957 80.76937301 37.40772272 76.8660717 37.40512276 C75.37366353 37.40326889 73.88125652 37.399649 72.38885689 37.39426994 C70.30551861 37.38705669 68.22226469 37.38600917 66.13891602 37.38647461 C64.35687523 37.38314369 64.35687523 37.38314369 62.53883362 37.37974548 C59.95379307 37.19637405 59.95379307 37.19637405 58.875 38.5 C58.83407063 40.83297433 58.83258277 43.16705225 58.875 45.5 C62.20021991 47.16260995 65.94175055 46.86950062 69.60546875 47.03515625 C70.49640732 47.07831467 71.38734589 47.12147308 72.30528259 47.16593933 C75.22410453 47.30438977 78.1432042 47.43444976 81.0625 47.5625 C82.0499823 47.60669067 83.0374646 47.65088135 84.05487061 47.69641113 C97.03511936 48.26953827 110.00652322 48.70848349 123 48.75 C124.2893042 48.759104 125.5786084 48.76820801 126.90698242 48.77758789 C128.65845581 48.77166626 128.65845581 48.77166626 130.4453125 48.765625 C131.45352051 48.76336914 132.46172852 48.76111328 133.50048828 48.75878906 C136.0621336 48.73042178 136.0621336 48.73042178 137.875 46.5 C137.86443549 44.76115355 137.81299784 43.02242883 137.73828125 41.28515625 C138.03027512 37.52963764 138.24634118 36.04658279 141.12646484 33.54248047 C144.37489941 31.78808088 147.64537268 30.33559403 151.0625 28.9375 C152.29214864 28.4007754 153.5200879 27.86011854 154.74633789 27.31567383 C157.23998387 26.21415785 159.74198919 25.13602828 162.25195312 24.07226562 C165.59982271 22.61941656 168.87064386 21.07228287 172.140625 19.453125 C173.58272339 18.75038452 173.58272339 18.75038452 175.05395508 18.03344727 C176.83088853 17.16644717 178.60211346 16.28759728 180.3659668 15.39428711 C187.11270497 12.22033064 194.67877048 10.80889778 201.9597168 13.1784668 C203.625 14 203.625 14 205.875 15.5 C205.875 16.16 205.875 16.82 205.875 17.5 C204.49584961 18.59057617 204.49584961 18.59057617 202.52734375 19.79296875 C201.41915283 20.47951538 201.41915283 20.47951538 200.28857422 21.17993164 C199.47146973 21.6774292 198.65436523 22.17492676 197.8125 22.6875 C196.06277535 23.77178239 194.31412379 24.85779788 192.56640625 25.9453125 C191.63844238 26.5218457 190.71047852 27.09837891 189.75439453 27.69238281 C184.87880114 30.75316741 180.06537124 33.90812834 175.25 37.0625 C173.29692816 38.33992504 171.3438039 39.61726993 169.390625 40.89453125 C168.45541016 41.50635254 167.52019531 42.11817383 166.55664062 42.74853516 C162.71146905 45.2599391 158.85717378 47.757081 155 50.25 C154.32179199 50.68836182 153.64358398 51.12672363 152.94482422 51.57836914 C151.5977309 52.44884601 150.25056368 53.3192085 148.90332031 54.18945312 C146.10526997 55.99734122 143.30844374 57.80711693 140.51196289 59.61743164 C139.09504134 60.53414897 137.67756646 61.45001165 136.25952148 62.36499023 C132.64327645 64.69970782 129.03812895 67.04922338 125.44921875 69.42578125 C107.1641544 81.48967373 89.26917366 90.18117555 66.74169922 85.90527344 C58.70564597 84.06676679 50.79060276 81.79427403 42.875 79.5 C41.0355985 78.9802033 39.19578611 78.46185727 37.35546875 77.9453125 C33.98177049 76.99355233 30.61246616 76.0281257 27.24609375 75.05078125 C20.94576914 73.22427169 14.62951068 71.45528291 8.3125 69.6875 C7.23468262 69.38521484 6.15686523 69.08292969 5.04638672 68.77148438 C3.5364917 68.34899414 3.5364917 68.34899414 1.99609375 67.91796875 C1.1033374 67.66813232 0.21058105 67.4182959 -0.70922852 67.16088867 C-10.58832191 64.45824028 -20.68303291 64.00205731 -30.07421875 68.52734375 C-32.08998858 69.48339458 -33.96100735 69.9922365 -36.125 70.5 C-36.25250914 50.46733386 -36.01589967 30.51680962 -35.125 10.5 C-33.00509448 9.3850641 -30.87979674 8.28326499 -28.75 7.1875 C-28.16605469 6.87876953 -27.58210937 6.57003906 -26.98046875 6.25195312 C-18.19817869 1.76637487 -9.84568021 -0.06591599 0 0 Z " fill="#64174A" transform="translate(195.125,310.5)"/>
<path d="M0 0 C1.58699729 1.36791686 3.14873746 2.76554122 4.6875 4.1875 C5.61304688 5.033125 6.53859375 5.87875 7.4921875 6.75 C13.70411584 12.67574194 18.52904536 18.68556424 22.6875 26.1875 C23.22117187 27.13367188 23.75484375 28.07984375 24.3046875 29.0546875 C34.62366759 48.40919245 36.67971516 71.11715386 30.6875 92.1875 C22.36174533 116.50980463 6.69596402 134.73071465 -16.3125 146.1875 C-34.52047995 154.54075445 -57.5019038 156.69714958 -76.7890625 150.5859375 C-100.66707776 141.10885384 -120.0832529 126.33823578 -130.53808594 102.13818359 C-139.54381402 79.45351543 -139.63761406 56.60711141 -130.625 33.9375 C-120.64345687 12.21150439 -102.98967629 -3.78308374 -80.9140625 -12.59375 C-53.61457589 -21.83175415 -22.9963316 -17.67277137 0 0 Z M-107.4375 19.3125 C-122.26350274 36.63456405 -126.85234154 56.93790551 -125.3125 79.1875 C-124.7387768 83.1057181 -123.78393481 86.52068445 -122.3125 90.1875 C-121.94898438 91.16589844 -121.58546875 92.14429688 -121.2109375 93.15234375 C-113.58478406 112.66053627 -100.60605417 126.91934855 -81.75 136.0625 C-79.95052895 136.80330788 -78.1378316 137.51292093 -76.3125 138.1875 C-75.48492187 138.50589844 -74.65734375 138.82429687 -73.8046875 139.15234375 C-60.22075611 143.44930164 -41.6397004 143.20029894 -28.3125 138.1875 C-27.31476563 137.83558594 -26.31703125 137.48367188 -25.2890625 137.12109375 C-18.20054542 134.41602993 -12.2468869 130.89309732 -6.3125 126.1875 C-5.47847656 125.53007812 -4.64445312 124.87265625 -3.78515625 124.1953125 C10.3169468 112.3312936 20.17252084 94.34156512 21.90332031 75.88623047 C23.13472568 54.20375109 17.00961653 34.70516381 2.6875 18.1875 C-11.69642848 3.32771223 -29.0090643 -4.66837165 -49.64941406 -5.15600586 C-72.81743025 -5.39133453 -91.19976203 2.25339785 -107.4375 19.3125 Z " fill="#FBF9FA" transform="translate(313.3125,145.8125)"/>
<path d="M0 0 C11.55 0 23.1 0 35 0 C35.10348815 19.74036548 34.75567491 39.40215782 34.07287598 59.12701416 C33.94878005 62.74211359 33.83008842 66.35739102 33.7109375 69.97265625 C33.47955402 76.98197987 33.23962618 83.99093436 33 91 C21.45 90.67 9.9 90.34 -2 90 C-2.2124635 68.96611368 -1.75484901 48.02016478 -1 27 C-0.96412655 26.00075878 -0.96412655 26.00075878 -0.92752838 24.98133087 C-0.62769837 16.65384499 -0.31507319 8.32693437 0 0 Z " fill="#64174A" transform="translate(114,303)"/>
<path d="M0 0 C1.875 1.5625 1.875 1.5625 3 4 C3.1875 7.75 3.1875 7.75 3 11 C3.99 11.185625 4.98 11.37125 6 11.5625 C12.30785979 13.39216318 17.23500433 18.14297563 20.5 23.75 C22.60735316 28.52666717 22.95557996 33.88635587 22 39 C18.76746204 41.15502531 17.74849077 41.46856135 14 41 C12.3125 40 12.3125 40 11 38 C10.51688284 36.00311573 10.03591658 34.00548448 9.58984375 32 C8.49516546 28.28824315 6.26605032 25.91679506 3.1875 23.6875 C-1.08831152 22.34367352 -4.70062484 22.37984367 -8.75 24.3125 C-12.00599404 26.75449553 -13.69471469 28.08414407 -15 32 C-15.39544498 36.19171681 -15.26960901 38.48075302 -13.3125 42.25 C-9.33095267 46.98481304 -5.82096193 48.26259403 0.25 48.8125 C7.93319131 49.89769651 12.73661443 52.31684284 17.8828125 58.125 C22.76638456 65.03014375 22.98470136 71.77071005 22 80 C20.77281253 85.97446534 16.58415153 91.12311756 12 95 C9.06639658 96.39917492 6.17147129 97.30961169 3 98 C3.12375 99.85625 3.12375 99.85625 3.25 101.75 C3.24442437 104.8946544 3.13412091 105.80130236 1.3125 108.5 C-1.45122422 110.29268598 -2.76822531 110.58006212 -6 110 C-7.640625 108.765625 -7.640625 108.765625 -9 107 C-9.29296875 104.73828125 -9.29296875 104.73828125 -9.1875 102.3125 C-9.16042969 101.50425781 -9.13335937 100.69601562 -9.10546875 99.86328125 C-9.07066406 99.24839844 -9.03585938 98.63351562 -9 98 C-10.2375 97.7215625 -10.2375 97.7215625 -11.5 97.4375 C-18.25124955 94.66466536 -23.39003206 89.84427588 -26.30859375 83.1171875 C-27.51420549 79.42542725 -28.32156842 75.89710294 -28 72 C-26.375 69.4375 -26.375 69.4375 -24 68 C-21.4375 67.5625 -21.4375 67.5625 -19 68 C-16.19348435 70.20266876 -15.61100405 71.90184911 -15.125 75.375 C-14.25524624 79.90066786 -12.65783753 82.07372997 -9 85 C-5.79545562 86.60227219 -2.48463087 86.35040981 1 86 C4.91986436 84.66872531 6.53854761 83.67679683 8.875 80.25 C10.17916721 76.48240584 10.49523071 73.96184568 10 70 C7.86942345 65.96712296 6.22136591 63.68259029 2 62 C0.11179454 61.68028938 -1.78582632 61.41371216 -3.6875 61.1875 C-12.02445002 59.86739829 -18.52522247 56.679854 -23.78125 49.94921875 C-27.79884347 43.52364457 -29.17965815 36.43067852 -27.56640625 29.00390625 C-25.35219151 21.94867543 -20.52442423 16.25717428 -14.1875 12.5 C-11 11 -11 11 -9 11 C-9.061875 9.741875 -9.12375 8.48375 -9.1875 7.1875 C-9.16684038 3.29660512 -9.16684038 3.29660512 -7.875 1 C-5.06836961 -0.49686954 -3.12242157 -0.45535315 0 0 Z " fill="#FBF9FA" transform="translate(264,159)"/>
<path d="M0 0 C3.5 0.25 3.5 0.25 5.5 2.25 C5.76069641 4.82408142 5.76069641 4.82408142 5.7746582 8.12084961 C5.78419022 9.35230209 5.79372223 10.58375458 5.80354309 11.8525238 C5.80328167 13.20246407 5.80234464 14.55240436 5.80078125 15.90234375 C5.80466699 17.28235504 5.80900141 18.66236513 5.81376648 20.04237366 C5.82123415 22.93673578 5.82093364 25.83097594 5.81567383 28.7253418 C5.80988004 32.43570238 5.82680469 36.14556363 5.8500185 39.85584164 C5.86474649 42.70657778 5.86562883 45.55719344 5.86250877 48.40796089 C5.86302252 49.77591503 5.86827027 51.14387582 5.87832069 52.51179314 C5.89064742 54.4244087 5.881964 56.33712491 5.87231445 58.24975586 C5.87294388 59.33848495 5.8735733 60.42721405 5.8742218 61.54893494 C5.5 64.25 5.5 64.25 4.20329285 66.13673401 C2.5 67.25 2.5 67.25 -1.125 67.0625 C-2.23875 66.794375 -3.3525 66.52625 -4.5 66.25 C-5.85633784 63.53732432 -5.6346526 61.4002067 -5.64526367 58.36328125 C-5.65164352 57.12860107 -5.65802338 55.8939209 -5.66459656 54.62182617 C-5.666125 53.26871784 -5.66723909 51.91560899 -5.66796875 50.5625 C-5.67118071 49.18009404 -5.67454474 47.79768843 -5.67805481 46.4152832 C-5.68404618 43.5167563 -5.68589465 40.61825922 -5.68530273 37.71972656 C-5.685201 34.00041484 -5.69886494 30.28129352 -5.71607494 26.56202698 C-5.72717621 23.70706295 -5.72922254 20.85214527 -5.72869301 17.99716187 C-5.72987551 16.62559349 -5.73431234 15.25402401 -5.74202538 13.88247681 C-5.75178895 11.96724898 -5.74769242 10.05196551 -5.74291992 8.13671875 C-5.74434494 7.04576904 -5.74576996 5.95481934 -5.74723816 4.83081055 C-5.34461082 0.62796061 -4.09874944 0.29276782 0 0 Z " fill="#FEFDFE" transform="translate(261.5,50.75)"/>
<path d="M0 0 C1.63134766 1.0703125 1.63134766 1.0703125 3 3 C3.38818359 6.23046875 3.38818359 6.23046875 3.3984375 10.1875 C3.40274277 11.23587036 3.40274277 11.23587036 3.40713501 12.30541992 C3.40917425 13.78142101 3.40365403 15.25744921 3.39111328 16.73339844 C3.3750558 18.99215138 3.3909647 21.24911518 3.41015625 23.5078125 C3.40817379 24.94271228 3.40433006 26.37761095 3.3984375 27.8125 C3.39505371 29.11832031 3.39166992 30.42414063 3.38818359 31.76953125 C3 35 3 35 1.70166016 36.96484375 C-1.1980997 38.72882966 -3.83255314 37.70387708 -7 37 C-8.96871955 35.03128045 -8.18750272 31.22694559 -8.203125 28.53515625 C-8.20882507 27.78664902 -8.21452515 27.03814178 -8.22039795 26.26695251 C-8.22986035 24.68066833 -8.23638684 23.09436438 -8.24023438 21.50805664 C-8.24994614 19.07598761 -8.28095887 16.64476129 -8.3125 14.21289062 C-8.31902915 12.67448421 -8.32427997 11.13607172 -8.328125 9.59765625 C-8.3404718 8.86740738 -8.3528186 8.13715851 -8.36553955 7.38478088 C-8.35644531 5.33227539 -8.35644531 5.33227539 -8 2 C-4.76746204 -0.15502531 -3.74849077 -0.46856135 0 0 Z " fill="#FDFCFD" transform="translate(220,80)"/>
<path d="M0 0 C1.63134766 1.07421875 1.63134766 1.07421875 3 3 C3.38818359 6.23046875 3.38818359 6.23046875 3.3984375 10.1875 C3.40274277 11.23587036 3.40274277 11.23587036 3.40713501 12.30541992 C3.40917425 13.78142101 3.40365403 15.25744921 3.39111328 16.73339844 C3.3750558 18.99215138 3.3909647 21.24911518 3.41015625 23.5078125 C3.40817379 24.94271228 3.40433006 26.37761095 3.3984375 27.8125 C3.39505371 29.11832031 3.39166992 30.42414063 3.38818359 31.76953125 C3 35 3 35 1.63134766 36.92578125 C-0.71982945 38.47399725 -2.24633656 38.41304952 -5 38 C-6.63134766 36.92578125 -6.63134766 36.92578125 -8 35 C-8.38818359 31.76953125 -8.38818359 31.76953125 -8.3984375 27.8125 C-8.40130768 27.11358643 -8.40417786 26.41467285 -8.40713501 25.69458008 C-8.40917425 24.21857899 -8.40365403 22.74255079 -8.39111328 21.26660156 C-8.3750558 19.00784862 -8.3909647 16.75088482 -8.41015625 14.4921875 C-8.40817379 13.05728772 -8.40433006 11.62238905 -8.3984375 10.1875 C-8.39505371 8.88167969 -8.39166992 7.57585937 -8.38818359 6.23046875 C-8 3 -8 3 -6.63134766 1.07421875 C-4.28017055 -0.47399725 -2.75366344 -0.41304952 0 0 Z " fill="#FEFDFE" transform="translate(308,80)"/>
</svg>
