<svg xmlns="http://www.w3.org/2000/svg" xmlns:xlink="http://www.w3.org/1999/xlink" width="111" height="111" viewBox="0 0 111 111">
  <defs>
    <clipPath id="clip-path">
      <rect id="Rectangle_57" data-name="Rectangle 57" width="64.607" height="65.169" fill="#fff"/>
    </clipPath>
  </defs>
  <g id="Group_217" data-name="Group 217" transform="translate(0 0.201)">
    <circle id="Ellipse_2" data-name="Ellipse 2" cx="55.5" cy="55.5" r="55.5" transform="translate(0 -0.201)" fill="#631549"/>
    <g id="Group_276" data-name="Group 276" transform="translate(23.196 22.715)">
      <g id="Group_275" data-name="Group 275" clip-path="url(#clip-path)">
        <path id="Path_97" data-name="Path 97" d="M30.639,47.823c-8.633,1.992-16.319.19-22.848-5.736A23.2,23.2,0,0,1,0,24.5,24.244,24.244,0,0,1,25.514.03,23.334,23.334,0,0,1,44.149,10.294c4.523,6.366,5.538,13.407,3.516,20.958a16.974,16.974,0,0,1,14.007,7.46A15.964,15.964,0,0,1,64.48,50.078a16.975,16.975,0,0,1-33.841-2.255M36.939,35a2.25,2.25,0,0,0,.255-.144,16.823,16.823,0,0,1,7.8-3.372.741.741,0,0,0,.664-.634A21.675,21.675,0,0,0,45.5,17.3,22.311,22.311,0,1,0,9.26,40.771c.158.147.336.272.566.457A14.781,14.781,0,0,1,19.48,28.4a9.744,9.744,0,1,1,9.651.031A14.751,14.751,0,0,1,36.939,35M47.632,33.32A14.9,14.9,0,1,0,62.568,48.512,14.917,14.917,0,0,0,47.632,33.32M25.215,46.61a22.054,22.054,0,0,0,5.084-.8.833.833,0,0,0,.7-.757,16.38,16.38,0,0,1,4.078-8.2.637.637,0,0,0,.1-.881,12.308,12.308,0,0,0-12.646-6.2,12.476,12.476,0,0,0-10.679,12.5.888.888,0,0,0,.478.87A23.21,23.21,0,0,0,25.215,46.61m-.96-18.981A7.728,7.728,0,1,0,16.6,19.822a7.753,7.753,0,0,0,7.656,7.807" transform="translate(0 0)" fill="#fff"/>
        <path id="Path_98" data-name="Path 98" d="M11.628,43.713A19.11,19.11,0,0,1,13.4,37.468a.99.99,0,1,1,1.806.81,19.011,19.011,0,0,0-1.574,5.582.955.955,0,0,1-1.132.873.97.97,0,0,1-.869-1.02" transform="translate(-6.786 -21.519)" fill="#fff"/>
        <path id="Path_99" data-name="Path 99" d="M23.4,27.292c-.016.771-1.162,2.23-1.691,2.244a1.265,1.265,0,0,1-.931-.383,1.109,1.109,0,0,1-.117-.994,5.547,5.547,0,0,1,1.219-1.46,1.14,1.14,0,0,1,1-.046c.272.124.425.51.523.64" transform="translate(-12.015 -15.503)" fill="#fff"/>
        <path id="Path_100" data-name="Path 100" d="M102.6,95.851c1.135,0,2.118-.006,3.1,0a4.1,4.1,0,1,1,0,8.2c-1,.013-2,0-3.085,0,0,1.073.022,2.074,0,3.073a4.083,4.083,0,0,1-8.133.559,25.377,25.377,0,0,1-.058-2.946c.01-.517-.123-.725-.677-.7-.832.044-1.668.025-2.5.006a4.1,4.1,0,0,1,.073-8.2c1-.009,2,0,3.1,0,0-.986,0-1.9,0-2.81a4.166,4.166,0,0,1,1.135-3.105A3.9,3.9,0,0,1,99.9,88.9a3.813,3.813,0,0,1,2.691,3.557c.071,1.1.013,2.212.013,3.4m1.18,6.173c.62,0,1.24.005,1.86,0a2.071,2.071,0,1,0-.009-4.136c-1.261-.006-2.523.005-3.784,0-.858-.007-1.214-.354-1.222-1.2-.012-1.239.008-2.478-.008-3.718a2.105,2.105,0,1,0-4.194.011c-.01,1.2,0,2.393,0,3.589,0,.981-.33,1.311-1.3,1.315-1.24.005-2.48,0-3.72,0a2.073,2.073,0,1,0,.009,4.14c1.2.008,2.394,0,3.591,0,1.122,0,1.416.287,1.42,1.384,0,1.175-.035,2.352.019,3.524a3.146,3.146,0,0,0,.386,1.387,1.985,1.985,0,0,0,2.3.827,2.114,2.114,0,0,0,1.489-2.093c.025-1.239,0-2.478.01-3.718.005-.991.322-1.309,1.3-1.315.62,0,1.24,0,1.86,0" transform="translate(-50.895 -51.729)" fill="#fff"/>
      </g>
    </g>
  </g>
</svg>
