<svg xmlns="http://www.w3.org/2000/svg" xmlns:xlink="http://www.w3.org/1999/xlink" width="111" height="111" viewBox="0 0 111 111">
  <defs>
    <clipPath id="clip-path">
      <rect id="Rectangle_61" data-name="Rectangle 61" width="69.847" height="71.94" fill="#fff"/>
    </clipPath>
  </defs>
  <g id="Group_222" data-name="Group 222" transform="translate(-905 -838)">
    <circle id="Ellipse_3" data-name="Ellipse 3" cx="55.5" cy="55.5" r="55.5" transform="translate(905 838)" fill="#631549"/>
    <g id="Group_284" data-name="Group 284" transform="translate(922 857.469)">
      <g id="Group_283" data-name="Group 283" clip-path="url(#clip-path)">
        <path id="Path_119" data-name="Path 119" d="M52.51,55.342l7.062-6.828c.429-.415.847-.844,1.293-1.241A5.365,5.365,0,0,1,68.65,54.61q-6.572,8.126-13.178,16.224a5.029,5.029,0,0,1-4.208,1.841c-6-.019-12,0-18-.014A7.139,7.139,0,0,0,28.2,74.544a1.172,1.172,0,0,0-.451,1.175,4.983,4.983,0,0,1-1.572,4.558c-2.09,2.051-4.147,4.138-6.215,6.211-1.171,1.175-2.2,1.18-3.374.006Q8.739,78.652.9,70.808C-.291,69.62-.3,68.607.874,67.43Q4.036,64.257,7.211,61.1A4.874,4.874,0,0,1,12.3,59.779a.707.707,0,0,0,.953-.363A15.87,15.87,0,0,1,26.5,51.943a12.657,12.657,0,0,1,6.288,1.281,10.349,10.349,0,0,0,4.935.987c3.633-.032,7.271-.109,10.9.028a17.366,17.366,0,0,1,3.883,1.1M25.923,72.578a9.746,9.746,0,0,1,7.755-2.941c5.831.082,11.663.009,17.5.039A2.637,2.637,0,0,0,53.436,68.6q6.34-7.877,12.734-15.709a2.367,2.367,0,0,0-.017-3.313,2.337,2.337,0,0,0-3.432.075q-4.252,4.068-8.459,8.185a1.213,1.213,0,0,0-.321.873,5.352,5.352,0,0,1-5.585,6.2q-5.633.01-11.266,0a4.666,4.666,0,0,1-.682-.023,1.487,1.487,0,0,1-1.291-1.465,1.467,1.467,0,0,1,1.292-1.464,7.835,7.835,0,0,1,1.023-.029c3.7,0,7.4.007,11.095-.006a2.378,2.378,0,0,0,2.386-1.7,2.2,2.2,0,0,0-.924-2.539,3.768,3.768,0,0,0-1.765-.471c-3.982-.04-7.965-.025-11.948-.019a8.875,8.875,0,0,1-4.031-.942A12.856,12.856,0,0,0,15.7,61.127a.9.9,0,0,0,.147,1.361c1.962,1.9,3.876,3.848,5.8,5.781,1.4,1.407,2.8,2.821,4.275,4.309M3.561,68.933,18.431,83.8c1.895-1.907,3.873-3.865,5.81-5.864a1.914,1.914,0,0,0-.009-2.832q-5.95-5.989-11.945-11.935a1.964,1.964,0,0,0-2.9-.01c-.252.23-.484.48-.726.721l-5.1,5.051" transform="translate(0 -15.432)" fill="#fff"/>
        <path id="Path_120" data-name="Path 120" d="M31.129,20.6c.555-2.12.909-4.154,1.616-6.057a22.439,22.439,0,0,1,43.268,5.115c.017.142.034.283.039.425a1.352,1.352,0,1,1-2.684.309c-.214-1.116-.35-2.254-.661-3.343a19.73,19.73,0,0,0-38.583,3.132c-.02.169-.035.34-.043.51-.09,1.835-.309,2.133-2.094,2.738l5.007,5.211,5.013-5.228a7.131,7.131,0,0,1-1.09-.214,1.59,1.59,0,0,1-.977-1.872A13.091,13.091,0,0,1,48.447,9.635,13.066,13.066,0,0,1,63.3,12.419a13.064,13.064,0,0,1,3.463,14.786c-1.972,5.424-6.055,8.451-11.819,9.1a13.429,13.429,0,0,1-6.354-.906c-1.169-.447-1.584-1.114-1.256-1.95s1.06-1.027,2.228-.577A11.218,11.218,0,1,0,54.6,11.27,11.485,11.485,0,0,0,42.824,19.94a6.245,6.245,0,0,0-.07.662c.814,0,1.577.005,2.341,0a1.378,1.378,0,0,1,1.439.847,1.4,1.4,0,0,1-.429,1.616q-3.969,4.115-7.931,8.239c-.842.872-1.544.854-2.4-.031q-3.88-4.024-7.758-8.05a1.575,1.575,0,0,1-.544-1.825c.309-.722.949-.815,1.642-.8.708.017,1.417,0,2.013,0" transform="translate(-9.202 0)" fill="#fff"/>
        <path id="Path_121" data-name="Path 121" d="M97.147,39.835a1.378,1.378,0,0,1,1.453-1.26,1.4,1.4,0,0,1,1.239,1.4,1.365,1.365,0,0,1-1.42,1.291,1.346,1.346,0,0,1-1.272-1.429" transform="translate(-32.68 -12.975)" fill="#fff"/>
        <path id="Path_122" data-name="Path 122" d="M99.687,34.817A1.319,1.319,0,0,1,98.3,36.126,1.353,1.353,0,0,1,97,34.8a1.379,1.379,0,0,1,1.355-1.367,1.352,1.352,0,0,1,1.327,1.383" transform="translate(-32.633 -11.247)" fill="#fff"/>
        <path id="Path_123" data-name="Path 123" d="M15.788,76.561A1.672,1.672,0,0,1,17.5,78.277a1.7,1.7,0,0,1-1.745,1.7,1.731,1.731,0,0,1-1.681-1.689,1.7,1.7,0,0,1,1.712-1.729" transform="translate(-4.735 -25.756)" fill="#fff"/>
        <path id="Path_124" data-name="Path 124" d="M70.284,23.078a.44.44,0,0,1,.21.441c-.006.259,0,.519,0,.778,0,.294-.11.4-.4.4-.662,0-1.325,0-1.987,0h-.179a.92.92,0,0,0,.052.1,3.194,3.194,0,0,1,.516,1.167.144.144,0,0,0,.17.135c.478-.007.957,0,1.436,0,.314,0,.41.1.411.406q0,.409,0,.818c0,.3-.1.4-.394.4-.478,0-.958,0-1.436,0-.094,0-.127.024-.147.121A3.716,3.716,0,0,1,66,30.748c-.439.163-.906.25-1.36.371.1.106.208.231.321.355,1.359,1.486,2.641,3.037,3.92,4.592.071.086.142.173.212.259a.276.276,0,0,1,.033.314.286.286,0,0,1-.272.182H66.918a.342.342,0,0,1-.267-.156c-.443-.527-.879-1.061-1.333-1.579q-1.693-1.932-3.4-3.85a.613.613,0,0,1-.182-.455c.011-.33,0-.662,0-.993s.107-.425.424-.429c.528-.007,1.056,0,1.582-.031a3.267,3.267,0,0,0,1.793-.593,1.761,1.761,0,0,0,.666-1.013H62.182a1.7,1.7,0,0,1-.175,0,.271.271,0,0,1-.259-.261q-.012-.542,0-1.086a.266.266,0,0,1,.257-.261,1.6,1.6,0,0,1,.187-.009h3.883a1.634,1.634,0,0,0-.676-.7,3.553,3.553,0,0,0-1.678-.394c-.519-.013-1.038-.005-1.557-.007-.315,0-.427-.112-.427-.427,0-.367,0-.734,0-1.1a.382.382,0,0,1,.225-.4Z" transform="translate(-20.767 -7.764)" fill="#fff"/>
      </g>
    </g>
  </g>
</svg>
